%TF.GenerationSoftware,KiCad,Pcbnew,(5.1.9)-1*%
%TF.CreationDate,2021-04-10T21:56:04-07:00*%
%TF.ProjectId,Keyboard Proto,4b657962-6f61-4726-9420-50726f746f2e,rev?*%
%TF.SameCoordinates,Original*%
%TF.FileFunction,Soldermask,Bot*%
%TF.FilePolarity,Negative*%
%FSLAX46Y46*%
G04 Gerber Fmt 4.6, Leading zero omitted, Abs format (unit mm)*
G04 Created by KiCad (PCBNEW (5.1.9)-1) date 2021-04-10 21:56:04*
%MOMM*%
%LPD*%
G01*
G04 APERTURE LIST*
%ADD10C,1.778000*%
%ADD11C,1.700000*%
%ADD12C,4.000000*%
%ADD13C,2.200000*%
%ADD14O,1.700000X1.700000*%
%ADD15R,1.700000X1.700000*%
G04 APERTURE END LIST*
D10*
%TO.C,U1*%
X128905000Y-94234000D03*
X126365000Y-94234000D03*
X123825000Y-94234000D03*
X121285000Y-94234000D03*
%TD*%
D11*
%TO.C,S1*%
X189153800Y-131292600D03*
X178993800Y-131292600D03*
D12*
X184073800Y-131292600D03*
D13*
X180263800Y-128752600D03*
X186613800Y-126212600D03*
%TD*%
D10*
%TO.C,U5*%
X95885000Y-59436000D03*
X95885000Y-61976000D03*
X95885000Y-64516000D03*
X95885000Y-67056000D03*
X95885000Y-69596000D03*
X95885000Y-72136000D03*
X95885000Y-74676000D03*
X95885000Y-77216000D03*
X95885000Y-79756000D03*
X95885000Y-82296000D03*
X95885000Y-84836000D03*
X95885000Y-87376000D03*
X95885000Y-89916000D03*
X95885000Y-92456000D03*
X95885000Y-94996000D03*
X95885000Y-97536000D03*
X116205000Y-69596000D03*
X116205000Y-72136000D03*
X116205000Y-74676000D03*
X116205000Y-77216000D03*
X116205000Y-79756000D03*
X116205000Y-82296000D03*
X116205000Y-84836000D03*
X116205000Y-87376000D03*
X116205000Y-89916000D03*
X116205000Y-92456000D03*
X116205000Y-94996000D03*
X116205000Y-97536000D03*
%TD*%
D11*
%TO.C,Q1*%
X168148000Y-110566200D03*
X157988000Y-110566200D03*
D12*
X163068000Y-110566200D03*
D13*
X159258000Y-108026200D03*
X165608000Y-105486200D03*
%TD*%
D11*
%TO.C,A1*%
X168148000Y-131292600D03*
X157988000Y-131292600D03*
D12*
X163068000Y-131292600D03*
D13*
X159258000Y-128752600D03*
X165608000Y-126212600D03*
%TD*%
D11*
%TO.C,D1*%
X210159600Y-131292600D03*
X199999600Y-131292600D03*
D12*
X205079600Y-131292600D03*
D13*
X201269600Y-128752600D03*
X207619600Y-126212600D03*
%TD*%
D11*
%TO.C,Shift1*%
X147142200Y-110566200D03*
X136982200Y-110566200D03*
D12*
X142062200Y-110566200D03*
D13*
X138252200Y-108026200D03*
X144602200Y-105486200D03*
%TD*%
D11*
%TO.C,Ctrl1*%
X147142200Y-131292600D03*
X136982200Y-131292600D03*
D12*
X142062200Y-131292600D03*
D13*
X138252200Y-128752600D03*
X144602200Y-126212600D03*
%TD*%
D11*
%TO.C,E1*%
X210159600Y-110566200D03*
X199999600Y-110566200D03*
D12*
X205079600Y-110566200D03*
D13*
X201269600Y-108026200D03*
X207619600Y-105486200D03*
%TD*%
D11*
%TO.C,W1*%
X189153800Y-110566200D03*
X178993800Y-110566200D03*
D12*
X184073800Y-110566200D03*
D13*
X180263800Y-108026200D03*
X186613800Y-105486200D03*
%TD*%
D14*
%TO.C,J1*%
X138734800Y-92303600D03*
X138734800Y-89763600D03*
X138734800Y-87223600D03*
X138734800Y-84683600D03*
X138734800Y-82143600D03*
X138734800Y-79603600D03*
X138734800Y-77063600D03*
X138734800Y-74523600D03*
X138734800Y-71983600D03*
X138734800Y-69443600D03*
X138734800Y-66903600D03*
X138734800Y-64363600D03*
X138734800Y-61823600D03*
D15*
X138734800Y-59283600D03*
%TD*%
D14*
%TO.C,J2*%
X96215200Y-108292900D03*
D15*
X96215200Y-105752900D03*
%TD*%
D14*
%TO.C,J3*%
X97104200Y-126695200D03*
X97104200Y-124155200D03*
X97104200Y-121615200D03*
X97104200Y-119075200D03*
D15*
X97104200Y-116535200D03*
%TD*%
M02*
