M48
; DRILL file {KiCad (5.1.9)-1} date 03/23/21 20:35:00
; FORMAT={-:-/ absolute / inch / decimal}
; #@! TF.CreationDate,2021-03-23T20:35:00-07:00
; #@! TF.GenerationSoftware,Kicad,Pcbnew,(5.1.9)-1
; #@! TF.FileFunction,Plated,1,2,PTH
FMAT,2
INCH
T1C0.0157
T2C0.0300
T3C0.0394
T4C0.0402
T5C0.0591
%
G90
G05
T1
X4.0825Y-4.4475
X4.158Y-3.597
X4.215Y-3.53
X4.25Y-4.6225
X4.25Y-4.87
X4.255Y-3.44
X4.2975Y-4.9475
X4.3975Y-4.87
X4.4225Y-4.0575
X4.525Y-4.9475
X4.6085Y-4.606
X4.937Y-3.268
T2
X4.775Y-3.71
X4.875Y-3.71
X4.975Y-3.71
X5.075Y-3.71
T3
X3.775Y-2.34
X3.775Y-2.44
X3.775Y-2.54
X3.775Y-2.64
X3.775Y-2.74
X3.775Y-2.84
X3.775Y-2.94
X3.775Y-3.04
X3.775Y-3.14
X3.775Y-3.24
X3.775Y-3.34
X3.775Y-3.44
X3.775Y-3.54
X3.775Y-3.64
X3.775Y-3.74
X3.775Y-3.84
X3.788Y-4.1635
X3.788Y-4.2635
X3.823Y-4.588
X3.823Y-4.688
X3.823Y-4.788
X3.823Y-4.888
X3.823Y-4.988
X4.575Y-2.74
X4.575Y-2.84
X4.575Y-2.94
X4.575Y-3.04
X4.575Y-3.14
X4.575Y-3.24
X4.575Y-3.34
X4.575Y-3.44
X4.575Y-3.54
X4.575Y-3.64
X4.575Y-3.74
X4.575Y-3.84
X5.462Y-2.334
X5.462Y-2.434
X5.462Y-2.534
X5.462Y-2.634
X5.462Y-2.734
X5.462Y-2.834
X5.462Y-2.934
X5.462Y-3.034
X5.462Y-3.134
X5.462Y-3.234
X5.462Y-3.334
X5.462Y-3.434
X5.462Y-3.534
X5.462Y-3.634
T4
X4.7075Y-4.26
X4.7075Y-4.36
X4.7075Y-4.46
X4.7075Y-4.56
X4.7075Y-4.66
X4.7075Y-4.76
X4.7075Y-4.86
X4.7075Y-4.96
X4.7075Y-5.06
X4.7075Y-5.16
X4.7075Y-5.26
X4.7075Y-5.36
X5.0075Y-4.16
X5.0075Y-4.26
X5.0075Y-4.36
X5.0075Y-4.46
X5.0075Y-4.56
X5.0075Y-4.66
X5.0075Y-4.76
X5.0075Y-4.86
X5.0075Y-4.96
X5.0075Y-5.06
X5.0075Y-5.16
X5.0075Y-5.26
X5.0075Y-5.36
T5
X5.443Y-4.253
X5.443Y-5.069
X5.693Y-4.153
X5.693Y-4.969
X6.27Y-4.253
X6.27Y-5.069
X6.52Y-4.153
X6.52Y-4.969
X7.097Y-4.253
X7.097Y-5.069
X7.347Y-4.153
X7.347Y-4.969
X7.924Y-4.253
X7.924Y-5.069
X8.174Y-4.153
X8.174Y-4.969
T0
M30
