M48
; DRILL file {KiCad (5.1.9)-1} date 03/23/21 20:35:00
; FORMAT={-:-/ absolute / inch / decimal}
; #@! TF.CreationDate,2021-03-23T20:35:00-07:00
; #@! TF.GenerationSoftware,Kicad,Pcbnew,(5.1.9)-1
; #@! TF.FileFunction,NonPlated,1,2,NPTH
FMAT,2
INCH
T1C0.0669
T2C0.1575
%
G90
G05
T1
X5.393Y-4.353
X5.393Y-5.169
X5.793Y-4.353
X5.793Y-5.169
X6.22Y-4.353
X6.22Y-5.169
X6.62Y-4.353
X6.62Y-5.169
X7.047Y-4.353
X7.047Y-5.169
X7.447Y-4.353
X7.447Y-5.169
X7.874Y-4.353
X7.874Y-5.169
X8.274Y-4.353
X8.274Y-5.169
T2
X5.593Y-4.353
X5.593Y-5.169
X6.42Y-4.353
X6.42Y-5.169
X7.247Y-4.353
X7.247Y-5.169
X8.074Y-4.353
X8.074Y-5.169
T0
M30
