%TF.GenerationSoftware,KiCad,Pcbnew,(5.1.9)-1*%
%TF.CreationDate,2021-04-10T21:56:04-07:00*%
%TF.ProjectId,Keyboard Proto,4b657962-6f61-4726-9420-50726f746f2e,rev?*%
%TF.SameCoordinates,Original*%
%TF.FileFunction,Legend,Bot*%
%TF.FilePolarity,Positive*%
%FSLAX46Y46*%
G04 Gerber Fmt 4.6, Leading zero omitted, Abs format (unit mm)*
G04 Created by KiCad (PCBNEW (5.1.9)-1) date 2021-04-10 21:56:04*
%MOMM*%
%LPD*%
G01*
G04 APERTURE LIST*
%ADD10C,0.150000*%
G04 APERTURE END LIST*
D10*
X114914157Y-69315080D02*
X114580823Y-70315080D01*
X114247490Y-69315080D01*
X113580823Y-69791271D02*
X113437966Y-69838890D01*
X113390347Y-69886509D01*
X113342728Y-69981747D01*
X113342728Y-70124604D01*
X113390347Y-70219842D01*
X113437966Y-70267461D01*
X113533204Y-70315080D01*
X113914157Y-70315080D01*
X113914157Y-69315080D01*
X113580823Y-69315080D01*
X113485585Y-69362700D01*
X113437966Y-69410319D01*
X113390347Y-69505557D01*
X113390347Y-69600795D01*
X113437966Y-69696033D01*
X113485585Y-69743652D01*
X113580823Y-69791271D01*
X113914157Y-69791271D01*
X112961776Y-70029366D02*
X112485585Y-70029366D01*
X113057014Y-70315080D02*
X112723680Y-69315080D01*
X112390347Y-70315080D01*
X112199871Y-69315080D02*
X111628442Y-69315080D01*
X111914157Y-70315080D02*
X111914157Y-69315080D01*
X114745995Y-72204271D02*
X114412661Y-72204271D01*
X114269804Y-72728080D02*
X114745995Y-72728080D01*
X114745995Y-71728080D01*
X114269804Y-71728080D01*
X113841233Y-72728080D02*
X113841233Y-71728080D01*
X113269804Y-72728080D01*
X113269804Y-71728080D01*
X114291785Y-74293480D02*
X114767976Y-74293480D01*
X114815595Y-74769671D01*
X114767976Y-74722052D01*
X114672738Y-74674433D01*
X114434642Y-74674433D01*
X114339404Y-74722052D01*
X114291785Y-74769671D01*
X114244166Y-74864909D01*
X114244166Y-75103004D01*
X114291785Y-75198242D01*
X114339404Y-75245861D01*
X114434642Y-75293480D01*
X114672738Y-75293480D01*
X114767976Y-75245861D01*
X114815595Y-75198242D01*
X113958452Y-74293480D02*
X113625119Y-75293480D01*
X113291785Y-74293480D01*
X112244166Y-74245861D02*
X113101309Y-75531576D01*
X111910833Y-74293480D02*
X111910833Y-75103004D01*
X111863214Y-75198242D01*
X111815595Y-75245861D01*
X111720357Y-75293480D01*
X111529880Y-75293480D01*
X111434642Y-75245861D01*
X111387023Y-75198242D01*
X111339404Y-75103004D01*
X111339404Y-74293480D01*
X110910833Y-75245861D02*
X110767976Y-75293480D01*
X110529880Y-75293480D01*
X110434642Y-75245861D01*
X110387023Y-75198242D01*
X110339404Y-75103004D01*
X110339404Y-75007766D01*
X110387023Y-74912528D01*
X110434642Y-74864909D01*
X110529880Y-74817290D01*
X110720357Y-74769671D01*
X110815595Y-74722052D01*
X110863214Y-74674433D01*
X110910833Y-74579195D01*
X110910833Y-74483957D01*
X110863214Y-74388719D01*
X110815595Y-74341100D01*
X110720357Y-74293480D01*
X110482261Y-74293480D01*
X110339404Y-74341100D01*
X109577500Y-74769671D02*
X109434642Y-74817290D01*
X109387023Y-74864909D01*
X109339404Y-74960147D01*
X109339404Y-75103004D01*
X109387023Y-75198242D01*
X109434642Y-75245861D01*
X109529880Y-75293480D01*
X109910833Y-75293480D01*
X109910833Y-74293480D01*
X109577500Y-74293480D01*
X109482261Y-74341100D01*
X109434642Y-74388719D01*
X109387023Y-74483957D01*
X109387023Y-74579195D01*
X109434642Y-74674433D01*
X109482261Y-74722052D01*
X109577500Y-74769671D01*
X109910833Y-74769671D01*
X114810990Y-77808080D02*
X114810990Y-76808080D01*
X114144323Y-76808080D02*
X113953847Y-76808080D01*
X113858609Y-76855700D01*
X113763371Y-76950938D01*
X113715752Y-77141414D01*
X113715752Y-77474747D01*
X113763371Y-77665223D01*
X113858609Y-77760461D01*
X113953847Y-77808080D01*
X114144323Y-77808080D01*
X114239561Y-77760461D01*
X114334800Y-77665223D01*
X114382419Y-77474747D01*
X114382419Y-77141414D01*
X114334800Y-76950938D01*
X114239561Y-76855700D01*
X114144323Y-76808080D01*
X112763371Y-77808080D02*
X113334800Y-77808080D01*
X113049085Y-77808080D02*
X113049085Y-76808080D01*
X113144323Y-76950938D01*
X113239561Y-77046176D01*
X113334800Y-77093795D01*
X111810990Y-77808080D02*
X112382419Y-77808080D01*
X112096704Y-77808080D02*
X112096704Y-76808080D01*
X112191942Y-76950938D01*
X112287180Y-77046176D01*
X112382419Y-77093795D01*
X114760190Y-80246480D02*
X114760190Y-79246480D01*
X114093523Y-79246480D02*
X113903047Y-79246480D01*
X113807809Y-79294100D01*
X113712571Y-79389338D01*
X113664952Y-79579814D01*
X113664952Y-79913147D01*
X113712571Y-80103623D01*
X113807809Y-80198861D01*
X113903047Y-80246480D01*
X114093523Y-80246480D01*
X114188761Y-80198861D01*
X114284000Y-80103623D01*
X114331619Y-79913147D01*
X114331619Y-79579814D01*
X114284000Y-79389338D01*
X114188761Y-79294100D01*
X114093523Y-79246480D01*
X112712571Y-80246480D02*
X113284000Y-80246480D01*
X112998285Y-80246480D02*
X112998285Y-79246480D01*
X113093523Y-79389338D01*
X113188761Y-79484576D01*
X113284000Y-79532195D01*
X112093523Y-79246480D02*
X111998285Y-79246480D01*
X111903047Y-79294100D01*
X111855428Y-79341719D01*
X111807809Y-79436957D01*
X111760190Y-79627433D01*
X111760190Y-79865528D01*
X111807809Y-80056004D01*
X111855428Y-80151242D01*
X111903047Y-80198861D01*
X111998285Y-80246480D01*
X112093523Y-80246480D01*
X112188761Y-80198861D01*
X112236380Y-80151242D01*
X112284000Y-80056004D01*
X112331619Y-79865528D01*
X112331619Y-79627433D01*
X112284000Y-79436957D01*
X112236380Y-79341719D01*
X112188761Y-79294100D01*
X112093523Y-79246480D01*
X114792000Y-82938880D02*
X114792000Y-81938880D01*
X114125333Y-81938880D02*
X113934857Y-81938880D01*
X113839619Y-81986500D01*
X113744380Y-82081738D01*
X113696761Y-82272214D01*
X113696761Y-82605547D01*
X113744380Y-82796023D01*
X113839619Y-82891261D01*
X113934857Y-82938880D01*
X114125333Y-82938880D01*
X114220571Y-82891261D01*
X114315809Y-82796023D01*
X114363428Y-82605547D01*
X114363428Y-82272214D01*
X114315809Y-82081738D01*
X114220571Y-81986500D01*
X114125333Y-81938880D01*
X113363428Y-81938880D02*
X112696761Y-81938880D01*
X113125333Y-82938880D01*
X114957100Y-85453480D02*
X114957100Y-84453480D01*
X114290433Y-84453480D02*
X114099957Y-84453480D01*
X114004719Y-84501100D01*
X113909480Y-84596338D01*
X113861861Y-84786814D01*
X113861861Y-85120147D01*
X113909480Y-85310623D01*
X114004719Y-85405861D01*
X114099957Y-85453480D01*
X114290433Y-85453480D01*
X114385671Y-85405861D01*
X114480909Y-85310623D01*
X114528528Y-85120147D01*
X114528528Y-84786814D01*
X114480909Y-84596338D01*
X114385671Y-84501100D01*
X114290433Y-84453480D01*
X113528528Y-84453480D02*
X112909480Y-84453480D01*
X113242814Y-84834433D01*
X113099957Y-84834433D01*
X113004719Y-84882052D01*
X112957100Y-84929671D01*
X112909480Y-85024909D01*
X112909480Y-85263004D01*
X112957100Y-85358242D01*
X113004719Y-85405861D01*
X113099957Y-85453480D01*
X113385671Y-85453480D01*
X113480909Y-85405861D01*
X113528528Y-85358242D01*
X114779300Y-87942680D02*
X114779300Y-86942680D01*
X114112633Y-86942680D02*
X113922157Y-86942680D01*
X113826919Y-86990300D01*
X113731680Y-87085538D01*
X113684061Y-87276014D01*
X113684061Y-87609347D01*
X113731680Y-87799823D01*
X113826919Y-87895061D01*
X113922157Y-87942680D01*
X114112633Y-87942680D01*
X114207871Y-87895061D01*
X114303109Y-87799823D01*
X114350728Y-87609347D01*
X114350728Y-87276014D01*
X114303109Y-87085538D01*
X114207871Y-86990300D01*
X114112633Y-86942680D01*
X112731680Y-87942680D02*
X113303109Y-87942680D01*
X113017395Y-87942680D02*
X113017395Y-86942680D01*
X113112633Y-87085538D01*
X113207871Y-87180776D01*
X113303109Y-87228395D01*
X114836390Y-90546180D02*
X114836390Y-89546180D01*
X114169723Y-89546180D02*
X113979247Y-89546180D01*
X113884009Y-89593800D01*
X113788771Y-89689038D01*
X113741152Y-89879514D01*
X113741152Y-90212847D01*
X113788771Y-90403323D01*
X113884009Y-90498561D01*
X113979247Y-90546180D01*
X114169723Y-90546180D01*
X114264961Y-90498561D01*
X114360200Y-90403323D01*
X114407819Y-90212847D01*
X114407819Y-89879514D01*
X114360200Y-89689038D01*
X114264961Y-89593800D01*
X114169723Y-89546180D01*
X113407819Y-89546180D02*
X112788771Y-89546180D01*
X113122104Y-89927133D01*
X112979247Y-89927133D01*
X112884009Y-89974752D01*
X112836390Y-90022371D01*
X112788771Y-90117609D01*
X112788771Y-90355704D01*
X112836390Y-90450942D01*
X112884009Y-90498561D01*
X112979247Y-90546180D01*
X113264961Y-90546180D01*
X113360200Y-90498561D01*
X113407819Y-90450942D01*
X112217342Y-89974752D02*
X112312580Y-89927133D01*
X112360200Y-89879514D01*
X112407819Y-89784276D01*
X112407819Y-89736657D01*
X112360200Y-89641419D01*
X112312580Y-89593800D01*
X112217342Y-89546180D01*
X112026866Y-89546180D01*
X111931628Y-89593800D01*
X111884009Y-89641419D01*
X111836390Y-89736657D01*
X111836390Y-89784276D01*
X111884009Y-89879514D01*
X111931628Y-89927133D01*
X112026866Y-89974752D01*
X112217342Y-89974752D01*
X112312580Y-90022371D01*
X112360200Y-90069990D01*
X112407819Y-90165228D01*
X112407819Y-90355704D01*
X112360200Y-90450942D01*
X112312580Y-90498561D01*
X112217342Y-90546180D01*
X112026866Y-90546180D01*
X111931628Y-90498561D01*
X111884009Y-90450942D01*
X111836390Y-90355704D01*
X111836390Y-90165228D01*
X111884009Y-90069990D01*
X111931628Y-90022371D01*
X112026866Y-89974752D01*
X114874490Y-93086180D02*
X114874490Y-92086180D01*
X114207823Y-92086180D02*
X114017347Y-92086180D01*
X113922109Y-92133800D01*
X113826871Y-92229038D01*
X113779252Y-92419514D01*
X113779252Y-92752847D01*
X113826871Y-92943323D01*
X113922109Y-93038561D01*
X114017347Y-93086180D01*
X114207823Y-93086180D01*
X114303061Y-93038561D01*
X114398300Y-92943323D01*
X114445919Y-92752847D01*
X114445919Y-92419514D01*
X114398300Y-92229038D01*
X114303061Y-92133800D01*
X114207823Y-92086180D01*
X113445919Y-92086180D02*
X112826871Y-92086180D01*
X113160204Y-92467133D01*
X113017347Y-92467133D01*
X112922109Y-92514752D01*
X112874490Y-92562371D01*
X112826871Y-92657609D01*
X112826871Y-92895704D01*
X112874490Y-92990942D01*
X112922109Y-93038561D01*
X113017347Y-93086180D01*
X113303061Y-93086180D01*
X113398300Y-93038561D01*
X113445919Y-92990942D01*
X112493538Y-92086180D02*
X111874490Y-92086180D01*
X112207823Y-92467133D01*
X112064966Y-92467133D01*
X111969728Y-92514752D01*
X111922109Y-92562371D01*
X111874490Y-92657609D01*
X111874490Y-92895704D01*
X111922109Y-92990942D01*
X111969728Y-93038561D01*
X112064966Y-93086180D01*
X112350680Y-93086180D01*
X112445919Y-93038561D01*
X112493538Y-92990942D01*
X114890180Y-95489661D02*
X114747323Y-95537280D01*
X114509228Y-95537280D01*
X114413990Y-95489661D01*
X114366371Y-95442042D01*
X114318752Y-95346804D01*
X114318752Y-95251566D01*
X114366371Y-95156328D01*
X114413990Y-95108709D01*
X114509228Y-95061090D01*
X114699704Y-95013471D01*
X114794942Y-94965852D01*
X114842561Y-94918233D01*
X114890180Y-94822995D01*
X114890180Y-94727757D01*
X114842561Y-94632519D01*
X114794942Y-94584900D01*
X114699704Y-94537280D01*
X114461609Y-94537280D01*
X114318752Y-94584900D01*
X113318752Y-95442042D02*
X113366371Y-95489661D01*
X113509228Y-95537280D01*
X113604466Y-95537280D01*
X113747323Y-95489661D01*
X113842561Y-95394423D01*
X113890180Y-95299185D01*
X113937800Y-95108709D01*
X113937800Y-94965852D01*
X113890180Y-94775376D01*
X113842561Y-94680138D01*
X113747323Y-94584900D01*
X113604466Y-94537280D01*
X113509228Y-94537280D01*
X113366371Y-94584900D01*
X113318752Y-94632519D01*
X112413990Y-95537280D02*
X112890180Y-95537280D01*
X112890180Y-94537280D01*
X111366371Y-94489661D02*
X112223514Y-95775376D01*
X111033038Y-95537280D02*
X111033038Y-94537280D01*
X110366371Y-94537280D02*
X110175895Y-94537280D01*
X110080657Y-94584900D01*
X109985419Y-94680138D01*
X109937800Y-94870614D01*
X109937800Y-95203947D01*
X109985419Y-95394423D01*
X110080657Y-95489661D01*
X110175895Y-95537280D01*
X110366371Y-95537280D01*
X110461609Y-95489661D01*
X110556847Y-95394423D01*
X110604466Y-95203947D01*
X110604466Y-94870614D01*
X110556847Y-94680138D01*
X110461609Y-94584900D01*
X110366371Y-94537280D01*
X109461609Y-95537280D02*
X109271133Y-95537280D01*
X109175895Y-95489661D01*
X109128276Y-95442042D01*
X109033038Y-95299185D01*
X108985419Y-95108709D01*
X108985419Y-94727757D01*
X109033038Y-94632519D01*
X109080657Y-94584900D01*
X109175895Y-94537280D01*
X109366371Y-94537280D01*
X109461609Y-94584900D01*
X109509228Y-94632519D01*
X109556847Y-94727757D01*
X109556847Y-94965852D01*
X109509228Y-95061090D01*
X109461609Y-95108709D01*
X109366371Y-95156328D01*
X109175895Y-95156328D01*
X109080657Y-95108709D01*
X109033038Y-95061090D01*
X108985419Y-94965852D01*
X114901290Y-98093161D02*
X114758433Y-98140780D01*
X114520338Y-98140780D01*
X114425100Y-98093161D01*
X114377480Y-98045542D01*
X114329861Y-97950304D01*
X114329861Y-97855066D01*
X114377480Y-97759828D01*
X114425100Y-97712209D01*
X114520338Y-97664590D01*
X114710814Y-97616971D01*
X114806052Y-97569352D01*
X114853671Y-97521733D01*
X114901290Y-97426495D01*
X114901290Y-97331257D01*
X114853671Y-97236019D01*
X114806052Y-97188400D01*
X114710814Y-97140780D01*
X114472719Y-97140780D01*
X114329861Y-97188400D01*
X113901290Y-98140780D02*
X113901290Y-97140780D01*
X113663195Y-97140780D01*
X113520338Y-97188400D01*
X113425100Y-97283638D01*
X113377480Y-97378876D01*
X113329861Y-97569352D01*
X113329861Y-97712209D01*
X113377480Y-97902685D01*
X113425100Y-97997923D01*
X113520338Y-98093161D01*
X113663195Y-98140780D01*
X113901290Y-98140780D01*
X112948909Y-97855066D02*
X112472719Y-97855066D01*
X113044147Y-98140780D02*
X112710814Y-97140780D01*
X112377480Y-98140780D01*
X111329861Y-97093161D02*
X112187004Y-98378876D01*
X110996528Y-98140780D02*
X110996528Y-97140780D01*
X110329861Y-97140780D02*
X110139385Y-97140780D01*
X110044147Y-97188400D01*
X109948909Y-97283638D01*
X109901290Y-97474114D01*
X109901290Y-97807447D01*
X109948909Y-97997923D01*
X110044147Y-98093161D01*
X110139385Y-98140780D01*
X110329861Y-98140780D01*
X110425100Y-98093161D01*
X110520338Y-97997923D01*
X110567957Y-97807447D01*
X110567957Y-97474114D01*
X110520338Y-97283638D01*
X110425100Y-97188400D01*
X110329861Y-97140780D01*
X109329861Y-97569352D02*
X109425100Y-97521733D01*
X109472719Y-97474114D01*
X109520338Y-97378876D01*
X109520338Y-97331257D01*
X109472719Y-97236019D01*
X109425100Y-97188400D01*
X109329861Y-97140780D01*
X109139385Y-97140780D01*
X109044147Y-97188400D01*
X108996528Y-97236019D01*
X108948909Y-97331257D01*
X108948909Y-97378876D01*
X108996528Y-97474114D01*
X109044147Y-97521733D01*
X109139385Y-97569352D01*
X109329861Y-97569352D01*
X109425100Y-97616971D01*
X109472719Y-97664590D01*
X109520338Y-97759828D01*
X109520338Y-97950304D01*
X109472719Y-98045542D01*
X109425100Y-98093161D01*
X109329861Y-98140780D01*
X109139385Y-98140780D01*
X109044147Y-98093161D01*
X108996528Y-98045542D01*
X108948909Y-97950304D01*
X108948909Y-97759828D01*
X108996528Y-97664590D01*
X109044147Y-97616971D01*
X109139385Y-97569352D01*
X100364704Y-97140780D02*
X99745657Y-97140780D01*
X100078990Y-97521733D01*
X99936133Y-97521733D01*
X99840895Y-97569352D01*
X99793276Y-97616971D01*
X99745657Y-97712209D01*
X99745657Y-97950304D01*
X99793276Y-98045542D01*
X99840895Y-98093161D01*
X99936133Y-98140780D01*
X100221847Y-98140780D01*
X100317085Y-98093161D01*
X100364704Y-98045542D01*
X99459942Y-97140780D02*
X99126609Y-98140780D01*
X98793276Y-97140780D01*
X98555180Y-97140780D02*
X97936133Y-97140780D01*
X98269466Y-97521733D01*
X98126609Y-97521733D01*
X98031371Y-97569352D01*
X97983752Y-97616971D01*
X97936133Y-97712209D01*
X97936133Y-97950304D01*
X97983752Y-98045542D01*
X98031371Y-98093161D01*
X98126609Y-98140780D01*
X98412323Y-98140780D01*
X98507561Y-98093161D01*
X98555180Y-98045542D01*
X97317085Y-97140780D02*
X97126609Y-97140780D01*
X97031371Y-97188400D01*
X96936133Y-97283638D01*
X96888514Y-97474114D01*
X96888514Y-97807447D01*
X96936133Y-97997923D01*
X97031371Y-98093161D01*
X97126609Y-98140780D01*
X97317085Y-98140780D01*
X97412323Y-98093161D01*
X97507561Y-97997923D01*
X97555180Y-97807447D01*
X97555180Y-97474114D01*
X97507561Y-97283638D01*
X97412323Y-97188400D01*
X97317085Y-97140780D01*
X98450304Y-94575380D02*
X97878876Y-94575380D01*
X98164590Y-95575380D02*
X98164590Y-94575380D01*
X97640780Y-94575380D02*
X96974114Y-95575380D01*
X96974114Y-94575380D02*
X97640780Y-95575380D01*
X97969366Y-93073480D02*
X98302700Y-92597290D01*
X98540795Y-93073480D02*
X98540795Y-92073480D01*
X98159842Y-92073480D01*
X98064604Y-92121100D01*
X98016985Y-92168719D01*
X97969366Y-92263957D01*
X97969366Y-92406814D01*
X98016985Y-92502052D01*
X98064604Y-92549671D01*
X98159842Y-92597290D01*
X98540795Y-92597290D01*
X97636033Y-92073480D02*
X96969366Y-93073480D01*
X96969366Y-92073480D02*
X97636033Y-93073480D01*
X103350604Y-90498561D02*
X103207747Y-90546180D01*
X102969652Y-90546180D01*
X102874414Y-90498561D01*
X102826795Y-90450942D01*
X102779176Y-90355704D01*
X102779176Y-90260466D01*
X102826795Y-90165228D01*
X102874414Y-90117609D01*
X102969652Y-90069990D01*
X103160128Y-90022371D01*
X103255366Y-89974752D01*
X103302985Y-89927133D01*
X103350604Y-89831895D01*
X103350604Y-89736657D01*
X103302985Y-89641419D01*
X103255366Y-89593800D01*
X103160128Y-89546180D01*
X102922033Y-89546180D01*
X102779176Y-89593800D01*
X102350604Y-90546180D02*
X102350604Y-89546180D01*
X102112509Y-89546180D01*
X101969652Y-89593800D01*
X101874414Y-89689038D01*
X101826795Y-89784276D01*
X101779176Y-89974752D01*
X101779176Y-90117609D01*
X101826795Y-90308085D01*
X101874414Y-90403323D01*
X101969652Y-90498561D01*
X102112509Y-90546180D01*
X102350604Y-90546180D01*
X101350604Y-90546180D02*
X101350604Y-89546180D01*
X100160128Y-89498561D02*
X101017271Y-90784276D01*
X99826795Y-90546180D02*
X99826795Y-89546180D01*
X99160128Y-89546180D02*
X98969652Y-89546180D01*
X98874414Y-89593800D01*
X98779176Y-89689038D01*
X98731557Y-89879514D01*
X98731557Y-90212847D01*
X98779176Y-90403323D01*
X98874414Y-90498561D01*
X98969652Y-90546180D01*
X99160128Y-90546180D01*
X99255366Y-90498561D01*
X99350604Y-90403323D01*
X99398223Y-90212847D01*
X99398223Y-89879514D01*
X99350604Y-89689038D01*
X99255366Y-89593800D01*
X99160128Y-89546180D01*
X98398223Y-89546180D02*
X97779176Y-89546180D01*
X98112509Y-89927133D01*
X97969652Y-89927133D01*
X97874414Y-89974752D01*
X97826795Y-90022371D01*
X97779176Y-90117609D01*
X97779176Y-90355704D01*
X97826795Y-90450942D01*
X97874414Y-90498561D01*
X97969652Y-90546180D01*
X98255366Y-90546180D01*
X98350604Y-90498561D01*
X98398223Y-90450942D01*
X97445842Y-89546180D02*
X96779176Y-89546180D01*
X97207747Y-90546180D01*
X103890319Y-87907761D02*
X103747461Y-87955380D01*
X103509366Y-87955380D01*
X103414128Y-87907761D01*
X103366509Y-87860142D01*
X103318890Y-87764904D01*
X103318890Y-87669666D01*
X103366509Y-87574428D01*
X103414128Y-87526809D01*
X103509366Y-87479190D01*
X103699842Y-87431571D01*
X103795080Y-87383952D01*
X103842700Y-87336333D01*
X103890319Y-87241095D01*
X103890319Y-87145857D01*
X103842700Y-87050619D01*
X103795080Y-87003000D01*
X103699842Y-86955380D01*
X103461747Y-86955380D01*
X103318890Y-87003000D01*
X102890319Y-87955380D02*
X102890319Y-86955380D01*
X102652223Y-86955380D01*
X102509366Y-87003000D01*
X102414128Y-87098238D01*
X102366509Y-87193476D01*
X102318890Y-87383952D01*
X102318890Y-87526809D01*
X102366509Y-87717285D01*
X102414128Y-87812523D01*
X102509366Y-87907761D01*
X102652223Y-87955380D01*
X102890319Y-87955380D01*
X101699842Y-86955380D02*
X101509366Y-86955380D01*
X101414128Y-87003000D01*
X101318890Y-87098238D01*
X101271271Y-87288714D01*
X101271271Y-87622047D01*
X101318890Y-87812523D01*
X101414128Y-87907761D01*
X101509366Y-87955380D01*
X101699842Y-87955380D01*
X101795080Y-87907761D01*
X101890319Y-87812523D01*
X101937938Y-87622047D01*
X101937938Y-87288714D01*
X101890319Y-87098238D01*
X101795080Y-87003000D01*
X101699842Y-86955380D01*
X100128414Y-86907761D02*
X100985557Y-88193476D01*
X99795080Y-87955380D02*
X99795080Y-86955380D01*
X99128414Y-86955380D02*
X98937938Y-86955380D01*
X98842700Y-87003000D01*
X98747461Y-87098238D01*
X98699842Y-87288714D01*
X98699842Y-87622047D01*
X98747461Y-87812523D01*
X98842700Y-87907761D01*
X98937938Y-87955380D01*
X99128414Y-87955380D01*
X99223652Y-87907761D01*
X99318890Y-87812523D01*
X99366509Y-87622047D01*
X99366509Y-87288714D01*
X99318890Y-87098238D01*
X99223652Y-87003000D01*
X99128414Y-86955380D01*
X98366509Y-86955380D02*
X97747461Y-86955380D01*
X98080795Y-87336333D01*
X97937938Y-87336333D01*
X97842700Y-87383952D01*
X97795080Y-87431571D01*
X97747461Y-87526809D01*
X97747461Y-87764904D01*
X97795080Y-87860142D01*
X97842700Y-87907761D01*
X97937938Y-87955380D01*
X98223652Y-87955380D01*
X98318890Y-87907761D01*
X98366509Y-87860142D01*
X96842700Y-86955380D02*
X97318890Y-86955380D01*
X97366509Y-87431571D01*
X97318890Y-87383952D01*
X97223652Y-87336333D01*
X96985557Y-87336333D01*
X96890319Y-87383952D01*
X96842700Y-87431571D01*
X96795080Y-87526809D01*
X96795080Y-87764904D01*
X96842700Y-87860142D01*
X96890319Y-87907761D01*
X96985557Y-87955380D01*
X97223652Y-87955380D01*
X97318890Y-87907761D01*
X97366509Y-87860142D01*
X103841109Y-85418561D02*
X103698252Y-85466180D01*
X103460157Y-85466180D01*
X103364919Y-85418561D01*
X103317300Y-85370942D01*
X103269680Y-85275704D01*
X103269680Y-85180466D01*
X103317300Y-85085228D01*
X103364919Y-85037609D01*
X103460157Y-84989990D01*
X103650633Y-84942371D01*
X103745871Y-84894752D01*
X103793490Y-84847133D01*
X103841109Y-84751895D01*
X103841109Y-84656657D01*
X103793490Y-84561419D01*
X103745871Y-84513800D01*
X103650633Y-84466180D01*
X103412538Y-84466180D01*
X103269680Y-84513800D01*
X102269680Y-85370942D02*
X102317300Y-85418561D01*
X102460157Y-85466180D01*
X102555395Y-85466180D01*
X102698252Y-85418561D01*
X102793490Y-85323323D01*
X102841109Y-85228085D01*
X102888728Y-85037609D01*
X102888728Y-84894752D01*
X102841109Y-84704276D01*
X102793490Y-84609038D01*
X102698252Y-84513800D01*
X102555395Y-84466180D01*
X102460157Y-84466180D01*
X102317300Y-84513800D01*
X102269680Y-84561419D01*
X101841109Y-85466180D02*
X101841109Y-84466180D01*
X101269680Y-85466180D02*
X101698252Y-84894752D01*
X101269680Y-84466180D02*
X101841109Y-85037609D01*
X100126823Y-84418561D02*
X100983966Y-85704276D01*
X99793490Y-85466180D02*
X99793490Y-84466180D01*
X99126823Y-84466180D02*
X98936347Y-84466180D01*
X98841109Y-84513800D01*
X98745871Y-84609038D01*
X98698252Y-84799514D01*
X98698252Y-85132847D01*
X98745871Y-85323323D01*
X98841109Y-85418561D01*
X98936347Y-85466180D01*
X99126823Y-85466180D01*
X99222061Y-85418561D01*
X99317300Y-85323323D01*
X99364919Y-85132847D01*
X99364919Y-84799514D01*
X99317300Y-84609038D01*
X99222061Y-84513800D01*
X99126823Y-84466180D01*
X98364919Y-84466180D02*
X97745871Y-84466180D01*
X98079204Y-84847133D01*
X97936347Y-84847133D01*
X97841109Y-84894752D01*
X97793490Y-84942371D01*
X97745871Y-85037609D01*
X97745871Y-85275704D01*
X97793490Y-85370942D01*
X97841109Y-85418561D01*
X97936347Y-85466180D01*
X98222061Y-85466180D01*
X98317300Y-85418561D01*
X98364919Y-85370942D01*
X96888728Y-84466180D02*
X97079204Y-84466180D01*
X97174442Y-84513800D01*
X97222061Y-84561419D01*
X97317300Y-84704276D01*
X97364919Y-84894752D01*
X97364919Y-85275704D01*
X97317300Y-85370942D01*
X97269680Y-85418561D01*
X97174442Y-85466180D01*
X96983966Y-85466180D01*
X96888728Y-85418561D01*
X96841109Y-85370942D01*
X96793490Y-85275704D01*
X96793490Y-85037609D01*
X96841109Y-84942371D01*
X96888728Y-84894752D01*
X96983966Y-84847133D01*
X97174442Y-84847133D01*
X97269680Y-84894752D01*
X97317300Y-84942371D01*
X97364919Y-85037609D01*
X98942400Y-82837280D02*
X98942400Y-81837280D01*
X98275733Y-81837280D02*
X98085257Y-81837280D01*
X97990019Y-81884900D01*
X97894780Y-81980138D01*
X97847161Y-82170614D01*
X97847161Y-82503947D01*
X97894780Y-82694423D01*
X97990019Y-82789661D01*
X98085257Y-82837280D01*
X98275733Y-82837280D01*
X98370971Y-82789661D01*
X98466209Y-82694423D01*
X98513828Y-82503947D01*
X98513828Y-82170614D01*
X98466209Y-81980138D01*
X98370971Y-81884900D01*
X98275733Y-81837280D01*
X96942400Y-81837280D02*
X97418590Y-81837280D01*
X97466209Y-82313471D01*
X97418590Y-82265852D01*
X97323352Y-82218233D01*
X97085257Y-82218233D01*
X96990019Y-82265852D01*
X96942400Y-82313471D01*
X96894780Y-82408709D01*
X96894780Y-82646804D01*
X96942400Y-82742042D01*
X96990019Y-82789661D01*
X97085257Y-82837280D01*
X97323352Y-82837280D01*
X97418590Y-82789661D01*
X97466209Y-82742042D01*
X98993200Y-80233780D02*
X98993200Y-79233780D01*
X98326533Y-79233780D02*
X98136057Y-79233780D01*
X98040819Y-79281400D01*
X97945580Y-79376638D01*
X97897961Y-79567114D01*
X97897961Y-79900447D01*
X97945580Y-80090923D01*
X98040819Y-80186161D01*
X98136057Y-80233780D01*
X98326533Y-80233780D01*
X98421771Y-80186161D01*
X98517009Y-80090923D01*
X98564628Y-79900447D01*
X98564628Y-79567114D01*
X98517009Y-79376638D01*
X98421771Y-79281400D01*
X98326533Y-79233780D01*
X97040819Y-79233780D02*
X97231295Y-79233780D01*
X97326533Y-79281400D01*
X97374152Y-79329019D01*
X97469390Y-79471876D01*
X97517009Y-79662352D01*
X97517009Y-80043304D01*
X97469390Y-80138542D01*
X97421771Y-80186161D01*
X97326533Y-80233780D01*
X97136057Y-80233780D01*
X97040819Y-80186161D01*
X96993200Y-80138542D01*
X96945580Y-80043304D01*
X96945580Y-79805209D01*
X96993200Y-79709971D01*
X97040819Y-79662352D01*
X97136057Y-79614733D01*
X97326533Y-79614733D01*
X97421771Y-79662352D01*
X97469390Y-79709971D01*
X97517009Y-79805209D01*
X99875790Y-77757280D02*
X99875790Y-76757280D01*
X99209123Y-76757280D02*
X99018647Y-76757280D01*
X98923409Y-76804900D01*
X98828171Y-76900138D01*
X98780552Y-77090614D01*
X98780552Y-77423947D01*
X98828171Y-77614423D01*
X98923409Y-77709661D01*
X99018647Y-77757280D01*
X99209123Y-77757280D01*
X99304361Y-77709661D01*
X99399600Y-77614423D01*
X99447219Y-77423947D01*
X99447219Y-77090614D01*
X99399600Y-76900138D01*
X99304361Y-76804900D01*
X99209123Y-76757280D01*
X97828171Y-77757280D02*
X98399600Y-77757280D01*
X98113885Y-77757280D02*
X98113885Y-76757280D01*
X98209123Y-76900138D01*
X98304361Y-76995376D01*
X98399600Y-77042995D01*
X97447219Y-76852519D02*
X97399600Y-76804900D01*
X97304361Y-76757280D01*
X97066266Y-76757280D01*
X96971028Y-76804900D01*
X96923409Y-76852519D01*
X96875790Y-76947757D01*
X96875790Y-77042995D01*
X96923409Y-77185852D01*
X97494838Y-77757280D01*
X96875790Y-77757280D01*
X99837690Y-75268080D02*
X99837690Y-74268080D01*
X99171023Y-74268080D02*
X98980547Y-74268080D01*
X98885309Y-74315700D01*
X98790071Y-74410938D01*
X98742452Y-74601414D01*
X98742452Y-74934747D01*
X98790071Y-75125223D01*
X98885309Y-75220461D01*
X98980547Y-75268080D01*
X99171023Y-75268080D01*
X99266261Y-75220461D01*
X99361500Y-75125223D01*
X99409119Y-74934747D01*
X99409119Y-74601414D01*
X99361500Y-74410938D01*
X99266261Y-74315700D01*
X99171023Y-74268080D01*
X97790071Y-75268080D02*
X98361500Y-75268080D01*
X98075785Y-75268080D02*
X98075785Y-74268080D01*
X98171023Y-74410938D01*
X98266261Y-74506176D01*
X98361500Y-74553795D01*
X97456738Y-74268080D02*
X96837690Y-74268080D01*
X97171023Y-74649033D01*
X97028166Y-74649033D01*
X96932928Y-74696652D01*
X96885309Y-74744271D01*
X96837690Y-74839509D01*
X96837690Y-75077604D01*
X96885309Y-75172842D01*
X96932928Y-75220461D01*
X97028166Y-75268080D01*
X97313880Y-75268080D01*
X97409119Y-75220461D01*
X97456738Y-75172842D01*
X99926590Y-72702680D02*
X99926590Y-71702680D01*
X99259923Y-71702680D02*
X99069447Y-71702680D01*
X98974209Y-71750300D01*
X98878971Y-71845538D01*
X98831352Y-72036014D01*
X98831352Y-72369347D01*
X98878971Y-72559823D01*
X98974209Y-72655061D01*
X99069447Y-72702680D01*
X99259923Y-72702680D01*
X99355161Y-72655061D01*
X99450400Y-72559823D01*
X99498019Y-72369347D01*
X99498019Y-72036014D01*
X99450400Y-71845538D01*
X99355161Y-71750300D01*
X99259923Y-71702680D01*
X97878971Y-72702680D02*
X98450400Y-72702680D01*
X98164685Y-72702680D02*
X98164685Y-71702680D01*
X98259923Y-71845538D01*
X98355161Y-71940776D01*
X98450400Y-71988395D01*
X97307542Y-72131252D02*
X97402780Y-72083633D01*
X97450400Y-72036014D01*
X97498019Y-71940776D01*
X97498019Y-71893157D01*
X97450400Y-71797919D01*
X97402780Y-71750300D01*
X97307542Y-71702680D01*
X97117066Y-71702680D01*
X97021828Y-71750300D01*
X96974209Y-71797919D01*
X96926590Y-71893157D01*
X96926590Y-71940776D01*
X96974209Y-72036014D01*
X97021828Y-72083633D01*
X97117066Y-72131252D01*
X97307542Y-72131252D01*
X97402780Y-72178871D01*
X97450400Y-72226490D01*
X97498019Y-72321728D01*
X97498019Y-72512204D01*
X97450400Y-72607442D01*
X97402780Y-72655061D01*
X97307542Y-72702680D01*
X97117066Y-72702680D01*
X97021828Y-72655061D01*
X96974209Y-72607442D01*
X96926590Y-72512204D01*
X96926590Y-72321728D01*
X96974209Y-72226490D01*
X97021828Y-72178871D01*
X97117066Y-72131252D01*
X99926590Y-70175380D02*
X99926590Y-69175380D01*
X99259923Y-69175380D02*
X99069447Y-69175380D01*
X98974209Y-69223000D01*
X98878971Y-69318238D01*
X98831352Y-69508714D01*
X98831352Y-69842047D01*
X98878971Y-70032523D01*
X98974209Y-70127761D01*
X99069447Y-70175380D01*
X99259923Y-70175380D01*
X99355161Y-70127761D01*
X99450400Y-70032523D01*
X99498019Y-69842047D01*
X99498019Y-69508714D01*
X99450400Y-69318238D01*
X99355161Y-69223000D01*
X99259923Y-69175380D01*
X97878971Y-70175380D02*
X98450400Y-70175380D01*
X98164685Y-70175380D02*
X98164685Y-69175380D01*
X98259923Y-69318238D01*
X98355161Y-69413476D01*
X98450400Y-69461095D01*
X97545638Y-69175380D02*
X96878971Y-69175380D01*
X97307542Y-70175380D01*
X98945604Y-66505200D02*
X99040842Y-66457580D01*
X99183700Y-66457580D01*
X99326557Y-66505200D01*
X99421795Y-66600438D01*
X99469414Y-66695676D01*
X99517033Y-66886152D01*
X99517033Y-67029009D01*
X99469414Y-67219485D01*
X99421795Y-67314723D01*
X99326557Y-67409961D01*
X99183700Y-67457580D01*
X99088461Y-67457580D01*
X98945604Y-67409961D01*
X98897985Y-67362342D01*
X98897985Y-67029009D01*
X99088461Y-67029009D01*
X98469414Y-67457580D02*
X98469414Y-66457580D01*
X97897985Y-67457580D01*
X97897985Y-66457580D01*
X97421795Y-67457580D02*
X97421795Y-66457580D01*
X97183700Y-66457580D01*
X97040842Y-66505200D01*
X96945604Y-66600438D01*
X96897985Y-66695676D01*
X96850366Y-66886152D01*
X96850366Y-67029009D01*
X96897985Y-67219485D01*
X96945604Y-67314723D01*
X97040842Y-67409961D01*
X97183700Y-67457580D01*
X97421795Y-67457580D01*
X98993200Y-65108080D02*
X98993200Y-64108080D01*
X98326533Y-64108080D02*
X98136057Y-64108080D01*
X98040819Y-64155700D01*
X97945580Y-64250938D01*
X97897961Y-64441414D01*
X97897961Y-64774747D01*
X97945580Y-64965223D01*
X98040819Y-65060461D01*
X98136057Y-65108080D01*
X98326533Y-65108080D01*
X98421771Y-65060461D01*
X98517009Y-64965223D01*
X98564628Y-64774747D01*
X98564628Y-64441414D01*
X98517009Y-64250938D01*
X98421771Y-64155700D01*
X98326533Y-64108080D01*
X97278914Y-64108080D02*
X97183676Y-64108080D01*
X97088438Y-64155700D01*
X97040819Y-64203319D01*
X96993200Y-64298557D01*
X96945580Y-64489033D01*
X96945580Y-64727128D01*
X96993200Y-64917604D01*
X97040819Y-65012842D01*
X97088438Y-65060461D01*
X97183676Y-65108080D01*
X97278914Y-65108080D01*
X97374152Y-65060461D01*
X97421771Y-65012842D01*
X97469390Y-64917604D01*
X97517009Y-64727128D01*
X97517009Y-64489033D01*
X97469390Y-64298557D01*
X97421771Y-64203319D01*
X97374152Y-64155700D01*
X97278914Y-64108080D01*
X99370995Y-61529980D02*
X98751947Y-61529980D01*
X99085280Y-61910933D01*
X98942423Y-61910933D01*
X98847185Y-61958552D01*
X98799566Y-62006171D01*
X98751947Y-62101409D01*
X98751947Y-62339504D01*
X98799566Y-62434742D01*
X98847185Y-62482361D01*
X98942423Y-62529980D01*
X99228138Y-62529980D01*
X99323376Y-62482361D01*
X99370995Y-62434742D01*
X98466233Y-61529980D02*
X98132900Y-62529980D01*
X97799566Y-61529980D01*
X97561471Y-61529980D02*
X96942423Y-61529980D01*
X97275757Y-61910933D01*
X97132900Y-61910933D01*
X97037661Y-61958552D01*
X96990042Y-62006171D01*
X96942423Y-62101409D01*
X96942423Y-62339504D01*
X96990042Y-62434742D01*
X97037661Y-62482361D01*
X97132900Y-62529980D01*
X97418614Y-62529980D01*
X97513852Y-62482361D01*
X97561471Y-62434742D01*
X98782119Y-60053480D02*
X99115452Y-59577290D01*
X99353547Y-60053480D02*
X99353547Y-59053480D01*
X98972595Y-59053480D01*
X98877357Y-59101100D01*
X98829738Y-59148719D01*
X98782119Y-59243957D01*
X98782119Y-59386814D01*
X98829738Y-59482052D01*
X98877357Y-59529671D01*
X98972595Y-59577290D01*
X99353547Y-59577290D01*
X98401166Y-60005861D02*
X98258309Y-60053480D01*
X98020214Y-60053480D01*
X97924976Y-60005861D01*
X97877357Y-59958242D01*
X97829738Y-59863004D01*
X97829738Y-59767766D01*
X97877357Y-59672528D01*
X97924976Y-59624909D01*
X98020214Y-59577290D01*
X98210690Y-59529671D01*
X98305928Y-59482052D01*
X98353547Y-59434433D01*
X98401166Y-59339195D01*
X98401166Y-59243957D01*
X98353547Y-59148719D01*
X98305928Y-59101100D01*
X98210690Y-59053480D01*
X97972595Y-59053480D01*
X97829738Y-59101100D01*
X97544023Y-59053480D02*
X96972595Y-59053480D01*
X97258309Y-60053480D02*
X97258309Y-59053480D01*
M02*
