M48
; DRILL file {KiCad (5.1.9)-1} date 04/10/21 21:56:13
; FORMAT={-:-/ absolute / inch / decimal}
; #@! TF.CreationDate,2021-04-10T21:56:13-07:00
; #@! TF.GenerationSoftware,Kicad,Pcbnew,(5.1.9)-1
; #@! TF.FileFunction,Plated,1,2,PTH
FMAT,2
INCH
T1C0.0157
T2C0.0300
T3C0.0394
T4C0.0591
%
G90
G05
T1
X4.0175Y-4.395
X4.235Y-4.75
X4.4225Y-4.0575
X4.47Y-4.955
X4.485Y-4.885
X4.505Y-4.73
X4.5425Y-4.7625
X4.6025Y-4.6275
X5.64Y-2.815
X5.805Y-2.98
T2
X4.775Y-3.71
X4.875Y-3.71
X4.975Y-3.71
X5.075Y-3.71
T3
X3.775Y-2.34
X3.775Y-2.44
X3.775Y-2.54
X3.775Y-2.64
X3.775Y-2.74
X3.775Y-2.84
X3.775Y-2.94
X3.775Y-3.04
X3.775Y-3.14
X3.775Y-3.24
X3.775Y-3.34
X3.775Y-3.44
X3.775Y-3.54
X3.775Y-3.64
X3.775Y-3.74
X3.775Y-3.84
X3.788Y-4.1635
X3.788Y-4.2635
X3.823Y-4.588
X3.823Y-4.688
X3.823Y-4.788
X3.823Y-4.888
X3.823Y-4.988
X4.575Y-2.74
X4.575Y-2.84
X4.575Y-2.94
X4.575Y-3.04
X4.575Y-3.14
X4.575Y-3.24
X4.575Y-3.34
X4.575Y-3.44
X4.575Y-3.54
X4.575Y-3.64
X4.575Y-3.74
X4.575Y-3.84
X5.462Y-2.334
X5.462Y-2.434
X5.462Y-2.534
X5.462Y-2.634
X5.462Y-2.734
X5.462Y-2.834
X5.462Y-2.934
X5.462Y-3.034
X5.462Y-3.134
X5.462Y-3.234
X5.462Y-3.334
X5.462Y-3.434
X5.462Y-3.534
X5.462Y-3.634
T4
X5.443Y-4.253
X5.443Y-5.069
X5.693Y-4.153
X5.693Y-4.969
X6.27Y-4.253
X6.27Y-5.069
X6.52Y-4.153
X6.52Y-4.969
X7.097Y-4.253
X7.097Y-5.069
X7.347Y-4.153
X7.347Y-4.969
X7.924Y-4.253
X7.924Y-5.069
X8.174Y-4.153
X8.174Y-4.969
T0
M30
