%TF.GenerationSoftware,KiCad,Pcbnew,(5.1.9)-1*%
%TF.CreationDate,2021-03-23T20:34:14-07:00*%
%TF.ProjectId,Keyboard Proto,4b657962-6f61-4726-9420-50726f746f2e,rev?*%
%TF.SameCoordinates,Original*%
%TF.FileFunction,Copper,L2,Bot*%
%TF.FilePolarity,Positive*%
%FSLAX46Y46*%
G04 Gerber Fmt 4.6, Leading zero omitted, Abs format (unit mm)*
G04 Created by KiCad (PCBNEW (5.1.9)-1) date 2021-03-23 20:34:14*
%MOMM*%
%LPD*%
G01*
G04 APERTURE LIST*
%TA.AperFunction,ComponentPad*%
%ADD10C,1.900000*%
%TD*%
%TA.AperFunction,ComponentPad*%
%ADD11C,2.200000*%
%TD*%
%TA.AperFunction,ComponentPad*%
%ADD12R,1.700000X1.700000*%
%TD*%
%TA.AperFunction,ComponentPad*%
%ADD13O,1.700000X1.700000*%
%TD*%
%TA.AperFunction,ComponentPad*%
%ADD14C,1.778000*%
%TD*%
%TA.AperFunction,ViaPad*%
%ADD15C,0.800000*%
%TD*%
%TA.AperFunction,Conductor*%
%ADD16C,0.250000*%
%TD*%
%TA.AperFunction,Conductor*%
%ADD17C,0.600000*%
%TD*%
%TA.AperFunction,Conductor*%
%ADD18C,0.400000*%
%TD*%
G04 APERTURE END LIST*
D10*
%TO.P,U4,A1*%
%TO.N,Net-(U4-PadA1)*%
X127190500Y-136144000D03*
%TO.P,U4,A2*%
%TO.N,Net-(U4-PadA2)*%
X127190500Y-133604000D03*
%TO.P,U4,A3*%
%TO.N,1V8_RST*%
X127190500Y-131064000D03*
%TO.P,U4,B1*%
%TO.N,Net-(U4-PadB1)*%
X127190500Y-128524000D03*
%TO.P,U4,B2*%
%TO.N,Net-(U4-PadB2)*%
X127190500Y-125984000D03*
%TO.P,U4,C1*%
%TO.N,Net-(U4-PadC1)*%
X127190500Y-123444000D03*
%TO.P,U4,C2*%
%TO.N,Net-(U4-PadC2)*%
X127190500Y-120904000D03*
%TO.P,U4,C3*%
%TO.N,GND*%
X127190500Y-118364000D03*
%TO.P,U4,D1*%
%TO.N,Net-(U4-PadD1)*%
X127190500Y-115824000D03*
%TO.P,U4,D2*%
%TO.N,COL0*%
X127190500Y-113284000D03*
%TO.P,U4,E1*%
%TO.N,COL1*%
X127190500Y-110744000D03*
%TO.P,U4,E2*%
%TO.N,Net-(U4-PadE2)*%
X127190500Y-108204000D03*
%TO.P,U4,E3*%
%TO.N,ROW1*%
X127190500Y-105664000D03*
%TO.P,U4,A4*%
%TO.N,1V8_SCL*%
X119570500Y-136144000D03*
%TO.P,U4,A5*%
%TO.N,1V8_SDA*%
X119570500Y-133604000D03*
%TO.P,U4,B3*%
%TO.N,Net-(U4-PadB3)*%
X119570500Y-131064000D03*
%TO.P,U4,B4*%
%TO.N,COL2*%
X119570500Y-128524000D03*
%TO.P,U4,B5*%
%TO.N,COL3*%
X119570500Y-125984000D03*
%TO.P,U4,C4*%
%TO.N,Net-(U4-PadC4)*%
X119570500Y-123444000D03*
%TO.P,U4,C5*%
%TO.N,1V8_KBDINT*%
X119570500Y-120904000D03*
%TO.P,U4,D3*%
%TO.N,1V8*%
X119570500Y-118364000D03*
%TO.P,U4,D4*%
%TO.N,Net-(U4-PadD4)*%
X119570500Y-115824000D03*
%TO.P,U4,D5*%
%TO.N,Net-(U4-PadD5)*%
X119570500Y-113284000D03*
%TO.P,U4,E4*%
%TO.N,ROW0*%
X119570500Y-110744000D03*
%TO.P,U4,E5*%
%TO.N,Net-(U4-PadE5)*%
X119570500Y-108204000D03*
%TD*%
D11*
%TO.P,Q1,1*%
%TO.N,ROW0*%
X165608000Y-105486200D03*
%TO.P,Q1,2*%
%TO.N,COL2*%
X159258000Y-108026200D03*
%TD*%
%TO.P,A1,2*%
%TO.N,COL2*%
X159258000Y-128752600D03*
%TO.P,A1,1*%
%TO.N,ROW1*%
X165608000Y-126212600D03*
%TD*%
%TO.P,D1,2*%
%TO.N,COL0*%
X201269600Y-128752600D03*
%TO.P,D1,1*%
%TO.N,ROW1*%
X207619600Y-126212600D03*
%TD*%
%TO.P,Shift1,1*%
%TO.N,ROW0*%
X144602200Y-105486200D03*
%TO.P,Shift1,2*%
%TO.N,COL3*%
X138252200Y-108026200D03*
%TD*%
%TO.P,Ctrl1,2*%
%TO.N,COL3*%
X138252200Y-128752600D03*
%TO.P,Ctrl1,1*%
%TO.N,ROW1*%
X144602200Y-126212600D03*
%TD*%
%TO.P,S1,1*%
%TO.N,ROW1*%
X186613800Y-126212600D03*
%TO.P,S1,2*%
%TO.N,COL1*%
X180263800Y-128752600D03*
%TD*%
%TO.P,E1,1*%
%TO.N,ROW0*%
X207619600Y-105486200D03*
%TO.P,E1,2*%
%TO.N,COL0*%
X201269600Y-108026200D03*
%TD*%
%TO.P,W1,2*%
%TO.N,COL1*%
X180263800Y-108026200D03*
%TO.P,W1,1*%
%TO.N,ROW0*%
X186613800Y-105486200D03*
%TD*%
D12*
%TO.P,J1,1*%
%TO.N,3V3*%
X138734800Y-59283600D03*
D13*
%TO.P,J1,2*%
%TO.N,GND*%
X138734800Y-61823600D03*
%TO.P,J1,3*%
%TO.N,D_CS*%
X138734800Y-64363600D03*
%TO.P,J1,4*%
%TO.N,RST*%
X138734800Y-66903600D03*
%TO.P,J1,5*%
%TO.N,D_DC*%
X138734800Y-69443600D03*
%TO.P,J1,6*%
%TO.N,MOSI*%
X138734800Y-71983600D03*
%TO.P,J1,7*%
%TO.N,SCK*%
X138734800Y-74523600D03*
%TO.P,J1,8*%
%TO.N,3V3*%
X138734800Y-77063600D03*
%TO.P,J1,9*%
%TO.N,MISO*%
X138734800Y-79603600D03*
%TO.P,J1,10*%
%TO.N,SCK*%
X138734800Y-82143600D03*
%TO.P,J1,11*%
%TO.N,T_CS*%
X138734800Y-84683600D03*
%TO.P,J1,12*%
%TO.N,MOSI*%
X138734800Y-87223600D03*
%TO.P,J1,13*%
%TO.N,MISO*%
X138734800Y-89763600D03*
%TO.P,J1,14*%
%TO.N,T_IRQ*%
X138734800Y-92303600D03*
%TD*%
D12*
%TO.P,J2,1*%
%TO.N,Net-(J2-Pad1)*%
X96215200Y-105752900D03*
D13*
%TO.P,J2,2*%
%TO.N,Net-(J2-Pad2)*%
X96215200Y-108292900D03*
%TD*%
D12*
%TO.P,J3,1*%
%TO.N,Enc_CLK*%
X97104200Y-116535200D03*
D13*
%TO.P,J3,2*%
%TO.N,Enc_DT*%
X97104200Y-119075200D03*
%TO.P,J3,3*%
%TO.N,Enc_SW*%
X97104200Y-121615200D03*
%TO.P,J3,4*%
%TO.N,3V3*%
X97104200Y-124155200D03*
%TO.P,J3,5*%
%TO.N,GND*%
X97104200Y-126695200D03*
%TD*%
D14*
%TO.P,U1,1*%
%TO.N,SDA*%
X121285000Y-94234000D03*
%TO.P,U1,2*%
%TO.N,SCL*%
X123825000Y-94234000D03*
%TO.P,U1,3*%
%TO.N,3V3*%
X126365000Y-94234000D03*
%TO.P,U1,4*%
%TO.N,GND*%
X128905000Y-94234000D03*
%TD*%
%TO.P,U5,17*%
%TO.N,3V3_SDA*%
X116205000Y-97536000D03*
%TO.P,U5,18*%
%TO.N,3V3_SCL*%
X116205000Y-94996000D03*
%TO.P,U5,19*%
%TO.N,3V3_RST*%
X116205000Y-92456000D03*
%TO.P,U5,20*%
%TO.N,3V3_KBDINT*%
X116205000Y-89916000D03*
%TO.P,U5,21*%
%TO.N,SDA*%
X116205000Y-87376000D03*
%TO.P,U5,22*%
%TO.N,SCL*%
X116205000Y-84836000D03*
%TO.P,U5,23*%
%TO.N,D_CS*%
X116205000Y-82296000D03*
%TO.P,U5,24*%
%TO.N,T_CS*%
X116205000Y-79756000D03*
%TO.P,U5,25*%
%TO.N,T_IRQ*%
X116205000Y-77216000D03*
%TO.P,U5,26*%
%TO.N,Net-(U5-Pad26)*%
X116205000Y-74676000D03*
%TO.P,U5,27*%
%TO.N,EN*%
X116205000Y-72136000D03*
%TO.P,U5,28*%
%TO.N,Net-(U5-Pad28)*%
X116205000Y-69596000D03*
%TO.P,U5,16*%
%TO.N,Net-(U5-Pad16)*%
X95885000Y-97536000D03*
%TO.P,U5,15*%
%TO.N,Net-(J2-Pad1)*%
X95885000Y-94996000D03*
%TO.P,U5,14*%
%TO.N,Net-(J2-Pad2)*%
X95885000Y-92456000D03*
%TO.P,U5,13*%
%TO.N,MISO*%
X95885000Y-89916000D03*
%TO.P,U5,12*%
%TO.N,MOSI*%
X95885000Y-87376000D03*
%TO.P,U5,11*%
%TO.N,SCK*%
X95885000Y-84836000D03*
%TO.P,U5,10*%
%TO.N,D_DC*%
X95885000Y-82296000D03*
%TO.P,U5,9*%
%TO.N,Enc_CLK*%
X95885000Y-79756000D03*
%TO.P,U5,8*%
%TO.N,Enc_DT*%
X95885000Y-77216000D03*
%TO.P,U5,7*%
%TO.N,Enc_SW*%
X95885000Y-74676000D03*
%TO.P,U5,6*%
%TO.N,Net-(U5-Pad6)*%
X95885000Y-72136000D03*
%TO.P,U5,5*%
%TO.N,Net-(U5-Pad5)*%
X95885000Y-69596000D03*
%TO.P,U5,4*%
%TO.N,GND*%
X95885000Y-67056000D03*
%TO.P,U5,3*%
%TO.N,Net-(U5-Pad3)*%
X95885000Y-64516000D03*
%TO.P,U5,2*%
%TO.N,3V3*%
X95885000Y-61976000D03*
%TO.P,U5,1*%
%TO.N,RST*%
X95885000Y-59436000D03*
%TD*%
D15*
%TO.N,T_IRQ*%
X125399800Y-83007200D03*
%TO.N,MISO*%
X107061000Y-89662000D03*
%TO.N,MOSI*%
X108077000Y-87376000D03*
%TO.N,3V3*%
X103695500Y-112966500D03*
X112331500Y-103060500D03*
%TO.N,1V8*%
X107950000Y-117411500D03*
X117056500Y-116993000D03*
%TO.N,1V8_RST*%
X109156500Y-125666500D03*
X114935000Y-125666500D03*
%TO.N,1V8_SDA*%
X107950000Y-123698000D03*
X111696500Y-123698000D03*
%TO.N,EN*%
X105613200Y-91363800D03*
%TD*%
D16*
%TO.N,COL3*%
X138252200Y-108026200D02*
X138252200Y-128752600D01*
X134213600Y-124714000D02*
X138252200Y-128752600D01*
X124269500Y-124714000D02*
X123253500Y-124714000D01*
X124269500Y-124714000D02*
X134213600Y-124714000D01*
X121983500Y-125984000D02*
X119570500Y-125984000D01*
X123253500Y-124714000D02*
X121983500Y-125984000D01*
%TO.N,COL2*%
X159258000Y-108026200D02*
X159258000Y-128752600D01*
X157251400Y-128752600D02*
X159258000Y-128752600D01*
X147828000Y-138176000D02*
X157251400Y-128752600D01*
X130302000Y-138176000D02*
X126301500Y-138176000D01*
X130302000Y-138176000D02*
X147828000Y-138176000D01*
X127317500Y-138176000D02*
X126301500Y-138176000D01*
X127317500Y-138176000D02*
X130302000Y-138176000D01*
X123190000Y-135064500D02*
X125444250Y-137318750D01*
X123190000Y-132143500D02*
X123190000Y-135064500D01*
X126301500Y-138176000D02*
X125444250Y-137318750D01*
X123190000Y-132143500D02*
X119570500Y-128524000D01*
%TO.N,COL1*%
X180263800Y-108026200D02*
X180263800Y-128752600D01*
%TO.N,COL0*%
X201269600Y-108026200D02*
X201269600Y-128752600D01*
%TO.N,T_IRQ*%
X119608600Y-77216000D02*
X120573800Y-78181200D01*
X116205000Y-77216000D02*
X119608600Y-77216000D01*
X125399800Y-83007200D02*
X120573800Y-78181200D01*
%TO.N,MISO*%
X141770100Y-88595200D02*
X141770100Y-80886300D01*
X140601700Y-89763600D02*
X141770100Y-88595200D01*
X140487400Y-79603600D02*
X138734800Y-79603600D01*
X141770100Y-80886300D02*
X140487400Y-79603600D01*
X138734800Y-89763600D02*
X140601700Y-89763600D01*
X133858000Y-88646000D02*
X134975600Y-89763600D01*
X134975600Y-89763600D02*
X138734800Y-89763600D01*
X113220500Y-88646000D02*
X133858000Y-88646000D01*
X112204500Y-89662000D02*
X113220500Y-88646000D01*
X107061000Y-89662000D02*
X112204500Y-89662000D01*
%TO.N,MOSI*%
X138734800Y-87223600D02*
X136880600Y-87223600D01*
X136880600Y-87223600D02*
X135763000Y-86106000D01*
X109347000Y-86106000D02*
X108077000Y-87376000D01*
X135763000Y-86106000D02*
X109347000Y-86106000D01*
%TO.N,D_CS*%
X116205000Y-82296000D02*
X114173000Y-80264000D01*
X114173000Y-80264000D02*
X114173000Y-77216000D01*
X114173000Y-77216000D02*
X115443000Y-75946000D01*
X130073400Y-64363600D02*
X118491000Y-75946000D01*
X138734800Y-64363600D02*
X130073400Y-64363600D01*
X115443000Y-75946000D02*
X118491000Y-75946000D01*
%TO.N,T_CS*%
X131546600Y-84683600D02*
X138734800Y-84683600D01*
X130390900Y-84683600D02*
X131546600Y-84683600D01*
X116205000Y-79756000D02*
X119253000Y-79756000D01*
X119253000Y-79756000D02*
X124180600Y-84683600D01*
X131546600Y-84683600D02*
X124180600Y-84683600D01*
D17*
%TO.N,3V3*%
X138734800Y-59283600D02*
X139039600Y-59283600D01*
X139039600Y-59283600D02*
X141160500Y-61404500D01*
X141160500Y-74637900D02*
X138734800Y-77063600D01*
X141160500Y-61404500D02*
X141160500Y-74637900D01*
D18*
X97104200Y-124155200D02*
X100330000Y-120929400D01*
X100330000Y-66421000D02*
X95885000Y-61976000D01*
X103695500Y-112966500D02*
X102489000Y-111760000D01*
X100330000Y-120929400D02*
X100330000Y-111760000D01*
X112331500Y-103060500D02*
X100330000Y-103060500D01*
X100330000Y-103060500D02*
X100330000Y-66421000D01*
X100330000Y-111760000D02*
X100330000Y-103060500D01*
X102489000Y-111760000D02*
X100330000Y-111760000D01*
X140055600Y-77063600D02*
X138734800Y-77063600D01*
X142875000Y-91313000D02*
X142875000Y-79883000D01*
X132461000Y-94361000D02*
X139827000Y-94361000D01*
X130492500Y-92392500D02*
X132461000Y-94361000D01*
X127190500Y-92392500D02*
X130492500Y-92392500D01*
X126365000Y-93218000D02*
X127190500Y-92392500D01*
X142875000Y-79883000D02*
X140055600Y-77063600D01*
X139827000Y-94361000D02*
X142875000Y-91313000D01*
X126365000Y-94234000D02*
X126365000Y-93218000D01*
%TO.N,1V8*%
X108368500Y-116993000D02*
X107950000Y-117411500D01*
X117056500Y-116993000D02*
X108368500Y-116993000D01*
D16*
%TO.N,1V8_RST*%
X109156500Y-125666500D02*
X114935000Y-125666500D01*
%TO.N,1V8_SDA*%
X107950000Y-123698000D02*
X111696500Y-123698000D01*
%TO.N,EN*%
X105613200Y-82727800D02*
X105613200Y-83997800D01*
X105613200Y-83997800D02*
X105613200Y-91363800D01*
X116205000Y-72136000D02*
X105613200Y-82727800D01*
%TD*%
M02*
