%TF.GenerationSoftware,KiCad,Pcbnew,(5.1.9)-1*%
%TF.CreationDate,2021-04-10T21:56:04-07:00*%
%TF.ProjectId,Keyboard Proto,4b657962-6f61-4726-9420-50726f746f2e,rev?*%
%TF.SameCoordinates,Original*%
%TF.FileFunction,Copper,L1,Top*%
%TF.FilePolarity,Positive*%
%FSLAX46Y46*%
G04 Gerber Fmt 4.6, Leading zero omitted, Abs format (unit mm)*
G04 Created by KiCad (PCBNEW (5.1.9)-1) date 2021-04-10 21:56:04*
%MOMM*%
%LPD*%
G01*
G04 APERTURE LIST*
%TA.AperFunction,SMDPad,CuDef*%
%ADD10R,2.000000X2.000000*%
%TD*%
%TA.AperFunction,ComponentPad*%
%ADD11C,1.778000*%
%TD*%
%TA.AperFunction,ComponentPad*%
%ADD12C,2.200000*%
%TD*%
%TA.AperFunction,ComponentPad*%
%ADD13O,1.700000X1.700000*%
%TD*%
%TA.AperFunction,ComponentPad*%
%ADD14R,1.700000X1.700000*%
%TD*%
%TA.AperFunction,SMDPad,CuDef*%
%ADD15R,2.200000X2.200000*%
%TD*%
%TA.AperFunction,SMDPad,CuDef*%
%ADD16R,0.400000X0.200000*%
%TD*%
%TA.AperFunction,SMDPad,CuDef*%
%ADD17R,0.200000X0.400000*%
%TD*%
%TA.AperFunction,ViaPad*%
%ADD18C,0.800000*%
%TD*%
%TA.AperFunction,Conductor*%
%ADD19C,0.250000*%
%TD*%
%TA.AperFunction,Conductor*%
%ADD20C,0.200000*%
%TD*%
%TA.AperFunction,Conductor*%
%ADD21C,0.400000*%
%TD*%
%TA.AperFunction,Conductor*%
%ADD22C,0.600000*%
%TD*%
G04 APERTURE END LIST*
%TO.P,R5,2*%
%TO.N,3V3*%
%TA.AperFunction,SMDPad,CuDef*%
G36*
G01*
X105683500Y-111358000D02*
X105683500Y-111908000D01*
G75*
G02*
X105483500Y-112108000I-200000J0D01*
G01*
X105083500Y-112108000D01*
G75*
G02*
X104883500Y-111908000I0J200000D01*
G01*
X104883500Y-111358000D01*
G75*
G02*
X105083500Y-111158000I200000J0D01*
G01*
X105483500Y-111158000D01*
G75*
G02*
X105683500Y-111358000I0J-200000D01*
G01*
G37*
%TD.AperFunction*%
%TO.P,R5,1*%
%TO.N,KBDINT*%
%TA.AperFunction,SMDPad,CuDef*%
G36*
G01*
X107333500Y-111358000D02*
X107333500Y-111908000D01*
G75*
G02*
X107133500Y-112108000I-200000J0D01*
G01*
X106733500Y-112108000D01*
G75*
G02*
X106533500Y-111908000I0J200000D01*
G01*
X106533500Y-111358000D01*
G75*
G02*
X106733500Y-111158000I200000J0D01*
G01*
X107133500Y-111158000D01*
G75*
G02*
X107333500Y-111358000I0J-200000D01*
G01*
G37*
%TD.AperFunction*%
%TD*%
D10*
%TO.P,TP2,1*%
%TO.N,I2C0_SCL*%
X111760000Y-108077000D03*
%TD*%
%TO.P,TP1,1*%
%TO.N,I2C0_SDA*%
X118427500Y-108077000D03*
%TD*%
D11*
%TO.P,U1,4*%
%TO.N,GND*%
X128905000Y-94234000D03*
%TO.P,U1,3*%
%TO.N,3V3*%
X126365000Y-94234000D03*
%TO.P,U1,2*%
%TO.N,I2C1_SCL*%
X123825000Y-94234000D03*
%TO.P,U1,1*%
%TO.N,I2C1_SDA*%
X121285000Y-94234000D03*
%TD*%
D12*
%TO.P,S1,2*%
%TO.N,COL1*%
X180263800Y-128752600D03*
%TO.P,S1,1*%
%TO.N,ROW1*%
X186613800Y-126212600D03*
%TD*%
D11*
%TO.P,U5,1*%
%TO.N,RST*%
X95885000Y-59436000D03*
%TO.P,U5,2*%
%TO.N,3V3*%
X95885000Y-61976000D03*
%TO.P,U5,3*%
%TO.N,Net-(U5-Pad3)*%
X95885000Y-64516000D03*
%TO.P,U5,4*%
%TO.N,GND*%
X95885000Y-67056000D03*
%TO.P,U5,5*%
%TO.N,Net-(U5-Pad5)*%
X95885000Y-69596000D03*
%TO.P,U5,6*%
%TO.N,Net-(U5-Pad6)*%
X95885000Y-72136000D03*
%TO.P,U5,7*%
%TO.N,Enc_SW*%
X95885000Y-74676000D03*
%TO.P,U5,8*%
%TO.N,Enc_DT*%
X95885000Y-77216000D03*
%TO.P,U5,9*%
%TO.N,Enc_CLK*%
X95885000Y-79756000D03*
%TO.P,U5,10*%
%TO.N,D_DC*%
X95885000Y-82296000D03*
%TO.P,U5,11*%
%TO.N,SCK*%
X95885000Y-84836000D03*
%TO.P,U5,12*%
%TO.N,MOSI*%
X95885000Y-87376000D03*
%TO.P,U5,13*%
%TO.N,MISO*%
X95885000Y-89916000D03*
%TO.P,U5,14*%
%TO.N,Net-(J2-Pad2)*%
X95885000Y-92456000D03*
%TO.P,U5,15*%
%TO.N,Net-(J2-Pad1)*%
X95885000Y-94996000D03*
%TO.P,U5,16*%
%TO.N,Net-(U5-Pad16)*%
X95885000Y-97536000D03*
%TO.P,U5,28*%
%TO.N,Net-(U5-Pad28)*%
X116205000Y-69596000D03*
%TO.P,U5,27*%
%TO.N,Net-(U5-Pad27)*%
X116205000Y-72136000D03*
%TO.P,U5,26*%
%TO.N,Net-(U5-Pad26)*%
X116205000Y-74676000D03*
%TO.P,U5,25*%
%TO.N,T_IRQ*%
X116205000Y-77216000D03*
%TO.P,U5,24*%
%TO.N,T_CS*%
X116205000Y-79756000D03*
%TO.P,U5,23*%
%TO.N,D_CS*%
X116205000Y-82296000D03*
%TO.P,U5,22*%
%TO.N,I2C1_SCL*%
X116205000Y-84836000D03*
%TO.P,U5,21*%
%TO.N,I2C1_SDA*%
X116205000Y-87376000D03*
%TO.P,U5,20*%
%TO.N,KBDINT*%
X116205000Y-89916000D03*
%TO.P,U5,19*%
%TO.N,Net-(U5-Pad19)*%
X116205000Y-92456000D03*
%TO.P,U5,18*%
%TO.N,I2C0_SCL*%
X116205000Y-94996000D03*
%TO.P,U5,17*%
%TO.N,I2C0_SDA*%
X116205000Y-97536000D03*
%TD*%
D12*
%TO.P,Q1,2*%
%TO.N,COL2*%
X159258000Y-108026200D03*
%TO.P,Q1,1*%
%TO.N,ROW0*%
X165608000Y-105486200D03*
%TD*%
%TO.P,A1,2*%
%TO.N,COL2*%
X159258000Y-128752600D03*
%TO.P,A1,1*%
%TO.N,ROW1*%
X165608000Y-126212600D03*
%TD*%
%TO.P,D1,2*%
%TO.N,COL0*%
X201269600Y-128752600D03*
%TO.P,D1,1*%
%TO.N,ROW1*%
X207619600Y-126212600D03*
%TD*%
%TO.P,Shift1,2*%
%TO.N,COL3*%
X138252200Y-108026200D03*
%TO.P,Shift1,1*%
%TO.N,ROW0*%
X144602200Y-105486200D03*
%TD*%
%TO.P,Ctrl1,2*%
%TO.N,COL3*%
X138252200Y-128752600D03*
%TO.P,Ctrl1,1*%
%TO.N,ROW1*%
X144602200Y-126212600D03*
%TD*%
%TO.P,E1,2*%
%TO.N,COL0*%
X201269600Y-108026200D03*
%TO.P,E1,1*%
%TO.N,ROW0*%
X207619600Y-105486200D03*
%TD*%
%TO.P,W1,2*%
%TO.N,COL1*%
X180263800Y-108026200D03*
%TO.P,W1,1*%
%TO.N,ROW0*%
X186613800Y-105486200D03*
%TD*%
D13*
%TO.P,J1,14*%
%TO.N,T_IRQ*%
X138734800Y-92303600D03*
%TO.P,J1,13*%
%TO.N,MISO*%
X138734800Y-89763600D03*
%TO.P,J1,12*%
%TO.N,MOSI*%
X138734800Y-87223600D03*
%TO.P,J1,11*%
%TO.N,T_CS*%
X138734800Y-84683600D03*
%TO.P,J1,10*%
%TO.N,SCK*%
X138734800Y-82143600D03*
%TO.P,J1,9*%
%TO.N,MISO*%
X138734800Y-79603600D03*
%TO.P,J1,8*%
%TO.N,3V3*%
X138734800Y-77063600D03*
%TO.P,J1,7*%
%TO.N,SCK*%
X138734800Y-74523600D03*
%TO.P,J1,6*%
%TO.N,MOSI*%
X138734800Y-71983600D03*
%TO.P,J1,5*%
%TO.N,D_DC*%
X138734800Y-69443600D03*
%TO.P,J1,4*%
%TO.N,RST*%
X138734800Y-66903600D03*
%TO.P,J1,3*%
%TO.N,D_CS*%
X138734800Y-64363600D03*
%TO.P,J1,2*%
%TO.N,GND*%
X138734800Y-61823600D03*
D14*
%TO.P,J1,1*%
%TO.N,3V3*%
X138734800Y-59283600D03*
%TD*%
%TO.P,R3,2*%
%TO.N,3V3*%
%TA.AperFunction,SMDPad,CuDef*%
G36*
G01*
X114764000Y-101071000D02*
X114764000Y-101621000D01*
G75*
G02*
X114564000Y-101821000I-200000J0D01*
G01*
X114164000Y-101821000D01*
G75*
G02*
X113964000Y-101621000I0J200000D01*
G01*
X113964000Y-101071000D01*
G75*
G02*
X114164000Y-100871000I200000J0D01*
G01*
X114564000Y-100871000D01*
G75*
G02*
X114764000Y-101071000I0J-200000D01*
G01*
G37*
%TD.AperFunction*%
%TO.P,R3,1*%
%TO.N,I2C0_SDA*%
%TA.AperFunction,SMDPad,CuDef*%
G36*
G01*
X116414000Y-101071000D02*
X116414000Y-101621000D01*
G75*
G02*
X116214000Y-101821000I-200000J0D01*
G01*
X115814000Y-101821000D01*
G75*
G02*
X115614000Y-101621000I0J200000D01*
G01*
X115614000Y-101071000D01*
G75*
G02*
X115814000Y-100871000I200000J0D01*
G01*
X116214000Y-100871000D01*
G75*
G02*
X116414000Y-101071000I0J-200000D01*
G01*
G37*
%TD.AperFunction*%
%TD*%
%TO.P,R4,2*%
%TO.N,3V3*%
%TA.AperFunction,SMDPad,CuDef*%
G36*
G01*
X110788000Y-101621000D02*
X110788000Y-101071000D01*
G75*
G02*
X110988000Y-100871000I200000J0D01*
G01*
X111388000Y-100871000D01*
G75*
G02*
X111588000Y-101071000I0J-200000D01*
G01*
X111588000Y-101621000D01*
G75*
G02*
X111388000Y-101821000I-200000J0D01*
G01*
X110988000Y-101821000D01*
G75*
G02*
X110788000Y-101621000I0J200000D01*
G01*
G37*
%TD.AperFunction*%
%TO.P,R4,1*%
%TO.N,I2C0_SCL*%
%TA.AperFunction,SMDPad,CuDef*%
G36*
G01*
X109138000Y-101621000D02*
X109138000Y-101071000D01*
G75*
G02*
X109338000Y-100871000I200000J0D01*
G01*
X109738000Y-100871000D01*
G75*
G02*
X109938000Y-101071000I0J-200000D01*
G01*
X109938000Y-101621000D01*
G75*
G02*
X109738000Y-101821000I-200000J0D01*
G01*
X109338000Y-101821000D01*
G75*
G02*
X109138000Y-101621000I0J200000D01*
G01*
G37*
%TD.AperFunction*%
%TD*%
D13*
%TO.P,J2,2*%
%TO.N,Net-(J2-Pad2)*%
X96215200Y-108292900D03*
D14*
%TO.P,J2,1*%
%TO.N,Net-(J2-Pad1)*%
X96215200Y-105752900D03*
%TD*%
D13*
%TO.P,J3,5*%
%TO.N,GND*%
X97104200Y-126695200D03*
%TO.P,J3,4*%
%TO.N,3V3*%
X97104200Y-124155200D03*
%TO.P,J3,3*%
%TO.N,Enc_SW*%
X97104200Y-121615200D03*
%TO.P,J3,2*%
%TO.N,Enc_DT*%
X97104200Y-119075200D03*
D14*
%TO.P,J3,1*%
%TO.N,Enc_CLK*%
X97104200Y-116535200D03*
%TD*%
%TO.P,R1,2*%
%TO.N,3V3*%
%TA.AperFunction,SMDPad,CuDef*%
G36*
G01*
X121010000Y-100501000D02*
X121560000Y-100501000D01*
G75*
G02*
X121760000Y-100701000I0J-200000D01*
G01*
X121760000Y-101101000D01*
G75*
G02*
X121560000Y-101301000I-200000J0D01*
G01*
X121010000Y-101301000D01*
G75*
G02*
X120810000Y-101101000I0J200000D01*
G01*
X120810000Y-100701000D01*
G75*
G02*
X121010000Y-100501000I200000J0D01*
G01*
G37*
%TD.AperFunction*%
%TO.P,R1,1*%
%TO.N,I2C1_SDA*%
%TA.AperFunction,SMDPad,CuDef*%
G36*
G01*
X121010000Y-98851000D02*
X121560000Y-98851000D01*
G75*
G02*
X121760000Y-99051000I0J-200000D01*
G01*
X121760000Y-99451000D01*
G75*
G02*
X121560000Y-99651000I-200000J0D01*
G01*
X121010000Y-99651000D01*
G75*
G02*
X120810000Y-99451000I0J200000D01*
G01*
X120810000Y-99051000D01*
G75*
G02*
X121010000Y-98851000I200000J0D01*
G01*
G37*
%TD.AperFunction*%
%TD*%
%TO.P,R2,2*%
%TO.N,3V3*%
%TA.AperFunction,SMDPad,CuDef*%
G36*
G01*
X123550000Y-100501000D02*
X124100000Y-100501000D01*
G75*
G02*
X124300000Y-100701000I0J-200000D01*
G01*
X124300000Y-101101000D01*
G75*
G02*
X124100000Y-101301000I-200000J0D01*
G01*
X123550000Y-101301000D01*
G75*
G02*
X123350000Y-101101000I0J200000D01*
G01*
X123350000Y-100701000D01*
G75*
G02*
X123550000Y-100501000I200000J0D01*
G01*
G37*
%TD.AperFunction*%
%TO.P,R2,1*%
%TO.N,I2C1_SCL*%
%TA.AperFunction,SMDPad,CuDef*%
G36*
G01*
X123550000Y-98851000D02*
X124100000Y-98851000D01*
G75*
G02*
X124300000Y-99051000I0J-200000D01*
G01*
X124300000Y-99451000D01*
G75*
G02*
X124100000Y-99651000I-200000J0D01*
G01*
X123550000Y-99651000D01*
G75*
G02*
X123350000Y-99451000I0J200000D01*
G01*
X123350000Y-99051000D01*
G75*
G02*
X123550000Y-98851000I200000J0D01*
G01*
G37*
%TD.AperFunction*%
%TD*%
D15*
%TO.P,U2,EP*%
%TO.N,GND*%
X114871500Y-120409500D03*
D16*
%TO.P,U2,18*%
%TO.N,3V3*%
X116421500Y-119409500D03*
%TO.P,U2,14*%
%TO.N,Net-(U2-Pad14)*%
X116421500Y-121009500D03*
%TO.P,U2,15*%
%TO.N,Net-(U2-Pad15)*%
X116421500Y-120609500D03*
%TO.P,U2,13*%
%TO.N,Net-(U2-Pad13)*%
X116421500Y-121409500D03*
%TO.P,U2,16*%
%TO.N,Net-(U2-Pad16)*%
X116421500Y-120209500D03*
%TO.P,U2,17*%
%TO.N,RST*%
X116421500Y-119809500D03*
D17*
%TO.P,U2,8*%
%TO.N,ROW0*%
X114271500Y-121959500D03*
%TO.P,U2,12*%
%TO.N,COL3*%
X115871500Y-121959500D03*
%TO.P,U2,9*%
%TO.N,COL0*%
X114671500Y-121959500D03*
%TO.P,U2,10*%
%TO.N,COL1*%
X115071500Y-121959500D03*
%TO.P,U2,11*%
%TO.N,COL2*%
X115471500Y-121959500D03*
%TO.P,U2,7*%
%TO.N,ROW1*%
X113871500Y-121959500D03*
D16*
%TO.P,U2,5*%
%TO.N,Net-(U2-Pad5)*%
X113321500Y-121009500D03*
%TO.P,U2,1*%
%TO.N,Net-(U2-Pad1)*%
X113321500Y-119409500D03*
%TO.P,U2,4*%
%TO.N,Net-(U2-Pad4)*%
X113321500Y-120609500D03*
%TO.P,U2,3*%
%TO.N,Net-(U2-Pad3)*%
X113321500Y-120209500D03*
%TO.P,U2,2*%
%TO.N,Net-(U2-Pad2)*%
X113321500Y-119809500D03*
%TO.P,U2,6*%
%TO.N,Net-(U2-Pad6)*%
X113321500Y-121409500D03*
D17*
%TO.P,U2,20*%
%TO.N,Net-(U2-Pad20)*%
X115471500Y-118859500D03*
%TO.P,U2,19*%
%TO.N,Net-(U2-Pad19)*%
X115871500Y-118859500D03*
%TO.P,U2,21*%
%TO.N,Net-(U2-Pad21)*%
X115071500Y-118859500D03*
%TO.P,U2,22*%
%TO.N,I2C0_SDA*%
X114671500Y-118859500D03*
%TO.P,U2,23*%
%TO.N,I2C0_SCL*%
X114271500Y-118859500D03*
%TO.P,U2,24*%
%TO.N,KBDINT*%
X113871500Y-118859500D03*
%TD*%
D18*
%TO.N,ROW0*%
X113919000Y-124079000D03*
%TO.N,ROW1*%
X113538000Y-125857000D03*
%TO.N,3V3*%
X112331500Y-103060500D03*
X116903500Y-117538500D03*
X102044500Y-111633000D03*
%TO.N,GND*%
X115379500Y-120967500D03*
X114427000Y-120142000D03*
X107569000Y-120650000D03*
%TO.N,RST*%
X143256000Y-71501000D03*
X147447000Y-75692000D03*
%TD*%
D19*
%TO.N,ROW0*%
X144602200Y-105486200D02*
X165608000Y-105486200D01*
X165608000Y-105486200D02*
X186613800Y-105486200D01*
X186613800Y-105486200D02*
X207619600Y-105486200D01*
D20*
X114271500Y-123726500D02*
X113919000Y-124079000D01*
X114271500Y-121959500D02*
X114271500Y-123726500D01*
%TO.N,COL3*%
X138252200Y-128752600D02*
X135293100Y-128752600D01*
X135293100Y-128752600D02*
X130111500Y-123571000D01*
X130111500Y-123571000D02*
X117030500Y-123571000D01*
X115871500Y-122412000D02*
X115871500Y-121959500D01*
X117030500Y-123571000D02*
X115871500Y-122412000D01*
X138252200Y-108026200D02*
X138252200Y-128752600D01*
D19*
%TO.N,ROW1*%
X144602200Y-126212600D02*
X165608000Y-126212600D01*
X165608000Y-126212600D02*
X186613800Y-126212600D01*
X186613800Y-126212600D02*
X207619600Y-126212600D01*
X144602200Y-125425200D02*
X144602200Y-126212600D01*
D20*
X113871500Y-121959500D02*
X113871500Y-122285000D01*
X113871500Y-122285000D02*
X112776000Y-123380500D01*
X112776000Y-125095000D02*
X113538000Y-125857000D01*
X112776000Y-123380500D02*
X112776000Y-125095000D01*
%TO.N,COL2*%
X159258000Y-128752600D02*
X157441900Y-128752600D01*
X157441900Y-128752600D02*
X151193500Y-135001000D01*
X126936500Y-135001000D02*
X115471500Y-123536000D01*
X151193500Y-135001000D02*
X126936500Y-135001000D01*
X115471500Y-123536000D02*
X115471500Y-121959500D01*
%TO.N,COL1*%
X180263800Y-128752600D02*
X178904900Y-128752600D01*
X178904900Y-128752600D02*
X170751500Y-136906000D01*
X115135000Y-125104500D02*
X126936500Y-136906000D01*
X115071500Y-125104500D02*
X115135000Y-125104500D01*
X170751500Y-136906000D02*
X126936500Y-136906000D01*
X115071500Y-125104500D02*
X115071500Y-121959500D01*
%TO.N,COL0*%
X199478900Y-128752600D02*
X201269600Y-128752600D01*
X189526499Y-138705001D02*
X199478900Y-128752600D01*
X126259001Y-138705001D02*
X189526499Y-138705001D01*
X114671500Y-127117500D02*
X126259001Y-138705001D01*
X114671500Y-121959500D02*
X114671500Y-127117500D01*
D19*
%TO.N,T_IRQ*%
X138734800Y-92303600D02*
X134696200Y-92303600D01*
X119608600Y-77216000D02*
X126193550Y-83800950D01*
X116205000Y-77216000D02*
X119608600Y-77216000D01*
X126193550Y-83800950D02*
X125399800Y-83007200D01*
X134696200Y-92303600D02*
X126193550Y-83800950D01*
%TO.N,MISO*%
X96139000Y-89662000D02*
X95885000Y-89916000D01*
X138734800Y-89763600D02*
X136055100Y-89763600D01*
X136055100Y-89763600D02*
X122174000Y-75882500D01*
X122174000Y-75882500D02*
X114935000Y-75882500D01*
X111379000Y-79502000D02*
X101219000Y-89662000D01*
X111379000Y-79438500D02*
X111379000Y-79502000D01*
X101219000Y-89662000D02*
X96139000Y-89662000D01*
X114935000Y-75882500D02*
X111379000Y-79438500D01*
%TO.N,MOSI*%
X140468350Y-73717150D02*
X140468350Y-85490050D01*
X140220700Y-85737700D02*
X138734800Y-87223600D01*
X140468350Y-85490050D02*
X140220700Y-85737700D01*
X138734800Y-71983600D02*
X140468350Y-73717150D01*
X99758500Y-87376000D02*
X98679000Y-87376000D01*
X98679000Y-87376000D02*
X95885000Y-87376000D01*
X113728500Y-73406000D02*
X99758500Y-87376000D01*
X124917200Y-73406000D02*
X113728500Y-73406000D01*
X138734800Y-87223600D02*
X124917200Y-73406000D01*
%TO.N,SCK*%
X138734800Y-74523600D02*
X136677400Y-76581000D01*
X136677400Y-76581000D02*
X136677400Y-80543400D01*
X138277600Y-82143600D02*
X138734800Y-82143600D01*
X136677400Y-80543400D02*
X138277600Y-82143600D01*
X129578100Y-74523600D02*
X125920500Y-70866000D01*
X138734800Y-74523600D02*
X129578100Y-74523600D01*
X95885000Y-84836000D02*
X98107500Y-84836000D01*
X112077500Y-70866000D02*
X112966500Y-70866000D01*
X98107500Y-84836000D02*
X112077500Y-70866000D01*
X125920500Y-70866000D02*
X112966500Y-70866000D01*
%TO.N,D_CS*%
X116001800Y-82397600D02*
X116027200Y-82372200D01*
D21*
%TO.N,3V3*%
X111188000Y-101346000D02*
X112903000Y-101346000D01*
X114364000Y-101346000D02*
X112903000Y-101346000D01*
X121285500Y-100901500D02*
X121285000Y-100901000D01*
X122555000Y-100901500D02*
X121285500Y-100901500D01*
X123824500Y-100901500D02*
X123825000Y-100901000D01*
X122555000Y-100901500D02*
X123824500Y-100901500D01*
X126365000Y-94234000D02*
X126365000Y-99695000D01*
X125159000Y-100901000D02*
X123825000Y-100901000D01*
X126365000Y-99695000D02*
X125159000Y-100901000D01*
D22*
X95885000Y-61976000D02*
X94678500Y-61976000D01*
X94678500Y-61976000D02*
X94043500Y-61341000D01*
X94043500Y-61341000D02*
X94043500Y-58547000D01*
X94043500Y-58547000D02*
X94869000Y-57721500D01*
X137172700Y-57721500D02*
X138734800Y-59283600D01*
X94869000Y-57721500D02*
X137172700Y-57721500D01*
D21*
X112903000Y-102489000D02*
X112331500Y-103060500D01*
X112903000Y-101346000D02*
X112903000Y-102489000D01*
D20*
X116421500Y-118020500D02*
X116903500Y-117538500D01*
X116421500Y-119409500D02*
X116421500Y-118020500D01*
D19*
X105283500Y-111633000D02*
X102044500Y-111633000D01*
%TO.N,Net-(J2-Pad1)*%
X96215200Y-105752900D02*
X96278700Y-105752900D01*
X96278700Y-105752900D02*
X97396300Y-104635300D01*
X95885000Y-94996000D02*
X96901000Y-94996000D01*
X97396300Y-95491300D02*
X97396300Y-97777300D01*
X96901000Y-94996000D02*
X97396300Y-95491300D01*
X97396300Y-97777300D02*
X97396300Y-96761300D01*
X97396300Y-104635300D02*
X97396300Y-97777300D01*
%TO.N,Net-(J2-Pad2)*%
X94957900Y-108292900D02*
X96215200Y-108292900D01*
X94399100Y-107734100D02*
X94957900Y-108292900D01*
X94399100Y-93840300D02*
X94399100Y-107734100D01*
X95707200Y-92532200D02*
X94399100Y-93840300D01*
%TO.N,Enc_CLK*%
X94837250Y-80702150D02*
X95707200Y-79832200D01*
X93865700Y-81673700D02*
X94837250Y-80702150D01*
X93865700Y-114846100D02*
X93865700Y-81673700D01*
X95554800Y-116535200D02*
X93865700Y-114846100D01*
X97104200Y-116535200D02*
X95554800Y-116535200D01*
%TO.N,Enc_DT*%
X93256100Y-79743300D02*
X95707200Y-77292200D01*
X93256100Y-116814600D02*
X93256100Y-79743300D01*
X95516700Y-119075200D02*
X93256100Y-116814600D01*
X97104200Y-119075200D02*
X95516700Y-119075200D01*
%TO.N,Enc_SW*%
X92608400Y-77851000D02*
X95707200Y-74752200D01*
X92608400Y-118706900D02*
X92608400Y-77851000D01*
X95516700Y-121615200D02*
X92608400Y-118706900D01*
X97104200Y-121615200D02*
X95516700Y-121615200D01*
%TO.N,D_DC*%
X108458000Y-69723000D02*
X110236000Y-67945000D01*
X95885000Y-82296000D02*
X108458000Y-69723000D01*
X128816100Y-69443600D02*
X138734800Y-69443600D01*
X126682500Y-67310000D02*
X128816100Y-69443600D01*
X110871000Y-67310000D02*
X126682500Y-67310000D01*
X108458000Y-69723000D02*
X110871000Y-67310000D01*
D22*
%TO.N,GND*%
X95707200Y-67132200D02*
X95973900Y-67132200D01*
X95885000Y-67056000D02*
X92710000Y-63881000D01*
X92710000Y-58610500D02*
X92710000Y-57848500D01*
X92710000Y-63881000D02*
X92710000Y-58610500D01*
X92710000Y-58610500D02*
X92710000Y-57912000D01*
X92710000Y-57848500D02*
X94107000Y-56451500D01*
X94107000Y-56451500D02*
X139827000Y-56451500D01*
X139827000Y-56451500D02*
X140906500Y-57531000D01*
X140906500Y-59651900D02*
X138734800Y-61823600D01*
X140906500Y-57531000D02*
X140906500Y-59651900D01*
D21*
X91630500Y-71310500D02*
X95885000Y-67056000D01*
X95580200Y-126695200D02*
X91630500Y-122745500D01*
X91630500Y-122745500D02*
X91630500Y-71310500D01*
X97104200Y-126695200D02*
X95580200Y-126695200D01*
X97104200Y-126695200D02*
X98666300Y-126695200D01*
X104711500Y-120650000D02*
X105537000Y-120650000D01*
X98666300Y-126695200D02*
X104711500Y-120650000D01*
X107569000Y-120650000D02*
X105537000Y-120650000D01*
X145478500Y-68567300D02*
X138734800Y-61823600D01*
X145478500Y-90106500D02*
X145478500Y-68567300D01*
X130460750Y-95599250D02*
X130365500Y-95694500D01*
X139985750Y-95599250D02*
X130460750Y-95599250D01*
X128905000Y-94234000D02*
X130365500Y-95694500D01*
X139985750Y-95599250D02*
X145478500Y-90106500D01*
D20*
%TO.N,RST*%
X143256000Y-71424800D02*
X143256000Y-71501000D01*
X138734800Y-66903600D02*
X143256000Y-71424800D01*
X117871000Y-119809500D02*
X116421500Y-119809500D01*
D19*
X130657600Y-66903600D02*
X138734800Y-66903600D01*
X123266200Y-59512200D02*
X130657600Y-66903600D01*
X95707200Y-59512200D02*
X123266200Y-59512200D01*
X147447000Y-90233500D02*
X138271250Y-99409250D01*
X147447000Y-88582500D02*
X147447000Y-90233500D01*
D20*
X138271250Y-99409250D02*
X117871000Y-119809500D01*
X147447000Y-75692000D02*
X147447000Y-88582500D01*
D19*
%TO.N,I2C1_SCL*%
X116014500Y-84924900D02*
X116027200Y-84912200D01*
X123825000Y-94234000D02*
X123825000Y-99251000D01*
X123825000Y-94234000D02*
X123825000Y-92900500D01*
X116205000Y-84836000D02*
X117665500Y-84836000D01*
X123825000Y-90995500D02*
X123825000Y-92900500D01*
X117665500Y-84836000D02*
X123825000Y-90995500D01*
%TO.N,I2C0_SCL*%
X115252500Y-94996000D02*
X116205000Y-94996000D01*
X116205000Y-94996000D02*
X114744500Y-94996000D01*
X114744500Y-94996000D02*
X114744500Y-95059500D01*
X109538000Y-100266000D02*
X109538000Y-101346000D01*
X114744500Y-95059500D02*
X109538000Y-100266000D01*
D20*
X114271500Y-118859500D02*
X114271500Y-117694000D01*
X109538000Y-112967000D02*
X109538000Y-111506500D01*
X114265000Y-117694000D02*
X109538000Y-112967000D01*
D19*
X109538500Y-108077000D02*
X109538000Y-108077500D01*
X111760000Y-108077000D02*
X109538500Y-108077000D01*
D20*
X109538000Y-108077500D02*
X109538000Y-101346000D01*
X109538000Y-111506500D02*
X109538000Y-108077500D01*
D19*
%TO.N,I2C1_SDA*%
X121285000Y-94234000D02*
X121285000Y-99251000D01*
X121285000Y-92456000D02*
X121285000Y-93091000D01*
X116205000Y-87376000D02*
X121285000Y-92456000D01*
X121285000Y-93091000D02*
X121285000Y-94234000D01*
%TO.N,KBDINT*%
X106997500Y-99123500D02*
X116205000Y-89916000D01*
X106997500Y-111696500D02*
X106997500Y-99123500D01*
D20*
X113839500Y-118538500D02*
X106997500Y-111696500D01*
X113871500Y-118859500D02*
X113871500Y-118538500D01*
D19*
%TO.N,I2C0_SDA*%
X116205000Y-101155000D02*
X116014000Y-101346000D01*
X116205000Y-97536000D02*
X116205000Y-101155000D01*
X116014500Y-108077000D02*
X116014000Y-108077500D01*
D20*
X118427500Y-108077000D02*
X116014500Y-108077000D01*
X116014000Y-108077500D02*
X116014000Y-101346000D01*
X114671500Y-117738500D02*
X114671500Y-118859500D01*
X116014000Y-116396000D02*
X114671500Y-117738500D01*
X116014000Y-108077500D02*
X116014000Y-116396000D01*
%TD*%
M02*
