%TF.GenerationSoftware,KiCad,Pcbnew,(5.1.9)-1*%
%TF.CreationDate,2021-03-23T20:34:14-07:00*%
%TF.ProjectId,Keyboard Proto,4b657962-6f61-4726-9420-50726f746f2e,rev?*%
%TF.SameCoordinates,Original*%
%TF.FileFunction,Soldermask,Top*%
%TF.FilePolarity,Negative*%
%FSLAX46Y46*%
G04 Gerber Fmt 4.6, Leading zero omitted, Abs format (unit mm)*
G04 Created by KiCad (PCBNEW (5.1.9)-1) date 2021-03-23 20:34:14*
%MOMM*%
%LPD*%
G01*
G04 APERTURE LIST*
%ADD10C,1.900000*%
%ADD11C,2.200000*%
%ADD12C,4.000000*%
%ADD13C,1.700000*%
%ADD14R,1.700000X1.700000*%
%ADD15O,1.700000X1.700000*%
%ADD16R,0.650000X1.060000*%
%ADD17C,1.778000*%
G04 APERTURE END LIST*
D10*
%TO.C,U4*%
X127190500Y-136144000D03*
X127190500Y-133604000D03*
X127190500Y-131064000D03*
X127190500Y-128524000D03*
X127190500Y-125984000D03*
X127190500Y-123444000D03*
X127190500Y-120904000D03*
X127190500Y-118364000D03*
X127190500Y-115824000D03*
X127190500Y-113284000D03*
X127190500Y-110744000D03*
X127190500Y-108204000D03*
X127190500Y-105664000D03*
X119570500Y-136144000D03*
X119570500Y-133604000D03*
X119570500Y-131064000D03*
X119570500Y-128524000D03*
X119570500Y-125984000D03*
X119570500Y-123444000D03*
X119570500Y-120904000D03*
X119570500Y-118364000D03*
X119570500Y-115824000D03*
X119570500Y-113284000D03*
X119570500Y-110744000D03*
X119570500Y-108204000D03*
%TD*%
%TO.C,R6*%
G36*
G01*
X106444500Y-123454750D02*
X106444500Y-124004750D01*
G75*
G02*
X106244500Y-124204750I-200000J0D01*
G01*
X105844500Y-124204750D01*
G75*
G02*
X105644500Y-124004750I0J200000D01*
G01*
X105644500Y-123454750D01*
G75*
G02*
X105844500Y-123254750I200000J0D01*
G01*
X106244500Y-123254750D01*
G75*
G02*
X106444500Y-123454750I0J-200000D01*
G01*
G37*
G36*
G01*
X104794500Y-123454750D02*
X104794500Y-124004750D01*
G75*
G02*
X104594500Y-124204750I-200000J0D01*
G01*
X104194500Y-124204750D01*
G75*
G02*
X103994500Y-124004750I0J200000D01*
G01*
X103994500Y-123454750D01*
G75*
G02*
X104194500Y-123254750I200000J0D01*
G01*
X104594500Y-123254750D01*
G75*
G02*
X104794500Y-123454750I0J-200000D01*
G01*
G37*
%TD*%
D11*
%TO.C,Q1*%
X165608000Y-105486200D03*
X159258000Y-108026200D03*
D12*
X163068000Y-110566200D03*
D13*
X157988000Y-110566200D03*
X168148000Y-110566200D03*
%TD*%
%TO.C,R7*%
G36*
G01*
X121010000Y-98851000D02*
X121560000Y-98851000D01*
G75*
G02*
X121760000Y-99051000I0J-200000D01*
G01*
X121760000Y-99451000D01*
G75*
G02*
X121560000Y-99651000I-200000J0D01*
G01*
X121010000Y-99651000D01*
G75*
G02*
X120810000Y-99451000I0J200000D01*
G01*
X120810000Y-99051000D01*
G75*
G02*
X121010000Y-98851000I200000J0D01*
G01*
G37*
G36*
G01*
X121010000Y-100501000D02*
X121560000Y-100501000D01*
G75*
G02*
X121760000Y-100701000I0J-200000D01*
G01*
X121760000Y-101101000D01*
G75*
G02*
X121560000Y-101301000I-200000J0D01*
G01*
X121010000Y-101301000D01*
G75*
G02*
X120810000Y-101101000I0J200000D01*
G01*
X120810000Y-100701000D01*
G75*
G02*
X121010000Y-100501000I200000J0D01*
G01*
G37*
%TD*%
%TO.C,R8*%
G36*
G01*
X123550000Y-100501000D02*
X124100000Y-100501000D01*
G75*
G02*
X124300000Y-100701000I0J-200000D01*
G01*
X124300000Y-101101000D01*
G75*
G02*
X124100000Y-101301000I-200000J0D01*
G01*
X123550000Y-101301000D01*
G75*
G02*
X123350000Y-101101000I0J200000D01*
G01*
X123350000Y-100701000D01*
G75*
G02*
X123550000Y-100501000I200000J0D01*
G01*
G37*
G36*
G01*
X123550000Y-98851000D02*
X124100000Y-98851000D01*
G75*
G02*
X124300000Y-99051000I0J-200000D01*
G01*
X124300000Y-99451000D01*
G75*
G02*
X124100000Y-99651000I-200000J0D01*
G01*
X123550000Y-99651000D01*
G75*
G02*
X123350000Y-99451000I0J200000D01*
G01*
X123350000Y-99051000D01*
G75*
G02*
X123550000Y-98851000I200000J0D01*
G01*
G37*
%TD*%
%TO.C,A1*%
X168148000Y-131292600D03*
X157988000Y-131292600D03*
D12*
X163068000Y-131292600D03*
D11*
X159258000Y-128752600D03*
X165608000Y-126212600D03*
%TD*%
D13*
%TO.C,D1*%
X210159600Y-131292600D03*
X199999600Y-131292600D03*
D12*
X205079600Y-131292600D03*
D11*
X201269600Y-128752600D03*
X207619600Y-126212600D03*
%TD*%
%TO.C,Shift1*%
X144602200Y-105486200D03*
X138252200Y-108026200D03*
D12*
X142062200Y-110566200D03*
D13*
X136982200Y-110566200D03*
X147142200Y-110566200D03*
%TD*%
%TO.C,Ctrl1*%
X147142200Y-131292600D03*
X136982200Y-131292600D03*
D12*
X142062200Y-131292600D03*
D11*
X138252200Y-128752600D03*
X144602200Y-126212600D03*
%TD*%
%TO.C,S1*%
X186613800Y-126212600D03*
X180263800Y-128752600D03*
D12*
X184073800Y-131292600D03*
D13*
X178993800Y-131292600D03*
X189153800Y-131292600D03*
%TD*%
D11*
%TO.C,E1*%
X207619600Y-105486200D03*
X201269600Y-108026200D03*
D12*
X205079600Y-110566200D03*
D13*
X199999600Y-110566200D03*
X210159600Y-110566200D03*
%TD*%
%TO.C,W1*%
X189153800Y-110566200D03*
X178993800Y-110566200D03*
D12*
X184073800Y-110566200D03*
D11*
X180263800Y-108026200D03*
X186613800Y-105486200D03*
%TD*%
D14*
%TO.C,J1*%
X138734800Y-59283600D03*
D15*
X138734800Y-61823600D03*
X138734800Y-64363600D03*
X138734800Y-66903600D03*
X138734800Y-69443600D03*
X138734800Y-71983600D03*
X138734800Y-74523600D03*
X138734800Y-77063600D03*
X138734800Y-79603600D03*
X138734800Y-82143600D03*
X138734800Y-84683600D03*
X138734800Y-87223600D03*
X138734800Y-89763600D03*
X138734800Y-92303600D03*
%TD*%
%TO.C,C1*%
G36*
G01*
X104439000Y-114423000D02*
X104439000Y-113923000D01*
G75*
G02*
X104664000Y-113698000I225000J0D01*
G01*
X105114000Y-113698000D01*
G75*
G02*
X105339000Y-113923000I0J-225000D01*
G01*
X105339000Y-114423000D01*
G75*
G02*
X105114000Y-114648000I-225000J0D01*
G01*
X104664000Y-114648000D01*
G75*
G02*
X104439000Y-114423000I0J225000D01*
G01*
G37*
G36*
G01*
X105989000Y-114423000D02*
X105989000Y-113923000D01*
G75*
G02*
X106214000Y-113698000I225000J0D01*
G01*
X106664000Y-113698000D01*
G75*
G02*
X106889000Y-113923000I0J-225000D01*
G01*
X106889000Y-114423000D01*
G75*
G02*
X106664000Y-114648000I-225000J0D01*
G01*
X106214000Y-114648000D01*
G75*
G02*
X105989000Y-114423000I0J225000D01*
G01*
G37*
%TD*%
%TO.C,C2*%
G36*
G01*
X106663300Y-117048400D02*
X106163300Y-117048400D01*
G75*
G02*
X105938300Y-116823400I0J225000D01*
G01*
X105938300Y-116373400D01*
G75*
G02*
X106163300Y-116148400I225000J0D01*
G01*
X106663300Y-116148400D01*
G75*
G02*
X106888300Y-116373400I0J-225000D01*
G01*
X106888300Y-116823400D01*
G75*
G02*
X106663300Y-117048400I-225000J0D01*
G01*
G37*
G36*
G01*
X106663300Y-118598400D02*
X106163300Y-118598400D01*
G75*
G02*
X105938300Y-118373400I0J225000D01*
G01*
X105938300Y-117923400D01*
G75*
G02*
X106163300Y-117698400I225000J0D01*
G01*
X106663300Y-117698400D01*
G75*
G02*
X106888300Y-117923400I0J-225000D01*
G01*
X106888300Y-118373400D01*
G75*
G02*
X106663300Y-118598400I-225000J0D01*
G01*
G37*
%TD*%
%TO.C,R1*%
G36*
G01*
X104794500Y-125391500D02*
X104794500Y-125941500D01*
G75*
G02*
X104594500Y-126141500I-200000J0D01*
G01*
X104194500Y-126141500D01*
G75*
G02*
X103994500Y-125941500I0J200000D01*
G01*
X103994500Y-125391500D01*
G75*
G02*
X104194500Y-125191500I200000J0D01*
G01*
X104594500Y-125191500D01*
G75*
G02*
X104794500Y-125391500I0J-200000D01*
G01*
G37*
G36*
G01*
X106444500Y-125391500D02*
X106444500Y-125941500D01*
G75*
G02*
X106244500Y-126141500I-200000J0D01*
G01*
X105844500Y-126141500D01*
G75*
G02*
X105644500Y-125941500I0J200000D01*
G01*
X105644500Y-125391500D01*
G75*
G02*
X105844500Y-125191500I200000J0D01*
G01*
X106244500Y-125191500D01*
G75*
G02*
X106444500Y-125391500I0J-200000D01*
G01*
G37*
%TD*%
%TO.C,R2*%
G36*
G01*
X109138000Y-101621000D02*
X109138000Y-101071000D01*
G75*
G02*
X109338000Y-100871000I200000J0D01*
G01*
X109738000Y-100871000D01*
G75*
G02*
X109938000Y-101071000I0J-200000D01*
G01*
X109938000Y-101621000D01*
G75*
G02*
X109738000Y-101821000I-200000J0D01*
G01*
X109338000Y-101821000D01*
G75*
G02*
X109138000Y-101621000I0J200000D01*
G01*
G37*
G36*
G01*
X110788000Y-101621000D02*
X110788000Y-101071000D01*
G75*
G02*
X110988000Y-100871000I200000J0D01*
G01*
X111388000Y-100871000D01*
G75*
G02*
X111588000Y-101071000I0J-200000D01*
G01*
X111588000Y-101621000D01*
G75*
G02*
X111388000Y-101821000I-200000J0D01*
G01*
X110988000Y-101821000D01*
G75*
G02*
X110788000Y-101621000I0J200000D01*
G01*
G37*
%TD*%
%TO.C,R3*%
G36*
G01*
X115781500Y-121303500D02*
X115231500Y-121303500D01*
G75*
G02*
X115031500Y-121103500I0J200000D01*
G01*
X115031500Y-120703500D01*
G75*
G02*
X115231500Y-120503500I200000J0D01*
G01*
X115781500Y-120503500D01*
G75*
G02*
X115981500Y-120703500I0J-200000D01*
G01*
X115981500Y-121103500D01*
G75*
G02*
X115781500Y-121303500I-200000J0D01*
G01*
G37*
G36*
G01*
X115781500Y-119653500D02*
X115231500Y-119653500D01*
G75*
G02*
X115031500Y-119453500I0J200000D01*
G01*
X115031500Y-119053500D01*
G75*
G02*
X115231500Y-118853500I200000J0D01*
G01*
X115781500Y-118853500D01*
G75*
G02*
X115981500Y-119053500I0J-200000D01*
G01*
X115981500Y-119453500D01*
G75*
G02*
X115781500Y-119653500I-200000J0D01*
G01*
G37*
%TD*%
%TO.C,R4*%
G36*
G01*
X114764000Y-101071000D02*
X114764000Y-101621000D01*
G75*
G02*
X114564000Y-101821000I-200000J0D01*
G01*
X114164000Y-101821000D01*
G75*
G02*
X113964000Y-101621000I0J200000D01*
G01*
X113964000Y-101071000D01*
G75*
G02*
X114164000Y-100871000I200000J0D01*
G01*
X114564000Y-100871000D01*
G75*
G02*
X114764000Y-101071000I0J-200000D01*
G01*
G37*
G36*
G01*
X116414000Y-101071000D02*
X116414000Y-101621000D01*
G75*
G02*
X116214000Y-101821000I-200000J0D01*
G01*
X115814000Y-101821000D01*
G75*
G02*
X115614000Y-101621000I0J200000D01*
G01*
X115614000Y-101071000D01*
G75*
G02*
X115814000Y-100871000I200000J0D01*
G01*
X116214000Y-100871000D01*
G75*
G02*
X116414000Y-101071000I0J-200000D01*
G01*
G37*
%TD*%
%TO.C,R5*%
G36*
G01*
X104794500Y-121518000D02*
X104794500Y-122068000D01*
G75*
G02*
X104594500Y-122268000I-200000J0D01*
G01*
X104194500Y-122268000D01*
G75*
G02*
X103994500Y-122068000I0J200000D01*
G01*
X103994500Y-121518000D01*
G75*
G02*
X104194500Y-121318000I200000J0D01*
G01*
X104594500Y-121318000D01*
G75*
G02*
X104794500Y-121518000I0J-200000D01*
G01*
G37*
G36*
G01*
X106444500Y-121518000D02*
X106444500Y-122068000D01*
G75*
G02*
X106244500Y-122268000I-200000J0D01*
G01*
X105844500Y-122268000D01*
G75*
G02*
X105644500Y-122068000I0J200000D01*
G01*
X105644500Y-121518000D01*
G75*
G02*
X105844500Y-121318000I200000J0D01*
G01*
X106244500Y-121318000D01*
G75*
G02*
X106444500Y-121518000I0J-200000D01*
G01*
G37*
%TD*%
%TO.C,U2*%
G36*
G01*
X109592500Y-119932000D02*
X109392500Y-119932000D01*
G75*
G02*
X109292500Y-119832000I0J100000D01*
G01*
X109292500Y-118557000D01*
G75*
G02*
X109392500Y-118457000I100000J0D01*
G01*
X109592500Y-118457000D01*
G75*
G02*
X109692500Y-118557000I0J-100000D01*
G01*
X109692500Y-119832000D01*
G75*
G02*
X109592500Y-119932000I-100000J0D01*
G01*
G37*
G36*
G01*
X110242500Y-119932000D02*
X110042500Y-119932000D01*
G75*
G02*
X109942500Y-119832000I0J100000D01*
G01*
X109942500Y-118557000D01*
G75*
G02*
X110042500Y-118457000I100000J0D01*
G01*
X110242500Y-118457000D01*
G75*
G02*
X110342500Y-118557000I0J-100000D01*
G01*
X110342500Y-119832000D01*
G75*
G02*
X110242500Y-119932000I-100000J0D01*
G01*
G37*
G36*
G01*
X110892500Y-119932000D02*
X110692500Y-119932000D01*
G75*
G02*
X110592500Y-119832000I0J100000D01*
G01*
X110592500Y-118557000D01*
G75*
G02*
X110692500Y-118457000I100000J0D01*
G01*
X110892500Y-118457000D01*
G75*
G02*
X110992500Y-118557000I0J-100000D01*
G01*
X110992500Y-119832000D01*
G75*
G02*
X110892500Y-119932000I-100000J0D01*
G01*
G37*
G36*
G01*
X111542500Y-119932000D02*
X111342500Y-119932000D01*
G75*
G02*
X111242500Y-119832000I0J100000D01*
G01*
X111242500Y-118557000D01*
G75*
G02*
X111342500Y-118457000I100000J0D01*
G01*
X111542500Y-118457000D01*
G75*
G02*
X111642500Y-118557000I0J-100000D01*
G01*
X111642500Y-119832000D01*
G75*
G02*
X111542500Y-119932000I-100000J0D01*
G01*
G37*
G36*
G01*
X112192500Y-119932000D02*
X111992500Y-119932000D01*
G75*
G02*
X111892500Y-119832000I0J100000D01*
G01*
X111892500Y-118557000D01*
G75*
G02*
X111992500Y-118457000I100000J0D01*
G01*
X112192500Y-118457000D01*
G75*
G02*
X112292500Y-118557000I0J-100000D01*
G01*
X112292500Y-119832000D01*
G75*
G02*
X112192500Y-119932000I-100000J0D01*
G01*
G37*
G36*
G01*
X112842500Y-119932000D02*
X112642500Y-119932000D01*
G75*
G02*
X112542500Y-119832000I0J100000D01*
G01*
X112542500Y-118557000D01*
G75*
G02*
X112642500Y-118457000I100000J0D01*
G01*
X112842500Y-118457000D01*
G75*
G02*
X112942500Y-118557000I0J-100000D01*
G01*
X112942500Y-119832000D01*
G75*
G02*
X112842500Y-119932000I-100000J0D01*
G01*
G37*
G36*
G01*
X113492500Y-119932000D02*
X113292500Y-119932000D01*
G75*
G02*
X113192500Y-119832000I0J100000D01*
G01*
X113192500Y-118557000D01*
G75*
G02*
X113292500Y-118457000I100000J0D01*
G01*
X113492500Y-118457000D01*
G75*
G02*
X113592500Y-118557000I0J-100000D01*
G01*
X113592500Y-119832000D01*
G75*
G02*
X113492500Y-119932000I-100000J0D01*
G01*
G37*
G36*
G01*
X113492500Y-114207000D02*
X113292500Y-114207000D01*
G75*
G02*
X113192500Y-114107000I0J100000D01*
G01*
X113192500Y-112832000D01*
G75*
G02*
X113292500Y-112732000I100000J0D01*
G01*
X113492500Y-112732000D01*
G75*
G02*
X113592500Y-112832000I0J-100000D01*
G01*
X113592500Y-114107000D01*
G75*
G02*
X113492500Y-114207000I-100000J0D01*
G01*
G37*
G36*
G01*
X112842500Y-114207000D02*
X112642500Y-114207000D01*
G75*
G02*
X112542500Y-114107000I0J100000D01*
G01*
X112542500Y-112832000D01*
G75*
G02*
X112642500Y-112732000I100000J0D01*
G01*
X112842500Y-112732000D01*
G75*
G02*
X112942500Y-112832000I0J-100000D01*
G01*
X112942500Y-114107000D01*
G75*
G02*
X112842500Y-114207000I-100000J0D01*
G01*
G37*
G36*
G01*
X112192500Y-114207000D02*
X111992500Y-114207000D01*
G75*
G02*
X111892500Y-114107000I0J100000D01*
G01*
X111892500Y-112832000D01*
G75*
G02*
X111992500Y-112732000I100000J0D01*
G01*
X112192500Y-112732000D01*
G75*
G02*
X112292500Y-112832000I0J-100000D01*
G01*
X112292500Y-114107000D01*
G75*
G02*
X112192500Y-114207000I-100000J0D01*
G01*
G37*
G36*
G01*
X111542500Y-114207000D02*
X111342500Y-114207000D01*
G75*
G02*
X111242500Y-114107000I0J100000D01*
G01*
X111242500Y-112832000D01*
G75*
G02*
X111342500Y-112732000I100000J0D01*
G01*
X111542500Y-112732000D01*
G75*
G02*
X111642500Y-112832000I0J-100000D01*
G01*
X111642500Y-114107000D01*
G75*
G02*
X111542500Y-114207000I-100000J0D01*
G01*
G37*
G36*
G01*
X110892500Y-114207000D02*
X110692500Y-114207000D01*
G75*
G02*
X110592500Y-114107000I0J100000D01*
G01*
X110592500Y-112832000D01*
G75*
G02*
X110692500Y-112732000I100000J0D01*
G01*
X110892500Y-112732000D01*
G75*
G02*
X110992500Y-112832000I0J-100000D01*
G01*
X110992500Y-114107000D01*
G75*
G02*
X110892500Y-114207000I-100000J0D01*
G01*
G37*
G36*
G01*
X110242500Y-114207000D02*
X110042500Y-114207000D01*
G75*
G02*
X109942500Y-114107000I0J100000D01*
G01*
X109942500Y-112832000D01*
G75*
G02*
X110042500Y-112732000I100000J0D01*
G01*
X110242500Y-112732000D01*
G75*
G02*
X110342500Y-112832000I0J-100000D01*
G01*
X110342500Y-114107000D01*
G75*
G02*
X110242500Y-114207000I-100000J0D01*
G01*
G37*
G36*
G01*
X109592500Y-114207000D02*
X109392500Y-114207000D01*
G75*
G02*
X109292500Y-114107000I0J100000D01*
G01*
X109292500Y-112832000D01*
G75*
G02*
X109392500Y-112732000I100000J0D01*
G01*
X109592500Y-112732000D01*
G75*
G02*
X109692500Y-112832000I0J-100000D01*
G01*
X109692500Y-114107000D01*
G75*
G02*
X109592500Y-114207000I-100000J0D01*
G01*
G37*
%TD*%
D16*
%TO.C,U3*%
X104353400Y-115943200D03*
X103403400Y-115943200D03*
X102453400Y-115943200D03*
X102453400Y-118143200D03*
X104353400Y-118143200D03*
%TD*%
D14*
%TO.C,J2*%
X96215200Y-105752900D03*
D15*
X96215200Y-108292900D03*
%TD*%
D14*
%TO.C,J3*%
X97104200Y-116535200D03*
D15*
X97104200Y-119075200D03*
X97104200Y-121615200D03*
X97104200Y-124155200D03*
X97104200Y-126695200D03*
%TD*%
D17*
%TO.C,U1*%
X121285000Y-94234000D03*
X123825000Y-94234000D03*
X126365000Y-94234000D03*
X128905000Y-94234000D03*
%TD*%
%TO.C,U5*%
X116205000Y-97536000D03*
X116205000Y-94996000D03*
X116205000Y-92456000D03*
X116205000Y-89916000D03*
X116205000Y-87376000D03*
X116205000Y-84836000D03*
X116205000Y-82296000D03*
X116205000Y-79756000D03*
X116205000Y-77216000D03*
X116205000Y-74676000D03*
X116205000Y-72136000D03*
X116205000Y-69596000D03*
X95885000Y-97536000D03*
X95885000Y-94996000D03*
X95885000Y-92456000D03*
X95885000Y-89916000D03*
X95885000Y-87376000D03*
X95885000Y-84836000D03*
X95885000Y-82296000D03*
X95885000Y-79756000D03*
X95885000Y-77216000D03*
X95885000Y-74676000D03*
X95885000Y-72136000D03*
X95885000Y-69596000D03*
X95885000Y-67056000D03*
X95885000Y-64516000D03*
X95885000Y-61976000D03*
X95885000Y-59436000D03*
%TD*%
%TO.C,C3*%
G36*
G01*
X115256500Y-114993000D02*
X115756500Y-114993000D01*
G75*
G02*
X115981500Y-115218000I0J-225000D01*
G01*
X115981500Y-115668000D01*
G75*
G02*
X115756500Y-115893000I-225000J0D01*
G01*
X115256500Y-115893000D01*
G75*
G02*
X115031500Y-115668000I0J225000D01*
G01*
X115031500Y-115218000D01*
G75*
G02*
X115256500Y-114993000I225000J0D01*
G01*
G37*
G36*
G01*
X115256500Y-116543000D02*
X115756500Y-116543000D01*
G75*
G02*
X115981500Y-116768000I0J-225000D01*
G01*
X115981500Y-117218000D01*
G75*
G02*
X115756500Y-117443000I-225000J0D01*
G01*
X115256500Y-117443000D01*
G75*
G02*
X115031500Y-117218000I0J225000D01*
G01*
X115031500Y-116768000D01*
G75*
G02*
X115256500Y-116543000I225000J0D01*
G01*
G37*
%TD*%
M02*
