%TF.GenerationSoftware,KiCad,Pcbnew,(5.1.9)-1*%
%TF.CreationDate,2021-03-23T20:34:14-07:00*%
%TF.ProjectId,Keyboard Proto,4b657962-6f61-4726-9420-50726f746f2e,rev?*%
%TF.SameCoordinates,Original*%
%TF.FileFunction,Copper,L1,Top*%
%TF.FilePolarity,Positive*%
%FSLAX46Y46*%
G04 Gerber Fmt 4.6, Leading zero omitted, Abs format (unit mm)*
G04 Created by KiCad (PCBNEW (5.1.9)-1) date 2021-03-23 20:34:14*
%MOMM*%
%LPD*%
G01*
G04 APERTURE LIST*
%TA.AperFunction,ComponentPad*%
%ADD10C,1.900000*%
%TD*%
%TA.AperFunction,ComponentPad*%
%ADD11C,2.200000*%
%TD*%
%TA.AperFunction,ComponentPad*%
%ADD12R,1.700000X1.700000*%
%TD*%
%TA.AperFunction,ComponentPad*%
%ADD13O,1.700000X1.700000*%
%TD*%
%TA.AperFunction,SMDPad,CuDef*%
%ADD14R,0.650000X1.060000*%
%TD*%
%TA.AperFunction,ComponentPad*%
%ADD15C,1.778000*%
%TD*%
%TA.AperFunction,ViaPad*%
%ADD16C,0.800000*%
%TD*%
%TA.AperFunction,Conductor*%
%ADD17C,0.250000*%
%TD*%
%TA.AperFunction,Conductor*%
%ADD18C,0.400000*%
%TD*%
%TA.AperFunction,Conductor*%
%ADD19C,0.600000*%
%TD*%
%TA.AperFunction,Conductor*%
%ADD20C,0.127000*%
%TD*%
G04 APERTURE END LIST*
D10*
%TO.P,U4,A1*%
%TO.N,Net-(U4-PadA1)*%
X127190500Y-136144000D03*
%TO.P,U4,A2*%
%TO.N,Net-(U4-PadA2)*%
X127190500Y-133604000D03*
%TO.P,U4,A3*%
%TO.N,1V8_RST*%
X127190500Y-131064000D03*
%TO.P,U4,B1*%
%TO.N,Net-(U4-PadB1)*%
X127190500Y-128524000D03*
%TO.P,U4,B2*%
%TO.N,Net-(U4-PadB2)*%
X127190500Y-125984000D03*
%TO.P,U4,C1*%
%TO.N,Net-(U4-PadC1)*%
X127190500Y-123444000D03*
%TO.P,U4,C2*%
%TO.N,Net-(U4-PadC2)*%
X127190500Y-120904000D03*
%TO.P,U4,C3*%
%TO.N,GND*%
X127190500Y-118364000D03*
%TO.P,U4,D1*%
%TO.N,Net-(U4-PadD1)*%
X127190500Y-115824000D03*
%TO.P,U4,D2*%
%TO.N,COL0*%
X127190500Y-113284000D03*
%TO.P,U4,E1*%
%TO.N,COL1*%
X127190500Y-110744000D03*
%TO.P,U4,E2*%
%TO.N,Net-(U4-PadE2)*%
X127190500Y-108204000D03*
%TO.P,U4,E3*%
%TO.N,ROW1*%
X127190500Y-105664000D03*
%TO.P,U4,A4*%
%TO.N,1V8_SCL*%
X119570500Y-136144000D03*
%TO.P,U4,A5*%
%TO.N,1V8_SDA*%
X119570500Y-133604000D03*
%TO.P,U4,B3*%
%TO.N,Net-(U4-PadB3)*%
X119570500Y-131064000D03*
%TO.P,U4,B4*%
%TO.N,COL2*%
X119570500Y-128524000D03*
%TO.P,U4,B5*%
%TO.N,COL3*%
X119570500Y-125984000D03*
%TO.P,U4,C4*%
%TO.N,Net-(U4-PadC4)*%
X119570500Y-123444000D03*
%TO.P,U4,C5*%
%TO.N,1V8_KBDINT*%
X119570500Y-120904000D03*
%TO.P,U4,D3*%
%TO.N,1V8*%
X119570500Y-118364000D03*
%TO.P,U4,D4*%
%TO.N,Net-(U4-PadD4)*%
X119570500Y-115824000D03*
%TO.P,U4,D5*%
%TO.N,Net-(U4-PadD5)*%
X119570500Y-113284000D03*
%TO.P,U4,E4*%
%TO.N,ROW0*%
X119570500Y-110744000D03*
%TO.P,U4,E5*%
%TO.N,Net-(U4-PadE5)*%
X119570500Y-108204000D03*
%TD*%
%TO.P,R6,1*%
%TO.N,1V8_SDA*%
%TA.AperFunction,SMDPad,CuDef*%
G36*
G01*
X106444500Y-123454750D02*
X106444500Y-124004750D01*
G75*
G02*
X106244500Y-124204750I-200000J0D01*
G01*
X105844500Y-124204750D01*
G75*
G02*
X105644500Y-124004750I0J200000D01*
G01*
X105644500Y-123454750D01*
G75*
G02*
X105844500Y-123254750I200000J0D01*
G01*
X106244500Y-123254750D01*
G75*
G02*
X106444500Y-123454750I0J-200000D01*
G01*
G37*
%TD.AperFunction*%
%TO.P,R6,2*%
%TO.N,1V8*%
%TA.AperFunction,SMDPad,CuDef*%
G36*
G01*
X104794500Y-123454750D02*
X104794500Y-124004750D01*
G75*
G02*
X104594500Y-124204750I-200000J0D01*
G01*
X104194500Y-124204750D01*
G75*
G02*
X103994500Y-124004750I0J200000D01*
G01*
X103994500Y-123454750D01*
G75*
G02*
X104194500Y-123254750I200000J0D01*
G01*
X104594500Y-123254750D01*
G75*
G02*
X104794500Y-123454750I0J-200000D01*
G01*
G37*
%TD.AperFunction*%
%TD*%
D11*
%TO.P,Q1,1*%
%TO.N,ROW0*%
X165608000Y-105486200D03*
%TO.P,Q1,2*%
%TO.N,COL2*%
X159258000Y-108026200D03*
%TD*%
%TO.P,R7,1*%
%TO.N,SDA*%
%TA.AperFunction,SMDPad,CuDef*%
G36*
G01*
X121010000Y-98851000D02*
X121560000Y-98851000D01*
G75*
G02*
X121760000Y-99051000I0J-200000D01*
G01*
X121760000Y-99451000D01*
G75*
G02*
X121560000Y-99651000I-200000J0D01*
G01*
X121010000Y-99651000D01*
G75*
G02*
X120810000Y-99451000I0J200000D01*
G01*
X120810000Y-99051000D01*
G75*
G02*
X121010000Y-98851000I200000J0D01*
G01*
G37*
%TD.AperFunction*%
%TO.P,R7,2*%
%TO.N,3V3*%
%TA.AperFunction,SMDPad,CuDef*%
G36*
G01*
X121010000Y-100501000D02*
X121560000Y-100501000D01*
G75*
G02*
X121760000Y-100701000I0J-200000D01*
G01*
X121760000Y-101101000D01*
G75*
G02*
X121560000Y-101301000I-200000J0D01*
G01*
X121010000Y-101301000D01*
G75*
G02*
X120810000Y-101101000I0J200000D01*
G01*
X120810000Y-100701000D01*
G75*
G02*
X121010000Y-100501000I200000J0D01*
G01*
G37*
%TD.AperFunction*%
%TD*%
%TO.P,R8,2*%
%TO.N,3V3*%
%TA.AperFunction,SMDPad,CuDef*%
G36*
G01*
X123550000Y-100501000D02*
X124100000Y-100501000D01*
G75*
G02*
X124300000Y-100701000I0J-200000D01*
G01*
X124300000Y-101101000D01*
G75*
G02*
X124100000Y-101301000I-200000J0D01*
G01*
X123550000Y-101301000D01*
G75*
G02*
X123350000Y-101101000I0J200000D01*
G01*
X123350000Y-100701000D01*
G75*
G02*
X123550000Y-100501000I200000J0D01*
G01*
G37*
%TD.AperFunction*%
%TO.P,R8,1*%
%TO.N,SCL*%
%TA.AperFunction,SMDPad,CuDef*%
G36*
G01*
X123550000Y-98851000D02*
X124100000Y-98851000D01*
G75*
G02*
X124300000Y-99051000I0J-200000D01*
G01*
X124300000Y-99451000D01*
G75*
G02*
X124100000Y-99651000I-200000J0D01*
G01*
X123550000Y-99651000D01*
G75*
G02*
X123350000Y-99451000I0J200000D01*
G01*
X123350000Y-99051000D01*
G75*
G02*
X123550000Y-98851000I200000J0D01*
G01*
G37*
%TD.AperFunction*%
%TD*%
%TO.P,A1,2*%
%TO.N,COL2*%
X159258000Y-128752600D03*
%TO.P,A1,1*%
%TO.N,ROW1*%
X165608000Y-126212600D03*
%TD*%
%TO.P,D1,2*%
%TO.N,COL0*%
X201269600Y-128752600D03*
%TO.P,D1,1*%
%TO.N,ROW1*%
X207619600Y-126212600D03*
%TD*%
%TO.P,Shift1,1*%
%TO.N,ROW0*%
X144602200Y-105486200D03*
%TO.P,Shift1,2*%
%TO.N,COL3*%
X138252200Y-108026200D03*
%TD*%
%TO.P,Ctrl1,2*%
%TO.N,COL3*%
X138252200Y-128752600D03*
%TO.P,Ctrl1,1*%
%TO.N,ROW1*%
X144602200Y-126212600D03*
%TD*%
%TO.P,S1,1*%
%TO.N,ROW1*%
X186613800Y-126212600D03*
%TO.P,S1,2*%
%TO.N,COL1*%
X180263800Y-128752600D03*
%TD*%
%TO.P,E1,1*%
%TO.N,ROW0*%
X207619600Y-105486200D03*
%TO.P,E1,2*%
%TO.N,COL0*%
X201269600Y-108026200D03*
%TD*%
%TO.P,W1,2*%
%TO.N,COL1*%
X180263800Y-108026200D03*
%TO.P,W1,1*%
%TO.N,ROW0*%
X186613800Y-105486200D03*
%TD*%
D12*
%TO.P,J1,1*%
%TO.N,3V3*%
X138734800Y-59283600D03*
D13*
%TO.P,J1,2*%
%TO.N,GND*%
X138734800Y-61823600D03*
%TO.P,J1,3*%
%TO.N,D_CS*%
X138734800Y-64363600D03*
%TO.P,J1,4*%
%TO.N,RST*%
X138734800Y-66903600D03*
%TO.P,J1,5*%
%TO.N,D_DC*%
X138734800Y-69443600D03*
%TO.P,J1,6*%
%TO.N,MOSI*%
X138734800Y-71983600D03*
%TO.P,J1,7*%
%TO.N,SCK*%
X138734800Y-74523600D03*
%TO.P,J1,8*%
%TO.N,3V3*%
X138734800Y-77063600D03*
%TO.P,J1,9*%
%TO.N,MISO*%
X138734800Y-79603600D03*
%TO.P,J1,10*%
%TO.N,SCK*%
X138734800Y-82143600D03*
%TO.P,J1,11*%
%TO.N,T_CS*%
X138734800Y-84683600D03*
%TO.P,J1,12*%
%TO.N,MOSI*%
X138734800Y-87223600D03*
%TO.P,J1,13*%
%TO.N,MISO*%
X138734800Y-89763600D03*
%TO.P,J1,14*%
%TO.N,T_IRQ*%
X138734800Y-92303600D03*
%TD*%
%TO.P,C1,1*%
%TO.N,3V3*%
%TA.AperFunction,SMDPad,CuDef*%
G36*
G01*
X104439000Y-114423000D02*
X104439000Y-113923000D01*
G75*
G02*
X104664000Y-113698000I225000J0D01*
G01*
X105114000Y-113698000D01*
G75*
G02*
X105339000Y-113923000I0J-225000D01*
G01*
X105339000Y-114423000D01*
G75*
G02*
X105114000Y-114648000I-225000J0D01*
G01*
X104664000Y-114648000D01*
G75*
G02*
X104439000Y-114423000I0J225000D01*
G01*
G37*
%TD.AperFunction*%
%TO.P,C1,2*%
%TO.N,GND*%
%TA.AperFunction,SMDPad,CuDef*%
G36*
G01*
X105989000Y-114423000D02*
X105989000Y-113923000D01*
G75*
G02*
X106214000Y-113698000I225000J0D01*
G01*
X106664000Y-113698000D01*
G75*
G02*
X106889000Y-113923000I0J-225000D01*
G01*
X106889000Y-114423000D01*
G75*
G02*
X106664000Y-114648000I-225000J0D01*
G01*
X106214000Y-114648000D01*
G75*
G02*
X105989000Y-114423000I0J225000D01*
G01*
G37*
%TD.AperFunction*%
%TD*%
%TO.P,C2,2*%
%TO.N,GND*%
%TA.AperFunction,SMDPad,CuDef*%
G36*
G01*
X106663300Y-117048400D02*
X106163300Y-117048400D01*
G75*
G02*
X105938300Y-116823400I0J225000D01*
G01*
X105938300Y-116373400D01*
G75*
G02*
X106163300Y-116148400I225000J0D01*
G01*
X106663300Y-116148400D01*
G75*
G02*
X106888300Y-116373400I0J-225000D01*
G01*
X106888300Y-116823400D01*
G75*
G02*
X106663300Y-117048400I-225000J0D01*
G01*
G37*
%TD.AperFunction*%
%TO.P,C2,1*%
%TO.N,1V8*%
%TA.AperFunction,SMDPad,CuDef*%
G36*
G01*
X106663300Y-118598400D02*
X106163300Y-118598400D01*
G75*
G02*
X105938300Y-118373400I0J225000D01*
G01*
X105938300Y-117923400D01*
G75*
G02*
X106163300Y-117698400I225000J0D01*
G01*
X106663300Y-117698400D01*
G75*
G02*
X106888300Y-117923400I0J-225000D01*
G01*
X106888300Y-118373400D01*
G75*
G02*
X106663300Y-118598400I-225000J0D01*
G01*
G37*
%TD.AperFunction*%
%TD*%
%TO.P,R1,2*%
%TO.N,1V8*%
%TA.AperFunction,SMDPad,CuDef*%
G36*
G01*
X104794500Y-125391500D02*
X104794500Y-125941500D01*
G75*
G02*
X104594500Y-126141500I-200000J0D01*
G01*
X104194500Y-126141500D01*
G75*
G02*
X103994500Y-125941500I0J200000D01*
G01*
X103994500Y-125391500D01*
G75*
G02*
X104194500Y-125191500I200000J0D01*
G01*
X104594500Y-125191500D01*
G75*
G02*
X104794500Y-125391500I0J-200000D01*
G01*
G37*
%TD.AperFunction*%
%TO.P,R1,1*%
%TO.N,1V8_RST*%
%TA.AperFunction,SMDPad,CuDef*%
G36*
G01*
X106444500Y-125391500D02*
X106444500Y-125941500D01*
G75*
G02*
X106244500Y-126141500I-200000J0D01*
G01*
X105844500Y-126141500D01*
G75*
G02*
X105644500Y-125941500I0J200000D01*
G01*
X105644500Y-125391500D01*
G75*
G02*
X105844500Y-125191500I200000J0D01*
G01*
X106244500Y-125191500D01*
G75*
G02*
X106444500Y-125391500I0J-200000D01*
G01*
G37*
%TD.AperFunction*%
%TD*%
%TO.P,R2,1*%
%TO.N,3V3_SCL*%
%TA.AperFunction,SMDPad,CuDef*%
G36*
G01*
X109138000Y-101621000D02*
X109138000Y-101071000D01*
G75*
G02*
X109338000Y-100871000I200000J0D01*
G01*
X109738000Y-100871000D01*
G75*
G02*
X109938000Y-101071000I0J-200000D01*
G01*
X109938000Y-101621000D01*
G75*
G02*
X109738000Y-101821000I-200000J0D01*
G01*
X109338000Y-101821000D01*
G75*
G02*
X109138000Y-101621000I0J200000D01*
G01*
G37*
%TD.AperFunction*%
%TO.P,R2,2*%
%TO.N,3V3*%
%TA.AperFunction,SMDPad,CuDef*%
G36*
G01*
X110788000Y-101621000D02*
X110788000Y-101071000D01*
G75*
G02*
X110988000Y-100871000I200000J0D01*
G01*
X111388000Y-100871000D01*
G75*
G02*
X111588000Y-101071000I0J-200000D01*
G01*
X111588000Y-101621000D01*
G75*
G02*
X111388000Y-101821000I-200000J0D01*
G01*
X110988000Y-101821000D01*
G75*
G02*
X110788000Y-101621000I0J200000D01*
G01*
G37*
%TD.AperFunction*%
%TD*%
%TO.P,R3,1*%
%TO.N,1V8_KBDINT*%
%TA.AperFunction,SMDPad,CuDef*%
G36*
G01*
X115781500Y-121303500D02*
X115231500Y-121303500D01*
G75*
G02*
X115031500Y-121103500I0J200000D01*
G01*
X115031500Y-120703500D01*
G75*
G02*
X115231500Y-120503500I200000J0D01*
G01*
X115781500Y-120503500D01*
G75*
G02*
X115981500Y-120703500I0J-200000D01*
G01*
X115981500Y-121103500D01*
G75*
G02*
X115781500Y-121303500I-200000J0D01*
G01*
G37*
%TD.AperFunction*%
%TO.P,R3,2*%
%TO.N,1V8*%
%TA.AperFunction,SMDPad,CuDef*%
G36*
G01*
X115781500Y-119653500D02*
X115231500Y-119653500D01*
G75*
G02*
X115031500Y-119453500I0J200000D01*
G01*
X115031500Y-119053500D01*
G75*
G02*
X115231500Y-118853500I200000J0D01*
G01*
X115781500Y-118853500D01*
G75*
G02*
X115981500Y-119053500I0J-200000D01*
G01*
X115981500Y-119453500D01*
G75*
G02*
X115781500Y-119653500I-200000J0D01*
G01*
G37*
%TD.AperFunction*%
%TD*%
%TO.P,R4,2*%
%TO.N,3V3*%
%TA.AperFunction,SMDPad,CuDef*%
G36*
G01*
X114764000Y-101071000D02*
X114764000Y-101621000D01*
G75*
G02*
X114564000Y-101821000I-200000J0D01*
G01*
X114164000Y-101821000D01*
G75*
G02*
X113964000Y-101621000I0J200000D01*
G01*
X113964000Y-101071000D01*
G75*
G02*
X114164000Y-100871000I200000J0D01*
G01*
X114564000Y-100871000D01*
G75*
G02*
X114764000Y-101071000I0J-200000D01*
G01*
G37*
%TD.AperFunction*%
%TO.P,R4,1*%
%TO.N,3V3_SDA*%
%TA.AperFunction,SMDPad,CuDef*%
G36*
G01*
X116414000Y-101071000D02*
X116414000Y-101621000D01*
G75*
G02*
X116214000Y-101821000I-200000J0D01*
G01*
X115814000Y-101821000D01*
G75*
G02*
X115614000Y-101621000I0J200000D01*
G01*
X115614000Y-101071000D01*
G75*
G02*
X115814000Y-100871000I200000J0D01*
G01*
X116214000Y-100871000D01*
G75*
G02*
X116414000Y-101071000I0J-200000D01*
G01*
G37*
%TD.AperFunction*%
%TD*%
%TO.P,R5,2*%
%TO.N,1V8*%
%TA.AperFunction,SMDPad,CuDef*%
G36*
G01*
X104794500Y-121518000D02*
X104794500Y-122068000D01*
G75*
G02*
X104594500Y-122268000I-200000J0D01*
G01*
X104194500Y-122268000D01*
G75*
G02*
X103994500Y-122068000I0J200000D01*
G01*
X103994500Y-121518000D01*
G75*
G02*
X104194500Y-121318000I200000J0D01*
G01*
X104594500Y-121318000D01*
G75*
G02*
X104794500Y-121518000I0J-200000D01*
G01*
G37*
%TD.AperFunction*%
%TO.P,R5,1*%
%TO.N,1V8_SCL*%
%TA.AperFunction,SMDPad,CuDef*%
G36*
G01*
X106444500Y-121518000D02*
X106444500Y-122068000D01*
G75*
G02*
X106244500Y-122268000I-200000J0D01*
G01*
X105844500Y-122268000D01*
G75*
G02*
X105644500Y-122068000I0J200000D01*
G01*
X105644500Y-121518000D01*
G75*
G02*
X105844500Y-121318000I200000J0D01*
G01*
X106244500Y-121318000D01*
G75*
G02*
X106444500Y-121518000I0J-200000D01*
G01*
G37*
%TD.AperFunction*%
%TD*%
%TO.P,U2,1*%
%TO.N,1V8*%
%TA.AperFunction,SMDPad,CuDef*%
G36*
G01*
X109592500Y-119932000D02*
X109392500Y-119932000D01*
G75*
G02*
X109292500Y-119832000I0J100000D01*
G01*
X109292500Y-118557000D01*
G75*
G02*
X109392500Y-118457000I100000J0D01*
G01*
X109592500Y-118457000D01*
G75*
G02*
X109692500Y-118557000I0J-100000D01*
G01*
X109692500Y-119832000D01*
G75*
G02*
X109592500Y-119932000I-100000J0D01*
G01*
G37*
%TD.AperFunction*%
%TO.P,U2,2*%
%TO.N,1V8_SCL*%
%TA.AperFunction,SMDPad,CuDef*%
G36*
G01*
X110242500Y-119932000D02*
X110042500Y-119932000D01*
G75*
G02*
X109942500Y-119832000I0J100000D01*
G01*
X109942500Y-118557000D01*
G75*
G02*
X110042500Y-118457000I100000J0D01*
G01*
X110242500Y-118457000D01*
G75*
G02*
X110342500Y-118557000I0J-100000D01*
G01*
X110342500Y-119832000D01*
G75*
G02*
X110242500Y-119932000I-100000J0D01*
G01*
G37*
%TD.AperFunction*%
%TO.P,U2,3*%
%TO.N,1V8_SDA*%
%TA.AperFunction,SMDPad,CuDef*%
G36*
G01*
X110892500Y-119932000D02*
X110692500Y-119932000D01*
G75*
G02*
X110592500Y-119832000I0J100000D01*
G01*
X110592500Y-118557000D01*
G75*
G02*
X110692500Y-118457000I100000J0D01*
G01*
X110892500Y-118457000D01*
G75*
G02*
X110992500Y-118557000I0J-100000D01*
G01*
X110992500Y-119832000D01*
G75*
G02*
X110892500Y-119932000I-100000J0D01*
G01*
G37*
%TD.AperFunction*%
%TO.P,U2,4*%
%TO.N,1V8_RST*%
%TA.AperFunction,SMDPad,CuDef*%
G36*
G01*
X111542500Y-119932000D02*
X111342500Y-119932000D01*
G75*
G02*
X111242500Y-119832000I0J100000D01*
G01*
X111242500Y-118557000D01*
G75*
G02*
X111342500Y-118457000I100000J0D01*
G01*
X111542500Y-118457000D01*
G75*
G02*
X111642500Y-118557000I0J-100000D01*
G01*
X111642500Y-119832000D01*
G75*
G02*
X111542500Y-119932000I-100000J0D01*
G01*
G37*
%TD.AperFunction*%
%TO.P,U2,5*%
%TO.N,1V8_KBDINT*%
%TA.AperFunction,SMDPad,CuDef*%
G36*
G01*
X112192500Y-119932000D02*
X111992500Y-119932000D01*
G75*
G02*
X111892500Y-119832000I0J100000D01*
G01*
X111892500Y-118557000D01*
G75*
G02*
X111992500Y-118457000I100000J0D01*
G01*
X112192500Y-118457000D01*
G75*
G02*
X112292500Y-118557000I0J-100000D01*
G01*
X112292500Y-119832000D01*
G75*
G02*
X112192500Y-119932000I-100000J0D01*
G01*
G37*
%TD.AperFunction*%
%TO.P,U2,6*%
%TO.N,Net-(U2-Pad6)*%
%TA.AperFunction,SMDPad,CuDef*%
G36*
G01*
X112842500Y-119932000D02*
X112642500Y-119932000D01*
G75*
G02*
X112542500Y-119832000I0J100000D01*
G01*
X112542500Y-118557000D01*
G75*
G02*
X112642500Y-118457000I100000J0D01*
G01*
X112842500Y-118457000D01*
G75*
G02*
X112942500Y-118557000I0J-100000D01*
G01*
X112942500Y-119832000D01*
G75*
G02*
X112842500Y-119932000I-100000J0D01*
G01*
G37*
%TD.AperFunction*%
%TO.P,U2,7*%
%TO.N,GND*%
%TA.AperFunction,SMDPad,CuDef*%
G36*
G01*
X113492500Y-119932000D02*
X113292500Y-119932000D01*
G75*
G02*
X113192500Y-119832000I0J100000D01*
G01*
X113192500Y-118557000D01*
G75*
G02*
X113292500Y-118457000I100000J0D01*
G01*
X113492500Y-118457000D01*
G75*
G02*
X113592500Y-118557000I0J-100000D01*
G01*
X113592500Y-119832000D01*
G75*
G02*
X113492500Y-119932000I-100000J0D01*
G01*
G37*
%TD.AperFunction*%
%TO.P,U2,8*%
%TA.AperFunction,SMDPad,CuDef*%
G36*
G01*
X113492500Y-114207000D02*
X113292500Y-114207000D01*
G75*
G02*
X113192500Y-114107000I0J100000D01*
G01*
X113192500Y-112832000D01*
G75*
G02*
X113292500Y-112732000I100000J0D01*
G01*
X113492500Y-112732000D01*
G75*
G02*
X113592500Y-112832000I0J-100000D01*
G01*
X113592500Y-114107000D01*
G75*
G02*
X113492500Y-114207000I-100000J0D01*
G01*
G37*
%TD.AperFunction*%
%TO.P,U2,9*%
%TO.N,Net-(U2-Pad9)*%
%TA.AperFunction,SMDPad,CuDef*%
G36*
G01*
X112842500Y-114207000D02*
X112642500Y-114207000D01*
G75*
G02*
X112542500Y-114107000I0J100000D01*
G01*
X112542500Y-112832000D01*
G75*
G02*
X112642500Y-112732000I100000J0D01*
G01*
X112842500Y-112732000D01*
G75*
G02*
X112942500Y-112832000I0J-100000D01*
G01*
X112942500Y-114107000D01*
G75*
G02*
X112842500Y-114207000I-100000J0D01*
G01*
G37*
%TD.AperFunction*%
%TO.P,U2,10*%
%TO.N,3V3_KBDINT*%
%TA.AperFunction,SMDPad,CuDef*%
G36*
G01*
X112192500Y-114207000D02*
X111992500Y-114207000D01*
G75*
G02*
X111892500Y-114107000I0J100000D01*
G01*
X111892500Y-112832000D01*
G75*
G02*
X111992500Y-112732000I100000J0D01*
G01*
X112192500Y-112732000D01*
G75*
G02*
X112292500Y-112832000I0J-100000D01*
G01*
X112292500Y-114107000D01*
G75*
G02*
X112192500Y-114207000I-100000J0D01*
G01*
G37*
%TD.AperFunction*%
%TO.P,U2,11*%
%TO.N,3V3_RST*%
%TA.AperFunction,SMDPad,CuDef*%
G36*
G01*
X111542500Y-114207000D02*
X111342500Y-114207000D01*
G75*
G02*
X111242500Y-114107000I0J100000D01*
G01*
X111242500Y-112832000D01*
G75*
G02*
X111342500Y-112732000I100000J0D01*
G01*
X111542500Y-112732000D01*
G75*
G02*
X111642500Y-112832000I0J-100000D01*
G01*
X111642500Y-114107000D01*
G75*
G02*
X111542500Y-114207000I-100000J0D01*
G01*
G37*
%TD.AperFunction*%
%TO.P,U2,12*%
%TO.N,3V3_SDA*%
%TA.AperFunction,SMDPad,CuDef*%
G36*
G01*
X110892500Y-114207000D02*
X110692500Y-114207000D01*
G75*
G02*
X110592500Y-114107000I0J100000D01*
G01*
X110592500Y-112832000D01*
G75*
G02*
X110692500Y-112732000I100000J0D01*
G01*
X110892500Y-112732000D01*
G75*
G02*
X110992500Y-112832000I0J-100000D01*
G01*
X110992500Y-114107000D01*
G75*
G02*
X110892500Y-114207000I-100000J0D01*
G01*
G37*
%TD.AperFunction*%
%TO.P,U2,13*%
%TO.N,3V3_SCL*%
%TA.AperFunction,SMDPad,CuDef*%
G36*
G01*
X110242500Y-114207000D02*
X110042500Y-114207000D01*
G75*
G02*
X109942500Y-114107000I0J100000D01*
G01*
X109942500Y-112832000D01*
G75*
G02*
X110042500Y-112732000I100000J0D01*
G01*
X110242500Y-112732000D01*
G75*
G02*
X110342500Y-112832000I0J-100000D01*
G01*
X110342500Y-114107000D01*
G75*
G02*
X110242500Y-114207000I-100000J0D01*
G01*
G37*
%TD.AperFunction*%
%TO.P,U2,14*%
%TO.N,3V3*%
%TA.AperFunction,SMDPad,CuDef*%
G36*
G01*
X109592500Y-114207000D02*
X109392500Y-114207000D01*
G75*
G02*
X109292500Y-114107000I0J100000D01*
G01*
X109292500Y-112832000D01*
G75*
G02*
X109392500Y-112732000I100000J0D01*
G01*
X109592500Y-112732000D01*
G75*
G02*
X109692500Y-112832000I0J-100000D01*
G01*
X109692500Y-114107000D01*
G75*
G02*
X109592500Y-114207000I-100000J0D01*
G01*
G37*
%TD.AperFunction*%
%TD*%
D14*
%TO.P,U3,1*%
%TO.N,3V3*%
X104353400Y-115943200D03*
%TO.P,U3,2*%
%TO.N,GND*%
X103403400Y-115943200D03*
%TO.P,U3,3*%
%TO.N,EN*%
X102453400Y-115943200D03*
%TO.P,U3,4*%
%TO.N,Net-(U3-Pad4)*%
X102453400Y-118143200D03*
%TO.P,U3,5*%
%TO.N,1V8*%
X104353400Y-118143200D03*
%TD*%
D12*
%TO.P,J2,1*%
%TO.N,Net-(J2-Pad1)*%
X96215200Y-105752900D03*
D13*
%TO.P,J2,2*%
%TO.N,Net-(J2-Pad2)*%
X96215200Y-108292900D03*
%TD*%
D12*
%TO.P,J3,1*%
%TO.N,Enc_CLK*%
X97104200Y-116535200D03*
D13*
%TO.P,J3,2*%
%TO.N,Enc_DT*%
X97104200Y-119075200D03*
%TO.P,J3,3*%
%TO.N,Enc_SW*%
X97104200Y-121615200D03*
%TO.P,J3,4*%
%TO.N,3V3*%
X97104200Y-124155200D03*
%TO.P,J3,5*%
%TO.N,GND*%
X97104200Y-126695200D03*
%TD*%
D15*
%TO.P,U1,1*%
%TO.N,SDA*%
X121285000Y-94234000D03*
%TO.P,U1,2*%
%TO.N,SCL*%
X123825000Y-94234000D03*
%TO.P,U1,3*%
%TO.N,3V3*%
X126365000Y-94234000D03*
%TO.P,U1,4*%
%TO.N,GND*%
X128905000Y-94234000D03*
%TD*%
%TO.P,U5,17*%
%TO.N,3V3_SDA*%
X116205000Y-97536000D03*
%TO.P,U5,18*%
%TO.N,3V3_SCL*%
X116205000Y-94996000D03*
%TO.P,U5,19*%
%TO.N,3V3_RST*%
X116205000Y-92456000D03*
%TO.P,U5,20*%
%TO.N,3V3_KBDINT*%
X116205000Y-89916000D03*
%TO.P,U5,21*%
%TO.N,SDA*%
X116205000Y-87376000D03*
%TO.P,U5,22*%
%TO.N,SCL*%
X116205000Y-84836000D03*
%TO.P,U5,23*%
%TO.N,D_CS*%
X116205000Y-82296000D03*
%TO.P,U5,24*%
%TO.N,T_CS*%
X116205000Y-79756000D03*
%TO.P,U5,25*%
%TO.N,T_IRQ*%
X116205000Y-77216000D03*
%TO.P,U5,26*%
%TO.N,Net-(U5-Pad26)*%
X116205000Y-74676000D03*
%TO.P,U5,27*%
%TO.N,EN*%
X116205000Y-72136000D03*
%TO.P,U5,28*%
%TO.N,Net-(U5-Pad28)*%
X116205000Y-69596000D03*
%TO.P,U5,16*%
%TO.N,Net-(U5-Pad16)*%
X95885000Y-97536000D03*
%TO.P,U5,15*%
%TO.N,Net-(J2-Pad1)*%
X95885000Y-94996000D03*
%TO.P,U5,14*%
%TO.N,Net-(J2-Pad2)*%
X95885000Y-92456000D03*
%TO.P,U5,13*%
%TO.N,MISO*%
X95885000Y-89916000D03*
%TO.P,U5,12*%
%TO.N,MOSI*%
X95885000Y-87376000D03*
%TO.P,U5,11*%
%TO.N,SCK*%
X95885000Y-84836000D03*
%TO.P,U5,10*%
%TO.N,D_DC*%
X95885000Y-82296000D03*
%TO.P,U5,9*%
%TO.N,Enc_CLK*%
X95885000Y-79756000D03*
%TO.P,U5,8*%
%TO.N,Enc_DT*%
X95885000Y-77216000D03*
%TO.P,U5,7*%
%TO.N,Enc_SW*%
X95885000Y-74676000D03*
%TO.P,U5,6*%
%TO.N,Net-(U5-Pad6)*%
X95885000Y-72136000D03*
%TO.P,U5,5*%
%TO.N,Net-(U5-Pad5)*%
X95885000Y-69596000D03*
%TO.P,U5,4*%
%TO.N,GND*%
X95885000Y-67056000D03*
%TO.P,U5,3*%
%TO.N,Net-(U5-Pad3)*%
X95885000Y-64516000D03*
%TO.P,U5,2*%
%TO.N,3V3*%
X95885000Y-61976000D03*
%TO.P,U5,1*%
%TO.N,RST*%
X95885000Y-59436000D03*
%TD*%
%TO.P,C3,1*%
%TO.N,GND*%
%TA.AperFunction,SMDPad,CuDef*%
G36*
G01*
X115256500Y-114993000D02*
X115756500Y-114993000D01*
G75*
G02*
X115981500Y-115218000I0J-225000D01*
G01*
X115981500Y-115668000D01*
G75*
G02*
X115756500Y-115893000I-225000J0D01*
G01*
X115256500Y-115893000D01*
G75*
G02*
X115031500Y-115668000I0J225000D01*
G01*
X115031500Y-115218000D01*
G75*
G02*
X115256500Y-114993000I225000J0D01*
G01*
G37*
%TD.AperFunction*%
%TO.P,C3,2*%
%TO.N,1V8*%
%TA.AperFunction,SMDPad,CuDef*%
G36*
G01*
X115256500Y-116543000D02*
X115756500Y-116543000D01*
G75*
G02*
X115981500Y-116768000I0J-225000D01*
G01*
X115981500Y-117218000D01*
G75*
G02*
X115756500Y-117443000I-225000J0D01*
G01*
X115256500Y-117443000D01*
G75*
G02*
X115031500Y-117218000I0J225000D01*
G01*
X115031500Y-116768000D01*
G75*
G02*
X115256500Y-116543000I225000J0D01*
G01*
G37*
%TD.AperFunction*%
%TD*%
D16*
%TO.N,T_IRQ*%
X125399800Y-83007200D03*
%TO.N,MISO*%
X107061000Y-89662000D03*
%TO.N,MOSI*%
X108077000Y-87376000D03*
%TO.N,3V3*%
X103695500Y-112966500D03*
X112331500Y-103060500D03*
%TO.N,1V8*%
X107950000Y-117411500D03*
X117056500Y-116993000D03*
%TO.N,1V8_RST*%
X109156500Y-125666500D03*
X114935000Y-125666500D03*
%TO.N,1V8_SDA*%
X107950000Y-123698000D03*
X111696500Y-123698000D03*
%TO.N,EN*%
X105613200Y-91363800D03*
%TD*%
D17*
%TO.N,ROW0*%
X144602200Y-105486200D02*
X165608000Y-105486200D01*
X165608000Y-105486200D02*
X186613800Y-105486200D01*
X186613800Y-105486200D02*
X207619600Y-105486200D01*
X119570500Y-110490000D02*
X119570500Y-110744000D01*
X129743200Y-105486200D02*
X144602200Y-105486200D01*
X128174750Y-103917750D02*
X129743200Y-105486200D01*
X123761500Y-106235500D02*
X126079250Y-103917750D01*
X126079250Y-103917750D02*
X128174750Y-103917750D01*
X123761500Y-108077000D02*
X123761500Y-106235500D01*
X121094500Y-110744000D02*
X123761500Y-108077000D01*
X119570500Y-110744000D02*
X121094500Y-110744000D01*
%TO.N,ROW1*%
X144602200Y-126212600D02*
X165608000Y-126212600D01*
X165608000Y-126212600D02*
X186613800Y-126212600D01*
X186613800Y-126212600D02*
X207619600Y-126212600D01*
X144602200Y-125425200D02*
X144602200Y-126212600D01*
X134747000Y-113220500D02*
X134747000Y-115570000D01*
X127190500Y-105664000D02*
X134747000Y-113220500D01*
X134747000Y-115570000D02*
X144602200Y-125425200D01*
%TO.N,COL1*%
X172440600Y-134696200D02*
X178384200Y-128752600D01*
X155714700Y-134696200D02*
X172440600Y-134696200D01*
X135636000Y-120624600D02*
X144208500Y-129197100D01*
X150215600Y-129197100D02*
X155714700Y-134696200D01*
X144208500Y-129197100D02*
X150215600Y-129197100D01*
X178384200Y-128752600D02*
X180263800Y-128752600D01*
X135636000Y-119189500D02*
X135636000Y-119697500D01*
X127190500Y-110744000D02*
X135636000Y-119189500D01*
X135636000Y-119697500D02*
X135636000Y-120624600D01*
%TO.N,COL0*%
X201269600Y-128752600D02*
X199796400Y-128752600D01*
X199796400Y-128752600D02*
X192684400Y-135864600D01*
X137515600Y-135864600D02*
X141452600Y-135864600D01*
X130810000Y-129159000D02*
X137515600Y-135864600D01*
X141452600Y-135864600D02*
X138366500Y-135864600D01*
X192684400Y-135864600D02*
X141452600Y-135864600D01*
X130810000Y-116903500D02*
X130810000Y-118110000D01*
X127190500Y-113284000D02*
X130810000Y-116903500D01*
X130810000Y-118110000D02*
X130810000Y-129159000D01*
%TO.N,T_IRQ*%
X134696200Y-92303600D02*
X125399800Y-83007200D01*
X138734800Y-92303600D02*
X134696200Y-92303600D01*
%TO.N,MISO*%
X96139000Y-89662000D02*
X95885000Y-89916000D01*
X107061000Y-89662000D02*
X96139000Y-89662000D01*
%TO.N,MOSI*%
X95885000Y-87376000D02*
X108077000Y-87376000D01*
X142284450Y-75533250D02*
X141897100Y-75145900D01*
X142284450Y-83673950D02*
X142284450Y-75533250D01*
X138734800Y-71983600D02*
X141897100Y-75145900D01*
X142284450Y-83673950D02*
X138734800Y-87223600D01*
%TO.N,SCK*%
X95707200Y-84912200D02*
X99504500Y-81114900D01*
X99504500Y-81114900D02*
X99898200Y-81114900D01*
X138734800Y-82143600D02*
X137706100Y-81114900D01*
X117525800Y-81114900D02*
X117983000Y-81114900D01*
X99898200Y-81114900D02*
X117525800Y-81114900D01*
X132143500Y-81114900D02*
X131356100Y-81114900D01*
X131356100Y-81114900D02*
X117525800Y-81114900D01*
X132626100Y-81114900D02*
X131356100Y-81114900D01*
X132473700Y-80962500D02*
X132626100Y-81114900D01*
X137706100Y-81114900D02*
X132626100Y-81114900D01*
X138734800Y-74523600D02*
X132473700Y-80784700D01*
X132473700Y-80784700D02*
X132473700Y-80962500D01*
X132473700Y-80784700D02*
X132143500Y-81114900D01*
%TO.N,D_CS*%
X116001800Y-82397600D02*
X116027200Y-82372200D01*
D18*
%TO.N,3V3*%
X111188000Y-101346000D02*
X112903000Y-101346000D01*
X114364000Y-101346000D02*
X112903000Y-101346000D01*
X121285500Y-100901500D02*
X121285000Y-100901000D01*
X122555000Y-100901500D02*
X121285500Y-100901500D01*
X123824500Y-100901500D02*
X123825000Y-100901000D01*
X122555000Y-100901500D02*
X123824500Y-100901500D01*
X104889000Y-115407600D02*
X104353400Y-115943200D01*
X104889000Y-114173000D02*
X104889000Y-115407600D01*
X105792500Y-113269500D02*
X104889000Y-114173000D01*
X109073000Y-113050000D02*
X106012000Y-113050000D01*
X106012000Y-113050000D02*
X105792500Y-113269500D01*
X109492500Y-113469500D02*
X109073000Y-113050000D01*
X126365000Y-94234000D02*
X126365000Y-99695000D01*
X125159000Y-100901000D02*
X123825000Y-100901000D01*
X126365000Y-99695000D02*
X125159000Y-100901000D01*
D19*
X95885000Y-61976000D02*
X94678500Y-61976000D01*
X94678500Y-61976000D02*
X94043500Y-61341000D01*
X94043500Y-61341000D02*
X94043500Y-58547000D01*
X94043500Y-58547000D02*
X94869000Y-57721500D01*
X137172700Y-57721500D02*
X138734800Y-59283600D01*
X94869000Y-57721500D02*
X137172700Y-57721500D01*
D18*
X104889000Y-114160000D02*
X103695500Y-112966500D01*
X104889000Y-114173000D02*
X104889000Y-114160000D01*
X112903000Y-102489000D02*
X112331500Y-103060500D01*
X112903000Y-101346000D02*
X112903000Y-102489000D01*
%TO.N,1V8*%
X119545400Y-118338900D02*
X119570500Y-118364000D01*
X106408100Y-118143200D02*
X106413300Y-118148400D01*
X104353400Y-118143200D02*
X106408100Y-118143200D01*
X118199500Y-116993000D02*
X119570500Y-118364000D01*
X104394500Y-123729750D02*
X104394500Y-121793000D01*
X104394500Y-125666500D02*
X104394500Y-123729750D01*
X104353400Y-121751900D02*
X104394500Y-121793000D01*
X104353400Y-118143200D02*
X104353400Y-121751900D01*
D17*
X115506500Y-119253500D02*
X115506500Y-116993000D01*
D18*
X106413300Y-118148400D02*
X107201600Y-118148400D01*
X107216400Y-118148400D02*
X108262500Y-119194500D01*
X107201600Y-118148400D02*
X107216400Y-118148400D01*
X109492500Y-119194500D02*
X108262500Y-119194500D01*
X107216400Y-118145100D02*
X107950000Y-117411500D01*
X107216400Y-118148400D02*
X107216400Y-118145100D01*
X117056500Y-116993000D02*
X118199500Y-116993000D01*
X115506500Y-116993000D02*
X117056500Y-116993000D01*
D17*
%TO.N,3V3_RST*%
X111404400Y-113507600D02*
X111404400Y-114245100D01*
X116205000Y-92456000D02*
X118300500Y-94551500D01*
X118300500Y-94551500D02*
X118300500Y-101854000D01*
X111442500Y-108712000D02*
X111442500Y-109918500D01*
X118300500Y-101854000D02*
X111442500Y-108712000D01*
X111442500Y-109918500D02*
X111442500Y-109537500D01*
X111442500Y-113469500D02*
X111442500Y-109918500D01*
%TO.N,1V8_RST*%
X125095000Y-131064000D02*
X127190500Y-131064000D01*
X118173500Y-127254000D02*
X121285000Y-127254000D01*
X121285000Y-127254000D02*
X125095000Y-131064000D01*
X111442500Y-119194500D02*
X111442500Y-120523000D01*
X106044500Y-125666500D02*
X109156500Y-125666500D01*
X115728750Y-124872750D02*
X115728750Y-124809250D01*
X114935000Y-125666500D02*
X115728750Y-124872750D01*
X115728750Y-124809250D02*
X118173500Y-127254000D01*
X111442500Y-120523000D02*
X115728750Y-124809250D01*
%TO.N,3V3_SCL*%
X116205000Y-94996000D02*
X114681000Y-94996000D01*
X109538000Y-100139000D02*
X109538000Y-101346000D01*
X114681000Y-94996000D02*
X109538000Y-100139000D01*
X110142500Y-113469500D02*
X110142500Y-112492000D01*
X109538000Y-111887500D02*
X109538000Y-102299000D01*
X110142500Y-112492000D02*
X109538000Y-111887500D01*
X109538000Y-102299000D02*
X109538000Y-101346000D01*
X109538000Y-102933000D02*
X109538000Y-102299000D01*
%TO.N,1V8_KBDINT*%
X112092500Y-119194500D02*
X112092500Y-119932000D01*
X112092500Y-119194500D02*
X112092500Y-120157000D01*
X112092500Y-120157000D02*
X112839500Y-120904000D01*
X115506000Y-120904000D02*
X115506500Y-120903500D01*
X112839500Y-120904000D02*
X115506000Y-120904000D01*
X115507000Y-120904000D02*
X115506500Y-120903500D01*
X119570500Y-120904000D02*
X115507000Y-120904000D01*
%TO.N,3V3_SDA*%
X116027200Y-101332800D02*
X116014000Y-101346000D01*
X116027200Y-97612200D02*
X116027200Y-101332800D01*
X116014000Y-101537000D02*
X116014000Y-101346000D01*
X110792500Y-106758500D02*
X111379000Y-106172000D01*
X110792500Y-113469500D02*
X110792500Y-106758500D01*
X111379000Y-106172000D02*
X116014000Y-101537000D01*
%TO.N,1V8_SCL*%
X119570500Y-136144000D02*
X110142500Y-126716000D01*
X110112500Y-121793000D02*
X110142500Y-121763000D01*
X106044500Y-121793000D02*
X110112500Y-121793000D01*
X110142500Y-121763000D02*
X110142500Y-119194500D01*
X110142500Y-126716000D02*
X110142500Y-121763000D01*
D20*
%TO.N,1V8_SDA*%
X110845600Y-119323800D02*
X110754400Y-119232600D01*
D17*
X110792500Y-121143000D02*
X110792500Y-119194500D01*
X119570500Y-133604000D02*
X117284500Y-131318000D01*
X107918250Y-123729750D02*
X107950000Y-123698000D01*
X106044500Y-123729750D02*
X107918250Y-123729750D01*
X112522000Y-122872500D02*
X110792500Y-121143000D01*
X111696500Y-123698000D02*
X112522000Y-122872500D01*
X113284000Y-125793500D02*
X117284500Y-129794000D01*
X113284000Y-123634500D02*
X113284000Y-125793500D01*
X117284500Y-131318000D02*
X117284500Y-129794000D01*
X113284000Y-123634500D02*
X112522000Y-122872500D01*
%TO.N,3V3_KBDINT*%
X117792500Y-89916000D02*
X116205000Y-89916000D01*
X119697500Y-91821000D02*
X117792500Y-89916000D01*
X119697500Y-102235000D02*
X119697500Y-91821000D01*
X112092500Y-109840000D02*
X119697500Y-102235000D01*
X112092500Y-113469500D02*
X112092500Y-109840000D01*
%TO.N,EN*%
X102453400Y-94523600D02*
X102933500Y-94043500D01*
X102453400Y-115943200D02*
X102453400Y-94523600D01*
X102933500Y-94043500D02*
X105613200Y-91363800D01*
%TO.N,Net-(J2-Pad1)*%
X96215200Y-105752900D02*
X96278700Y-105752900D01*
X96278700Y-105752900D02*
X97396300Y-104635300D01*
X97396300Y-96761300D02*
X95707200Y-95072200D01*
X97396300Y-104635300D02*
X97396300Y-96761300D01*
%TO.N,Net-(J2-Pad2)*%
X94399100Y-93840300D02*
X95707200Y-92532200D01*
X94399100Y-106476800D02*
X94399100Y-93840300D01*
X96215200Y-108292900D02*
X94399100Y-106476800D01*
%TO.N,Enc_CLK*%
X94837250Y-80702150D02*
X95707200Y-79832200D01*
X93865700Y-113296700D02*
X93865700Y-81673700D01*
X93865700Y-81673700D02*
X94837250Y-80702150D01*
X97104200Y-116535200D02*
X93865700Y-113296700D01*
%TO.N,Enc_DT*%
X97002600Y-119075200D02*
X97104200Y-119075200D01*
X93256100Y-79743300D02*
X93256100Y-115328700D01*
X93256100Y-115328700D02*
X97002600Y-119075200D01*
X95707200Y-77292200D02*
X93256100Y-79743300D01*
%TO.N,Enc_SW*%
X93205300Y-117716300D02*
X97104200Y-121615200D01*
X92608400Y-117119400D02*
X93205300Y-117716300D01*
X92608400Y-77851000D02*
X92608400Y-117119400D01*
X95707200Y-74752200D02*
X92608400Y-77851000D01*
%TO.N,SDA*%
X116205000Y-87376000D02*
X117221000Y-87376000D01*
X121285000Y-91440000D02*
X121285000Y-91694000D01*
X121285000Y-91490800D02*
X121285000Y-91694000D01*
X121285000Y-94234000D02*
X121285000Y-99251000D01*
X121285000Y-91948000D02*
X121285000Y-88392000D01*
X121285000Y-91694000D02*
X121285000Y-91948000D01*
X121285000Y-91948000D02*
X121285000Y-94234000D01*
X120269000Y-87376000D02*
X116205000Y-87376000D01*
X121285000Y-88392000D02*
X120269000Y-87376000D01*
%TO.N,SCL*%
X116014500Y-84924900D02*
X116027200Y-84912200D01*
X123825000Y-94234000D02*
X123825000Y-99251000D01*
X118561289Y-84765711D02*
X116275289Y-84765711D01*
X122230711Y-84765711D02*
X118561289Y-84765711D01*
X123825000Y-86360000D02*
X122230711Y-84765711D01*
X123825000Y-94234000D02*
X123825000Y-86360000D01*
%TO.N,D_DC*%
X138734800Y-69443600D02*
X120624600Y-69443600D01*
X120624600Y-69443600D02*
X118491000Y-67310000D01*
X110871000Y-67310000D02*
X108458000Y-69723000D01*
X118491000Y-67310000D02*
X110871000Y-67310000D01*
X108458000Y-69723000D02*
X110236000Y-67945000D01*
X95885000Y-82296000D02*
X108458000Y-69723000D01*
D19*
%TO.N,GND*%
X95707200Y-67132200D02*
X95973900Y-67132200D01*
D17*
X106426000Y-116585700D02*
X106413300Y-116598400D01*
D18*
X106413300Y-114198700D02*
X106439000Y-114173000D01*
X106413300Y-116598400D02*
X106413300Y-114198700D01*
X103403400Y-115943200D02*
X103403400Y-116484400D01*
X103403400Y-116484400D02*
X104013000Y-117094000D01*
X105917700Y-117094000D02*
X106413300Y-116598400D01*
X104013000Y-117094000D02*
X105917700Y-117094000D01*
X103403400Y-120396000D02*
X97104200Y-126695200D01*
X103403400Y-116484400D02*
X103403400Y-120396000D01*
D17*
X115506500Y-115443000D02*
X116649500Y-115443000D01*
X116649500Y-115443000D02*
X117538500Y-114554000D01*
X123380500Y-114554000D02*
X127190500Y-118364000D01*
X117538500Y-114554000D02*
X123380500Y-114554000D01*
X113392500Y-112748078D02*
X113392500Y-113469500D01*
D18*
X145478500Y-94932500D02*
X137985500Y-102425500D01*
X145478500Y-68567300D02*
X145478500Y-94932500D01*
X138734800Y-61823600D02*
X145478500Y-68567300D01*
X113392500Y-113469500D02*
X113392500Y-111524500D01*
X122491500Y-102425500D02*
X124841000Y-102425500D01*
X113392500Y-111524500D02*
X122491500Y-102425500D01*
X124841000Y-102425500D02*
X123715078Y-102425500D01*
X128905000Y-102362000D02*
X128968500Y-102425500D01*
X128905000Y-94234000D02*
X128905000Y-102362000D01*
X128968500Y-102425500D02*
X124841000Y-102425500D01*
X137985500Y-102425500D02*
X128968500Y-102425500D01*
D19*
X95885000Y-67056000D02*
X92710000Y-63881000D01*
X92710000Y-58610500D02*
X92710000Y-57848500D01*
X92710000Y-63881000D02*
X92710000Y-58610500D01*
X92710000Y-58610500D02*
X92710000Y-57912000D01*
X92710000Y-57848500D02*
X94107000Y-56451500D01*
X94107000Y-56451500D02*
X139827000Y-56451500D01*
X139827000Y-56451500D02*
X140906500Y-57531000D01*
X140906500Y-59651900D02*
X138734800Y-61823600D01*
X140906500Y-57531000D02*
X140906500Y-59651900D01*
D18*
X91630500Y-121221500D02*
X97104200Y-126695200D01*
X91630500Y-71310500D02*
X91630500Y-121221500D01*
X95885000Y-67056000D02*
X91630500Y-71310500D01*
X107568700Y-115443000D02*
X107251350Y-115760350D01*
X107251350Y-115760350D02*
X106413300Y-116598400D01*
X107473450Y-115538250D02*
X107251350Y-115760350D01*
X113392500Y-115398000D02*
X113347500Y-115443000D01*
X113392500Y-113469500D02*
X113392500Y-115398000D01*
X113347500Y-115443000D02*
X107568700Y-115443000D01*
X115506500Y-115443000D02*
X113347500Y-115443000D01*
X113392500Y-118255500D02*
X113392500Y-119194500D01*
X113392500Y-115398000D02*
X113392500Y-118255500D01*
D17*
%TO.N,RST*%
X95707200Y-59512200D02*
X118122700Y-59512200D01*
X125514100Y-66903600D02*
X138734800Y-66903600D01*
X118122700Y-59512200D02*
X125514100Y-66903600D01*
%TD*%
M02*
