%TF.GenerationSoftware,KiCad,Pcbnew,(5.1.9)-1*%
%TF.CreationDate,2021-04-10T21:56:04-07:00*%
%TF.ProjectId,Keyboard Proto,4b657962-6f61-4726-9420-50726f746f2e,rev?*%
%TF.SameCoordinates,Original*%
%TF.FileFunction,Soldermask,Top*%
%TF.FilePolarity,Negative*%
%FSLAX46Y46*%
G04 Gerber Fmt 4.6, Leading zero omitted, Abs format (unit mm)*
G04 Created by KiCad (PCBNEW (5.1.9)-1) date 2021-04-10 21:56:04*
%MOMM*%
%LPD*%
G01*
G04 APERTURE LIST*
%ADD10R,2.000000X2.000000*%
%ADD11C,1.778000*%
%ADD12C,1.700000*%
%ADD13C,4.000000*%
%ADD14C,2.200000*%
%ADD15O,1.700000X1.700000*%
%ADD16R,1.700000X1.700000*%
%ADD17R,2.200000X2.200000*%
%ADD18R,0.400000X0.200000*%
%ADD19R,0.200000X0.400000*%
G04 APERTURE END LIST*
%TO.C,R5*%
G36*
G01*
X105683500Y-111358000D02*
X105683500Y-111908000D01*
G75*
G02*
X105483500Y-112108000I-200000J0D01*
G01*
X105083500Y-112108000D01*
G75*
G02*
X104883500Y-111908000I0J200000D01*
G01*
X104883500Y-111358000D01*
G75*
G02*
X105083500Y-111158000I200000J0D01*
G01*
X105483500Y-111158000D01*
G75*
G02*
X105683500Y-111358000I0J-200000D01*
G01*
G37*
G36*
G01*
X107333500Y-111358000D02*
X107333500Y-111908000D01*
G75*
G02*
X107133500Y-112108000I-200000J0D01*
G01*
X106733500Y-112108000D01*
G75*
G02*
X106533500Y-111908000I0J200000D01*
G01*
X106533500Y-111358000D01*
G75*
G02*
X106733500Y-111158000I200000J0D01*
G01*
X107133500Y-111158000D01*
G75*
G02*
X107333500Y-111358000I0J-200000D01*
G01*
G37*
%TD*%
D10*
%TO.C,TP2*%
X111760000Y-108077000D03*
%TD*%
%TO.C,TP1*%
X118427500Y-108077000D03*
%TD*%
D11*
%TO.C,U1*%
X128905000Y-94234000D03*
X126365000Y-94234000D03*
X123825000Y-94234000D03*
X121285000Y-94234000D03*
%TD*%
D12*
%TO.C,S1*%
X189153800Y-131292600D03*
X178993800Y-131292600D03*
D13*
X184073800Y-131292600D03*
D14*
X180263800Y-128752600D03*
X186613800Y-126212600D03*
%TD*%
D11*
%TO.C,U5*%
X95885000Y-59436000D03*
X95885000Y-61976000D03*
X95885000Y-64516000D03*
X95885000Y-67056000D03*
X95885000Y-69596000D03*
X95885000Y-72136000D03*
X95885000Y-74676000D03*
X95885000Y-77216000D03*
X95885000Y-79756000D03*
X95885000Y-82296000D03*
X95885000Y-84836000D03*
X95885000Y-87376000D03*
X95885000Y-89916000D03*
X95885000Y-92456000D03*
X95885000Y-94996000D03*
X95885000Y-97536000D03*
X116205000Y-69596000D03*
X116205000Y-72136000D03*
X116205000Y-74676000D03*
X116205000Y-77216000D03*
X116205000Y-79756000D03*
X116205000Y-82296000D03*
X116205000Y-84836000D03*
X116205000Y-87376000D03*
X116205000Y-89916000D03*
X116205000Y-92456000D03*
X116205000Y-94996000D03*
X116205000Y-97536000D03*
%TD*%
D12*
%TO.C,Q1*%
X168148000Y-110566200D03*
X157988000Y-110566200D03*
D13*
X163068000Y-110566200D03*
D14*
X159258000Y-108026200D03*
X165608000Y-105486200D03*
%TD*%
D12*
%TO.C,A1*%
X168148000Y-131292600D03*
X157988000Y-131292600D03*
D13*
X163068000Y-131292600D03*
D14*
X159258000Y-128752600D03*
X165608000Y-126212600D03*
%TD*%
D12*
%TO.C,D1*%
X210159600Y-131292600D03*
X199999600Y-131292600D03*
D13*
X205079600Y-131292600D03*
D14*
X201269600Y-128752600D03*
X207619600Y-126212600D03*
%TD*%
D12*
%TO.C,Shift1*%
X147142200Y-110566200D03*
X136982200Y-110566200D03*
D13*
X142062200Y-110566200D03*
D14*
X138252200Y-108026200D03*
X144602200Y-105486200D03*
%TD*%
D12*
%TO.C,Ctrl1*%
X147142200Y-131292600D03*
X136982200Y-131292600D03*
D13*
X142062200Y-131292600D03*
D14*
X138252200Y-128752600D03*
X144602200Y-126212600D03*
%TD*%
D12*
%TO.C,E1*%
X210159600Y-110566200D03*
X199999600Y-110566200D03*
D13*
X205079600Y-110566200D03*
D14*
X201269600Y-108026200D03*
X207619600Y-105486200D03*
%TD*%
D12*
%TO.C,W1*%
X189153800Y-110566200D03*
X178993800Y-110566200D03*
D13*
X184073800Y-110566200D03*
D14*
X180263800Y-108026200D03*
X186613800Y-105486200D03*
%TD*%
D15*
%TO.C,J1*%
X138734800Y-92303600D03*
X138734800Y-89763600D03*
X138734800Y-87223600D03*
X138734800Y-84683600D03*
X138734800Y-82143600D03*
X138734800Y-79603600D03*
X138734800Y-77063600D03*
X138734800Y-74523600D03*
X138734800Y-71983600D03*
X138734800Y-69443600D03*
X138734800Y-66903600D03*
X138734800Y-64363600D03*
X138734800Y-61823600D03*
D16*
X138734800Y-59283600D03*
%TD*%
%TO.C,R3*%
G36*
G01*
X114764000Y-101071000D02*
X114764000Y-101621000D01*
G75*
G02*
X114564000Y-101821000I-200000J0D01*
G01*
X114164000Y-101821000D01*
G75*
G02*
X113964000Y-101621000I0J200000D01*
G01*
X113964000Y-101071000D01*
G75*
G02*
X114164000Y-100871000I200000J0D01*
G01*
X114564000Y-100871000D01*
G75*
G02*
X114764000Y-101071000I0J-200000D01*
G01*
G37*
G36*
G01*
X116414000Y-101071000D02*
X116414000Y-101621000D01*
G75*
G02*
X116214000Y-101821000I-200000J0D01*
G01*
X115814000Y-101821000D01*
G75*
G02*
X115614000Y-101621000I0J200000D01*
G01*
X115614000Y-101071000D01*
G75*
G02*
X115814000Y-100871000I200000J0D01*
G01*
X116214000Y-100871000D01*
G75*
G02*
X116414000Y-101071000I0J-200000D01*
G01*
G37*
%TD*%
%TO.C,R4*%
G36*
G01*
X110788000Y-101621000D02*
X110788000Y-101071000D01*
G75*
G02*
X110988000Y-100871000I200000J0D01*
G01*
X111388000Y-100871000D01*
G75*
G02*
X111588000Y-101071000I0J-200000D01*
G01*
X111588000Y-101621000D01*
G75*
G02*
X111388000Y-101821000I-200000J0D01*
G01*
X110988000Y-101821000D01*
G75*
G02*
X110788000Y-101621000I0J200000D01*
G01*
G37*
G36*
G01*
X109138000Y-101621000D02*
X109138000Y-101071000D01*
G75*
G02*
X109338000Y-100871000I200000J0D01*
G01*
X109738000Y-100871000D01*
G75*
G02*
X109938000Y-101071000I0J-200000D01*
G01*
X109938000Y-101621000D01*
G75*
G02*
X109738000Y-101821000I-200000J0D01*
G01*
X109338000Y-101821000D01*
G75*
G02*
X109138000Y-101621000I0J200000D01*
G01*
G37*
%TD*%
D15*
%TO.C,J2*%
X96215200Y-108292900D03*
D16*
X96215200Y-105752900D03*
%TD*%
D15*
%TO.C,J3*%
X97104200Y-126695200D03*
X97104200Y-124155200D03*
X97104200Y-121615200D03*
X97104200Y-119075200D03*
D16*
X97104200Y-116535200D03*
%TD*%
%TO.C,R1*%
G36*
G01*
X121010000Y-100501000D02*
X121560000Y-100501000D01*
G75*
G02*
X121760000Y-100701000I0J-200000D01*
G01*
X121760000Y-101101000D01*
G75*
G02*
X121560000Y-101301000I-200000J0D01*
G01*
X121010000Y-101301000D01*
G75*
G02*
X120810000Y-101101000I0J200000D01*
G01*
X120810000Y-100701000D01*
G75*
G02*
X121010000Y-100501000I200000J0D01*
G01*
G37*
G36*
G01*
X121010000Y-98851000D02*
X121560000Y-98851000D01*
G75*
G02*
X121760000Y-99051000I0J-200000D01*
G01*
X121760000Y-99451000D01*
G75*
G02*
X121560000Y-99651000I-200000J0D01*
G01*
X121010000Y-99651000D01*
G75*
G02*
X120810000Y-99451000I0J200000D01*
G01*
X120810000Y-99051000D01*
G75*
G02*
X121010000Y-98851000I200000J0D01*
G01*
G37*
%TD*%
%TO.C,R2*%
G36*
G01*
X123550000Y-100501000D02*
X124100000Y-100501000D01*
G75*
G02*
X124300000Y-100701000I0J-200000D01*
G01*
X124300000Y-101101000D01*
G75*
G02*
X124100000Y-101301000I-200000J0D01*
G01*
X123550000Y-101301000D01*
G75*
G02*
X123350000Y-101101000I0J200000D01*
G01*
X123350000Y-100701000D01*
G75*
G02*
X123550000Y-100501000I200000J0D01*
G01*
G37*
G36*
G01*
X123550000Y-98851000D02*
X124100000Y-98851000D01*
G75*
G02*
X124300000Y-99051000I0J-200000D01*
G01*
X124300000Y-99451000D01*
G75*
G02*
X124100000Y-99651000I-200000J0D01*
G01*
X123550000Y-99651000D01*
G75*
G02*
X123350000Y-99451000I0J200000D01*
G01*
X123350000Y-99051000D01*
G75*
G02*
X123550000Y-98851000I200000J0D01*
G01*
G37*
%TD*%
D17*
%TO.C,U2*%
X114871500Y-120409500D03*
D18*
X116421500Y-119409500D03*
X116421500Y-121009500D03*
X116421500Y-120609500D03*
X116421500Y-121409500D03*
X116421500Y-120209500D03*
X116421500Y-119809500D03*
D19*
X114271500Y-121959500D03*
X115871500Y-121959500D03*
X114671500Y-121959500D03*
X115071500Y-121959500D03*
X115471500Y-121959500D03*
X113871500Y-121959500D03*
D18*
X113321500Y-121009500D03*
X113321500Y-119409500D03*
X113321500Y-120609500D03*
X113321500Y-120209500D03*
X113321500Y-119809500D03*
X113321500Y-121409500D03*
D19*
X115471500Y-118859500D03*
X115871500Y-118859500D03*
X115071500Y-118859500D03*
X114671500Y-118859500D03*
X114271500Y-118859500D03*
X113871500Y-118859500D03*
%TD*%
M02*
