%TF.GenerationSoftware,KiCad,Pcbnew,(5.1.9)-1*%
%TF.CreationDate,2021-04-10T21:56:04-07:00*%
%TF.ProjectId,Keyboard Proto,4b657962-6f61-4726-9420-50726f746f2e,rev?*%
%TF.SameCoordinates,Original*%
%TF.FileFunction,Paste,Top*%
%TF.FilePolarity,Positive*%
%FSLAX46Y46*%
G04 Gerber Fmt 4.6, Leading zero omitted, Abs format (unit mm)*
G04 Created by KiCad (PCBNEW (5.1.9)-1) date 2021-04-10 21:56:04*
%MOMM*%
%LPD*%
G01*
G04 APERTURE LIST*
%ADD10R,2.200000X2.200000*%
%ADD11R,0.400000X0.200000*%
%ADD12R,0.200000X0.400000*%
G04 APERTURE END LIST*
%TO.C,R5*%
G36*
G01*
X105683500Y-111358000D02*
X105683500Y-111908000D01*
G75*
G02*
X105483500Y-112108000I-200000J0D01*
G01*
X105083500Y-112108000D01*
G75*
G02*
X104883500Y-111908000I0J200000D01*
G01*
X104883500Y-111358000D01*
G75*
G02*
X105083500Y-111158000I200000J0D01*
G01*
X105483500Y-111158000D01*
G75*
G02*
X105683500Y-111358000I0J-200000D01*
G01*
G37*
G36*
G01*
X107333500Y-111358000D02*
X107333500Y-111908000D01*
G75*
G02*
X107133500Y-112108000I-200000J0D01*
G01*
X106733500Y-112108000D01*
G75*
G02*
X106533500Y-111908000I0J200000D01*
G01*
X106533500Y-111358000D01*
G75*
G02*
X106733500Y-111158000I200000J0D01*
G01*
X107133500Y-111158000D01*
G75*
G02*
X107333500Y-111358000I0J-200000D01*
G01*
G37*
%TD*%
%TO.C,R3*%
G36*
G01*
X114764000Y-101071000D02*
X114764000Y-101621000D01*
G75*
G02*
X114564000Y-101821000I-200000J0D01*
G01*
X114164000Y-101821000D01*
G75*
G02*
X113964000Y-101621000I0J200000D01*
G01*
X113964000Y-101071000D01*
G75*
G02*
X114164000Y-100871000I200000J0D01*
G01*
X114564000Y-100871000D01*
G75*
G02*
X114764000Y-101071000I0J-200000D01*
G01*
G37*
G36*
G01*
X116414000Y-101071000D02*
X116414000Y-101621000D01*
G75*
G02*
X116214000Y-101821000I-200000J0D01*
G01*
X115814000Y-101821000D01*
G75*
G02*
X115614000Y-101621000I0J200000D01*
G01*
X115614000Y-101071000D01*
G75*
G02*
X115814000Y-100871000I200000J0D01*
G01*
X116214000Y-100871000D01*
G75*
G02*
X116414000Y-101071000I0J-200000D01*
G01*
G37*
%TD*%
%TO.C,R4*%
G36*
G01*
X110788000Y-101621000D02*
X110788000Y-101071000D01*
G75*
G02*
X110988000Y-100871000I200000J0D01*
G01*
X111388000Y-100871000D01*
G75*
G02*
X111588000Y-101071000I0J-200000D01*
G01*
X111588000Y-101621000D01*
G75*
G02*
X111388000Y-101821000I-200000J0D01*
G01*
X110988000Y-101821000D01*
G75*
G02*
X110788000Y-101621000I0J200000D01*
G01*
G37*
G36*
G01*
X109138000Y-101621000D02*
X109138000Y-101071000D01*
G75*
G02*
X109338000Y-100871000I200000J0D01*
G01*
X109738000Y-100871000D01*
G75*
G02*
X109938000Y-101071000I0J-200000D01*
G01*
X109938000Y-101621000D01*
G75*
G02*
X109738000Y-101821000I-200000J0D01*
G01*
X109338000Y-101821000D01*
G75*
G02*
X109138000Y-101621000I0J200000D01*
G01*
G37*
%TD*%
%TO.C,R1*%
G36*
G01*
X121010000Y-100501000D02*
X121560000Y-100501000D01*
G75*
G02*
X121760000Y-100701000I0J-200000D01*
G01*
X121760000Y-101101000D01*
G75*
G02*
X121560000Y-101301000I-200000J0D01*
G01*
X121010000Y-101301000D01*
G75*
G02*
X120810000Y-101101000I0J200000D01*
G01*
X120810000Y-100701000D01*
G75*
G02*
X121010000Y-100501000I200000J0D01*
G01*
G37*
G36*
G01*
X121010000Y-98851000D02*
X121560000Y-98851000D01*
G75*
G02*
X121760000Y-99051000I0J-200000D01*
G01*
X121760000Y-99451000D01*
G75*
G02*
X121560000Y-99651000I-200000J0D01*
G01*
X121010000Y-99651000D01*
G75*
G02*
X120810000Y-99451000I0J200000D01*
G01*
X120810000Y-99051000D01*
G75*
G02*
X121010000Y-98851000I200000J0D01*
G01*
G37*
%TD*%
%TO.C,R2*%
G36*
G01*
X123550000Y-100501000D02*
X124100000Y-100501000D01*
G75*
G02*
X124300000Y-100701000I0J-200000D01*
G01*
X124300000Y-101101000D01*
G75*
G02*
X124100000Y-101301000I-200000J0D01*
G01*
X123550000Y-101301000D01*
G75*
G02*
X123350000Y-101101000I0J200000D01*
G01*
X123350000Y-100701000D01*
G75*
G02*
X123550000Y-100501000I200000J0D01*
G01*
G37*
G36*
G01*
X123550000Y-98851000D02*
X124100000Y-98851000D01*
G75*
G02*
X124300000Y-99051000I0J-200000D01*
G01*
X124300000Y-99451000D01*
G75*
G02*
X124100000Y-99651000I-200000J0D01*
G01*
X123550000Y-99651000D01*
G75*
G02*
X123350000Y-99451000I0J200000D01*
G01*
X123350000Y-99051000D01*
G75*
G02*
X123550000Y-98851000I200000J0D01*
G01*
G37*
%TD*%
D10*
%TO.C,U2*%
X114871500Y-120409500D03*
D11*
X116421500Y-119409500D03*
X116421500Y-121009500D03*
X116421500Y-120609500D03*
X116421500Y-121409500D03*
X116421500Y-120209500D03*
X116421500Y-119809500D03*
D12*
X114271500Y-121959500D03*
X115871500Y-121959500D03*
X114671500Y-121959500D03*
X115071500Y-121959500D03*
X115471500Y-121959500D03*
X113871500Y-121959500D03*
D11*
X113321500Y-121009500D03*
X113321500Y-119409500D03*
X113321500Y-120609500D03*
X113321500Y-120209500D03*
X113321500Y-119809500D03*
X113321500Y-121409500D03*
D12*
X115471500Y-118859500D03*
X115871500Y-118859500D03*
X115071500Y-118859500D03*
X114671500Y-118859500D03*
X114271500Y-118859500D03*
X113871500Y-118859500D03*
%TD*%
M02*
